<?xml version="1.0" encoding="UTF-8"?>
<svg width="24px" height="24px" viewBox="0 0 24 24" version="1.1" xmlns="http://www.w3.org/2000/svg" xmlns:xlink="http://www.w3.org/1999/xlink">
    <!-- Generator: Sketch 52.5 (67469) - http://www.bohemiancoding.com/sketch -->

    <desc>Created with Sketch.</desc>
    <g id="bold" stroke="none" stroke-width="1" fill="none" fill-rule="evenodd">
        <g id="icons/sort-copy-7" fill="#5E646E" fill-rule="nonzero">
            <path d="M15.1,11.79 C16.07,11.12 16.75,10.02 16.75,9 C16.75,6.74 15,5 12.75,5 L6.5,5 L6.5,19 L13.54,19 C15.63,19 17.25,17.3 17.25,15.21 C17.25,13.69 16.39,12.39 15.1,11.79 Z M9.5,7.5 L12.5,7.5 C13.33,7.5 14,8.17 14,9 C14,9.83 13.33,10.5 12.5,10.5 L9.5,10.5 L9.5,7.5 Z M13,16.5 L9.5,16.5 L9.5,13.5 L13,13.5 C13.83,13.5 14.5,14.17 14.5,15 C14.5,15.83 13.83,16.5 13,16.5 Z" id="Shape"></path>
        </g>
    </g>
</svg>
