<?xml version="1.0" encoding="UTF-8"?>
<svg width="24px" height="24px" viewBox="0 0 24 24" version="1.1" xmlns="http://www.w3.org/2000/svg" xmlns:xlink="http://www.w3.org/1999/xlink">
    <!-- Generator: Sketch 52.5 (67469) - http://www.bohemiancoding.com/sketch -->

    <desc>Created with Sketch.</desc>
    <g id="icons/comment" stroke="none" stroke-width="1" fill="none" fill-rule="evenodd">
        <path d="M12,4 C7.6,4 4,7.1 4,11 C4,14.9 7.6,18 12,18 L12.6,18 L18,20 L18,15.6 C19.2,14.4 20,12.8 20,11 C20,7.1 16.4,4 12,4 Z M16,14.8 L16,17.1 L12.9,16 L12,16 C8.7,16 6,13.8 6,11 C6,8.2 8.7,6 12,6 C15.3,6 18,8.2 18,11 C18,13.2 16,14.8 16,14.8 Z" id="comment" fill="#5E646E" fill-rule="nonzero"></path>
    </g>
</svg>
