<?xml version="1.0" encoding="UTF-8"?>
<svg width="24px" height="24px" viewBox="0 0 24 24" version="1.1" xmlns="http://www.w3.org/2000/svg" xmlns:xlink="http://www.w3.org/1999/xlink">
    <!-- Generator: Sketch 53.1 (72631) - https://sketchapp.com -->

    <desc>Created with Sketch.</desc>
    <g id="icons/separator-copy" stroke="none" stroke-width="1" fill="none" fill-rule="evenodd">
        <path d="M9.03675783,6.97440951 L17.9433182,6.97440951 C18.3242701,6.97440951 18.6330926,7.28323202 18.6330926,7.66418389 L18.6330926,19.3102256 C18.6330926,19.6911775 18.3242701,20 17.9433182,20 L9.03675783,20 C8.65580596,20 8.34698346,19.6911775 8.34698346,19.3102256 L8.34698346,7.66418389 C8.34698346,7.28323202 8.65580596,6.97440951 9.03675783,6.97440951 Z M9.03675783,7.43425909 C8.90977388,7.43425909 8.80683304,7.53719993 8.80683304,7.66418389 L8.80683304,19.3102256 C8.80683304,19.4372096 8.90977388,19.5401504 9.03675783,19.5401504 L17.9433182,19.5401504 C18.0703022,19.5401504 18.173243,19.4372096 18.173243,19.3102256 L18.173243,7.66418389 C18.173243,7.53719993 18.0703022,7.43425909 17.9433182,7.43425909 L9.03675783,7.43425909 Z M7.36677776,15.6168161 C7.49376171,15.6168161 7.59670255,15.719757 7.59670255,15.8467409 C7.59670255,15.9737249 7.49376171,16.0766657 7.36677776,16.0766657 L6.21715379,16.0766657 C5.62059171,16.0766657 5.36690738,15.8229814 5.36690738,15.2264193 L5.36690738,4.85024642 C5.36690738,4.25368433 5.62059171,4 6.21715379,4 L14.0607223,4 C14.6572843,4 14.9109687,4.25368433 14.9109687,4.85024642 L14.9109687,5.99987038 C14.9109687,6.12685434 14.8080278,6.22979518 14.6810439,6.22979518 C14.5540599,6.22979518 14.4511191,6.12685434 14.4511191,5.99987038 L14.4511191,4.85024642 C14.4511191,4.50765224 14.4033164,4.45984959 14.0607223,4.45984959 L6.21715379,4.45984959 C5.87455962,4.45984959 5.82675696,4.50765224 5.82675696,4.85024642 L5.82675696,15.2264193 C5.82675696,15.5690135 5.87455962,15.6168161 6.21715379,15.6168161 L7.36677776,15.6168161 Z M16.2491356,16.1477189 C16.3761195,16.1477189 16.4790604,16.2506598 16.4790604,16.3776437 C16.4790604,16.5046277 16.3761195,16.6075685 16.2491356,16.6075685 L10.7962876,16.6075685 C10.6693036,16.6075685 10.5663628,16.5046277 10.5663628,16.3776437 C10.5663628,16.2506598 10.6693036,16.1477189 10.7962876,16.1477189 L16.2491356,16.1477189 Z M16.2491356,14.176052 C16.3761195,14.176052 16.4790604,14.2789929 16.4790604,14.4059768 C16.4790604,14.5329608 16.3761195,14.6359016 16.2491356,14.6359016 L10.7962876,14.6359016 C10.6693036,14.6359016 10.5663628,14.5329608 10.5663628,14.4059768 C10.5663628,14.2789929 10.6693036,14.176052 10.7962876,14.176052 L16.2491356,14.176052 Z M16.2491356,12.2043851 C16.3761195,12.2043851 16.4790604,12.3073259 16.4790604,12.4343099 C16.4790604,12.5612939 16.3761195,12.6642347 16.2491356,12.6642347 L10.7962876,12.6642347 C10.6693036,12.6642347 10.5663628,12.5612939 10.5663628,12.4343099 C10.5663628,12.3073259 10.6693036,12.2043851 10.7962876,12.2043851 L16.2491356,12.2043851 Z M13.5227116,10.4298849 C13.6496955,10.4298849 13.7526364,10.5328257 13.7526364,10.6598097 C13.7526364,10.7867936 13.6496955,10.8897345 13.5227116,10.8897345 L10.7962876,10.8897345 C10.6693036,10.8897345 10.5663628,10.7867936 10.5663628,10.6598097 C10.5663628,10.5328257 10.6693036,10.4298849 10.7962876,10.4298849 L13.5227116,10.4298849 Z" id="Combined-Shape" fill="#5E646E" fill-rule="nonzero"></path>
    </g>
</svg>
