<?xml version="1.0" encoding="UTF-8"?>
<svg width="24px" height="24px" viewBox="0 0 24 24" version="1.1" xmlns="http://www.w3.org/2000/svg" xmlns:xlink="http://www.w3.org/1999/xlink">
    <!-- Generator: Sketch 52.5 (67469) - http://www.bohemiancoding.com/sketch -->

    <desc>Created with Sketch.</desc>
    <g id="icons/dots" stroke="none" stroke-width="1" fill="none" fill-rule="evenodd">
        <path d="M13.414214,10.585786 C14.19526,11.366835 14.19526,12.633165 13.414214,13.414214 C12.633165,14.195262 11.366835,14.195262 10.585786,13.414214 C9.804738,12.633165 9.804738,11.366835 10.585786,10.585786 C11.366835,9.80474 12.633165,9.80474 13.414214,10.585786 Z M7.414214,10.585786 C8.195262,11.366835 8.195262,12.633165 7.414214,13.414214 C6.633165,14.195262 5.366835,14.195262 4.5857864,13.414214 C3.8047379,12.633165 3.8047379,11.366835 4.5857864,10.585786 C5.366835,9.80474 6.633165,9.80474 7.414214,10.585786 Z M19.41421,10.585786 C20.19526,11.366835 20.19526,12.633165 19.41421,13.414214 C18.63316,14.195262 17.36684,14.195262 16.58579,13.414214 C15.80474,12.633165 15.80474,11.366835 16.58579,10.585786 C17.36684,9.80474 18.63316,9.80474 19.41421,10.585786 Z" id="Combined-Shape" fill="#5E646E"></path>
    </g>
</svg>
