<?xml version="1.0" encoding="UTF-8"?>
<svg width="24px" height="24px" viewBox="0 0 24 24" version="1.1" xmlns="http://www.w3.org/2000/svg" xmlns:xlink="http://www.w3.org/1999/xlink">
    <!-- Generator: Sketch 52.5 (67469) - http://www.bohemiancoding.com/sketch -->

    <desc>Created with Sketch.</desc>
    <g id="icons/download" stroke="none" stroke-width="1" fill="none" fill-rule="evenodd">
        <path d="M13,12 L15.4,12 L12,16 L8.6,12 L11,12 L11,4 L13,4 L13,12 Z M19,20 L5,20 C4.4,20 4,19.6 4,19 L4,10 C4,9.4 4.4,9 5,9 L8,9 L8,11 L6,11 L6,18 L18,18 L18,11 L16,11 L16,9 L19,9 C19.6,9 20,9.4 20,10 L20,19 C20,19.6 19.6,20 19,20 Z" id="download" fill="#5E646E" fill-rule="nonzero"></path>
    </g>
</svg>
