<?xml version="1.0" encoding="UTF-8"?>
<svg width="24px" height="24px" viewBox="0 0 24 24" version="1.1" xmlns="http://www.w3.org/2000/svg" xmlns:xlink="http://www.w3.org/1999/xlink">
    <!-- Generator: Sketch 52.5 (67469) - http://www.bohemiancoding.com/sketch -->

    <desc>Created with Sketch.</desc>
    <g id="icons/draw" stroke="none" stroke-width="1" fill="none" fill-rule="evenodd">
        <path d="M15.1111007,4.28490002 L18.9097676,8.08356692 C19.2896343,8.46343362 19.2896343,9.03323365 18.9097676,9.41310034 L9.41310034,18.9097676 C9.223167,19.099701 9.03323365,19.1946676 8.74833363,19.1946676 L4.94966673,19.1946676 C4.37986669,19.1946676 4,18.8148009 4,18.2450009 L4,14.446334 C4,14.161434 4.09496667,13.9715006 4.28490002,13.7815673 L13.7815673,4.28490002 C14.161434,3.90503333 14.731234,3.90503333 15.1111007,4.28490002 Z M8.36846694,17.2953342 L14.0664673,11.5973338 L11.5973338,9.12820032 L5.89933345,14.8262007 L5.89933345,17.2953342 L8.36846694,17.2953342 Z M15.3960007,10.2678004 L16.9154675,8.74833363 L14.446334,6.27920014 L12.9268672,7.79866691 L15.3960007,10.2678004 Z M18.6252372,19.764113 L17.0703432,18.209219 C16.7645921,19.3608447 16.0811659,19.9227627 14.9601886,19.6232074 C14.5656225,19.5177688 14.2686634,19.3501594 13.8796505,19.0638568 C13.8437466,19.0374325 13.7924254,18.9991925 13.7151279,18.9416784 C13.6593722,18.9004367 13.6179692,18.8706609 13.580274,18.8448957 C13.2566125,18.623668 13.107812,18.667701 12.2093344,19.718127 C11.9202358,20.0561173 11.4118797,20.0957519 11.0738894,19.8066532 C10.7358991,19.5175546 10.6962646,19.0091986 10.9853632,18.6712082 C12.3634657,17.0600443 13.3821973,16.7585812 14.4891441,17.5151967 C14.5462084,17.554201 14.6024671,17.5946604 14.6729409,17.646789 C14.7567879,17.709163 14.8031324,17.7436948 14.8343459,17.7666671 C15.0749042,17.9437113 15.2195923,18.025376 15.3760028,18.0671731 C15.5032805,18.1011851 15.6519215,17.8250534 15.6495129,16.4562311 C15.6482493,15.7380876 16.5164695,15.3775638 17.0242744,15.8853687 L19.764128,18.6252222 C20.078624,18.9397182 20.078624,19.449617 19.764128,19.764113 C19.449632,20.078609 18.9397332,20.078609 18.6252372,19.764113 Z" id="draw" fill="#5E646E" fill-rule="nonzero"></path>
    </g>
</svg>
