<?xml version="1.0" encoding="UTF-8"?>
<svg width="24px" height="24px" viewBox="0 0 24 24" version="1.1" xmlns="http://www.w3.org/2000/svg" xmlns:xlink="http://www.w3.org/1999/xlink">
    <!-- Generator: Sketch 52.5 (67469) - http://www.bohemiancoding.com/sketch -->

    <desc>Created with Sketch.</desc>
    <g id="icons/face" stroke="none" stroke-width="1" fill="none" fill-rule="evenodd">
        <path d="M9.707107,12.292893 C10.097631,12.683418 10.097631,13.316582 9.707107,13.707107 C9.316582,14.097631 8.683418,14.097631 8.292893,13.707107 C7.902369,13.316582 7.902369,12.683418 8.292893,12.292893 C8.683418,11.902369 9.316582,11.902369 9.707107,12.292893 Z M15.70711,12.292893 C16.09763,12.683418 16.09763,13.316582 15.70711,13.707107 C15.31658,14.097631 14.68342,14.097631 14.29289,13.707107 C13.902369,13.316582 13.902369,12.683418 14.29289,12.292893 C14.68342,11.902369 15.31658,11.902369 15.70711,12.292893 Z M12,4 C16.411,4 20,7.589 20,12 C20,16.411 16.411,20 12,20 C7.589,20 4,16.411 4,12 C4,7.589 7.589,4 12,4 Z M12,18 C15.309,18 18,15.309 18,12 C18,11.692 17.969,11.391 17.925,11.096 C17.017,10.753 15.677,9.972 14.546,8.182 C11.326,11.095 8.321,9.5 6.229,10.378 C6.083,10.895 6,11.437 6,12 C6,15.309 8.691,18 12,18 Z" id="face" fill="#5E646E"></path>
    </g>
</svg>
