<?xml version="1.0" encoding="UTF-8"?>
<svg width="24px" height="24px" viewBox="0 0 24 24" version="1.1" xmlns="http://www.w3.org/2000/svg" xmlns:xlink="http://www.w3.org/1999/xlink">
    <!-- Generator: Sketch 52.5 (67469) - http://www.bohemiancoding.com/sketch -->

    <desc>Created with Sketch.</desc>
    <g id="h1" stroke="none" stroke-width="1" fill="none" fill-rule="evenodd">
        <g id="icons/sort-copy-3" fill="#5E646E" fill-rule="nonzero">
            <path d="M4,17.5935657 L4,6.40643432 L6.52225201,6.40643432 L6.52225201,10.7131367 L10.3828418,10.7131367 L10.3828418,6.40643432 L12.922252,6.40643432 L12.922252,17.5935657 L10.3828418,17.5935657 L10.3828418,12.9265416 L6.52225201,12.9265416 L6.52225201,17.5935657 L4,17.5935657 Z M15.0219839,17.5935657 L15.0219839,15.9656836 L16.6262735,15.9656836 L16.6262735,12.0965147 L15.2107239,12.0965147 L15.2107239,10.8461126 C15.6353909,10.7596064 15.9971388,10.6613053 16.2959786,10.5512064 C16.5948183,10.4411076 16.8857895,10.295622 17.1689008,10.1147453 L18.6552279,10.1147453 L18.6552279,15.9656836 L20,15.9656836 L20,17.5935657 L15.0219839,17.5935657 Z" id="H1"></path>
        </g>
    </g>
</svg>
