<?xml version="1.0" encoding="UTF-8"?>
<svg width="24px" height="24px" viewBox="0 0 24 24" version="1.1" xmlns="http://www.w3.org/2000/svg" xmlns:xlink="http://www.w3.org/1999/xlink">
    <!-- Generator: Sketch 52.5 (67469) - http://www.bohemiancoding.com/sketch -->

    <desc>Created with Sketch.</desc>
    <g id="h2" stroke="none" stroke-width="1" fill="none" fill-rule="evenodd">
        <g id="icons/sort-copy-4" fill="#5E646E" fill-rule="nonzero">
            <path d="M4,17.5607676 L4,6.43923241 L6.50746269,6.43923241 L6.50746269,10.7206823 L10.3454158,10.7206823 L10.3454158,6.43923241 L12.869936,6.43923241 L12.869936,17.5607676 L10.3454158,17.5607676 L10.3454158,12.9211087 L6.50746269,12.9211087 L6.50746269,17.5607676 L4,17.5607676 Z M14.6055437,17.5607676 L14.6055437,16.4115139 C15.0433568,16.0049731 15.451846,15.6218923 15.8310235,15.2622601 C16.2102009,14.9026279 16.5405103,14.5645005 16.8219616,14.2478678 C17.1034129,13.9312351 17.3242707,13.6302431 17.4845416,13.3448827 C17.6448125,13.0595224 17.7249467,12.7917568 17.7249467,12.5415778 C17.7249467,12.2053999 17.6409035,11.9571792 17.4728145,11.7969083 C17.3047255,11.6366374 17.0838678,11.5565032 16.8102345,11.5565032 C16.5600556,11.5565032 16.3391978,11.6288195 16.1476546,11.7734542 C15.9561113,11.9180889 15.7704344,12.0803118 15.5906183,12.2601279 L14.5117271,11.1812367 C14.7071794,10.9779663 14.8987197,10.8001074 15.0863539,10.6476546 C15.2739881,10.4952018 15.471392,10.3701142 15.6785714,10.2723881 C15.8857509,10.1746619 16.1046541,10.1023457 16.3352878,10.0554371 C16.5659216,10.0085286 16.8180512,9.98507463 17.0916844,9.98507463 C17.4669528,9.98507463 17.8109437,10.0437094 18.1236674,10.1609808 C18.436391,10.2782522 18.7061112,10.4424296 18.9328358,10.6535181 C19.1595605,10.8646066 19.3354649,11.1206453 19.4605544,11.4216418 C19.5856438,11.7226383 19.6481876,12.0568567 19.6481876,12.424307 C19.6481876,12.7213945 19.5836893,13.024341 19.4546908,13.3331557 C19.3256923,13.6419703 19.1595604,13.9488258 18.95629,14.2537313 C18.7530196,14.5586369 18.5243438,14.8557199 18.2702559,15.1449893 C18.0161679,15.4342587 17.7640382,15.7078878 17.5138593,15.9658849 C17.7014935,15.9424306 17.9145333,15.9209312 18.1529851,15.9013859 C18.3914369,15.8818407 18.5927497,15.8720682 18.7569296,15.8720682 L20,15.8720682 L20,17.5607676 L14.6055437,17.5607676 Z" id="H2"></path>
        </g>
    </g>
</svg>
