<?xml version="1.0" encoding="UTF-8"?>
<svg width="24px" height="24px" viewBox="0 0 24 24" version="1.1" xmlns="http://www.w3.org/2000/svg" xmlns:xlink="http://www.w3.org/1999/xlink">
    <!-- Generator: Sketch 52.5 (67469) - http://www.bohemiancoding.com/sketch -->

    <desc>Created with Sketch.</desc>
    <g id="icons/logout" stroke="none" stroke-width="1" fill="none" fill-rule="evenodd">
        <path d="M10.3022273,15.1911058 L11.555554,16.4444325 L15.9999865,12 L11.555554,7.5555675 L10.3022273,8.80889421 L12.5955528,11.1111104 L4,11.1111104 L4,12.8888896 L12.5955528,12.8888896 L10.3022273,15.1911058 Z M18.2222184,4.000009 L5.77779487,4.000009 C4.79112411,4.000009 4.00001562,4.8000081 4.00001562,5.77778825 L4.00001562,9.33334675 L5.77779487,9.33334675 L5.77779487,5.77778825 L18.2222184,5.77778825 L18.2222184,18.2222118 L5.77779487,18.2222118 L5.77779487,14.6666533 L4.00001562,14.6666533 L4.00001562,18.2222118 C4.00001562,19.1999919 4.79112411,19.999991 5.77779487,19.999991 L18.2222184,19.999991 C19.1999985,19.999991 19.9999976,19.1999919 19.9999976,18.2222118 L19.9999976,5.77778825 C19.9999976,4.8000081 19.1999985,4.000009 18.2222184,4.000009 Z" id="logout" fill="#5E646E" fill-rule="nonzero"></path>
    </g>
</svg>
