<?xml version="1.0" encoding="UTF-8"?>
<svg width="24px" height="24px" viewBox="0 0 24 24" version="1.1" xmlns="http://www.w3.org/2000/svg" xmlns:xlink="http://www.w3.org/1999/xlink">
    <!-- Generator: Sketch 53.2 (72643) - https://sketchapp.com -->

    <desc>Created with Sketch.</desc>
    <g id="icons/dolar" stroke="none" stroke-width="1" fill="none" fill-rule="evenodd">
        <path d="M12.3466667,11.0222222 C10.3288889,10.4977778 9.68,9.95555556 9.68,9.11111111 C9.68,8.14222222 10.5777778,7.46666667 12.08,7.46666667 C13.6622222,7.46666667 14.2488889,8.22222222 14.3022222,9.33333333 L16.2666667,9.33333333 C16.2044444,7.80444444 15.2711111,6.4 13.4133333,5.94666667 L13.4133333,4 L10.7466667,4 L10.7466667,5.92 C9.02222222,6.29333333 7.63555556,7.41333333 7.63555556,9.12888889 C7.63555556,11.1822222 9.33333333,12.2044444 11.8133333,12.8 C14.0355556,13.3333333 14.48,14.1155556 14.48,14.9422222 C14.48,15.5555556 14.0444444,16.5333333 12.08,16.5333333 C10.2488889,16.5333333 9.52888889,15.7155556 9.43111111,14.6666667 L7.47555556,14.6666667 C7.58222222,16.6133333 9.04,17.7066667 10.7466667,18.0711111 L10.7466667,20 L13.4133333,20 L13.4133333,18.0888889 C15.1466667,17.76 16.5244444,16.7555556 16.5244444,14.9333333 C16.5244444,12.4088889 14.3644444,11.5466667 12.3466667,11.0222222 Z" id="Path" fill="#5E646E" fill-rule="nonzero"></path>
    </g>
</svg>
