<?xml version="1.0" encoding="UTF-8"?>
<svg width="24px" height="24px" viewBox="0 0 24 24" version="1.1" xmlns="http://www.w3.org/2000/svg" xmlns:xlink="http://www.w3.org/1999/xlink">
    <!-- Generator: Sketch 52.5 (67469) - http://www.bohemiancoding.com/sketch -->

    <desc>Created with Sketch.</desc>
    <g id="icons/notes" stroke="none" stroke-width="1" fill="none" fill-rule="evenodd">
        <path d="M19,5 C19.6,5 20,5.4 20,6 L20,19 C20,19.6 19.6,20 19,20 L5,20 C4.4,20 4,19.6 4,19 L4,6 C4,5.4 4.4,5 5,5 L8,5 L8,7 L6,7 L6,18 L18,18 L18,7 L16,7 L16,5 L19,5 Z M9,4 L15,4 L15,8 L9,8 L9,4 Z M8,10 L16,10 L16,12 L8,12 L8,10 Z M8,14 L16,14 L16,16 L8,16 L8,14 Z" id="notes" fill="#5E646E" fill-rule="nonzero"></path>
    </g>
</svg>
