<?xml version="1.0" encoding="UTF-8"?>
<svg width="24px" height="24px" viewBox="0 0 24 24" version="1.1" xmlns="http://www.w3.org/2000/svg" xmlns:xlink="http://www.w3.org/1999/xlink">
    <!-- Generator: Sketch 52.5 (67469) - http://www.bohemiancoding.com/sketch -->

    <desc>Created with Sketch.</desc>
    <g id="orderedList" stroke="none" stroke-width="1" fill="none" fill-rule="evenodd">
        <g id="icons/sort-copy-6" fill="#5E646E" fill-rule="nonzero">
            <path d="M6.28571429,7.53024664 L6.28571429,20.1016752 L4,20.1016752 L4,7.53024664 L6.28571429,7.53024664 Z M10.8571429,7.53024664 L10.8571429,20.1016752 L8.57142857,20.1016752 L8.57142857,7.53024664 L10.8571429,7.53024664 Z M15.4285714,7.53024664 L15.4285714,20.1016752 L13.1428571,20.1016752 L13.1428571,7.53024664 L15.4285714,7.53024664 Z M20,7.53024664 L20,20.1016752 L17.7142857,20.1016752 L17.7142857,7.53024664 L20,7.53024664 Z M17.464,4.08232479 L18.016,4.08232479 L18.016,4.62632479 L19.328,4.62632479 L19.328,4.14632479 L19.752,4.14632479 C19.7813335,4.29032551 19.8146665,4.41299095 19.852,4.51432479 C19.8893335,4.61565863 19.9386664,4.71432431 20,4.81032479 L20,5.31432479 L18.016,5.31432479 L18.016,5.77032479 L17.464,5.77032479 L17.464,4.08232479 Z M12.9893333,3.96232479 L13.3813333,3.96232479 C13.5200007,4.11165887 13.6506661,4.25099081 13.7733333,4.38032479 C13.8960006,4.50965877 14.0113328,4.62232431 14.1193333,4.71832479 C14.2273339,4.81432527 14.3299995,4.88965785 14.4273333,4.94432479 C14.5246672,4.99899173 14.6159996,5.02632479 14.7013333,5.02632479 C14.8160006,5.02632479 14.9006664,4.99765841 14.9553333,4.94032479 C15.0100003,4.88299117 15.0373333,4.80765859 15.0373333,4.71432479 C15.0373333,4.62899103 15.0126669,4.55365845 14.9633333,4.48832479 C14.9139998,4.42299113 14.858667,4.35965843 14.7973333,4.29832479 L15.1653333,3.93032479 C15.234667,3.99699179 15.2953331,4.06232447 15.3473333,4.12632479 C15.3993336,4.19032511 15.4419998,4.25765777 15.4753333,4.32832479 C15.5086668,4.39899181 15.5333333,4.47365773 15.5493333,4.55232479 C15.5653334,4.63099185 15.5733333,4.71699099 15.5733333,4.81032479 C15.5733333,4.93832543 15.5533335,5.05565759 15.5133333,5.16232479 C15.4733331,5.26899199 15.4173337,5.36099107 15.3453333,5.43832479 C15.273333,5.51565851 15.1860005,5.57565791 15.0833333,5.61832479 C14.9806662,5.66099167 14.8666673,5.68232479 14.7413333,5.68232479 C14.6399995,5.68232479 14.5366672,5.66032501 14.4313333,5.61632479 C14.3259995,5.57232457 14.2213339,5.51565847 14.1173333,5.44632479 C14.0133328,5.37699111 13.9120005,5.29899189 13.8133333,5.21232479 C13.7146662,5.12565769 13.6213338,5.03965855 13.5333333,4.95432479 C13.5413334,5.01832511 13.5486666,5.09099105 13.5553333,5.17232479 C13.562,5.25365853 13.5653333,5.32232451 13.5653333,5.37832479 L13.5653333,5.80232479 L12.9893333,5.80232479 L12.9893333,3.96232479 Z M8.46666667,4.80232479 C8.46666667,4.59432375 8.49866635,4.41565887 8.56266667,4.26632479 C8.62666699,4.11699071 8.71466611,3.99432527 8.82666667,3.89832479 L9.25866667,4.21032479 C9.18666631,4.28765851 9.12866689,4.37099101 9.08466667,4.46032479 C9.04066645,4.54965857 9.01866667,4.63965767 9.01866667,4.73032479 C9.01866667,4.84232535 9.03866647,4.93165779 9.07866667,4.99832479 C9.11866687,5.06499179 9.17866627,5.09832479 9.25866667,5.09832479 C9.30666691,5.09832479 9.34933315,5.09032487 9.38666667,5.07432479 C9.42400019,5.05832471 9.45599987,5.02765835 9.48266667,4.98232479 C9.50933347,4.93699123 9.52933327,4.87299187 9.54266667,4.79032479 C9.55600007,4.70765771 9.56266667,4.59965879 9.56266667,4.46632479 L10.0426667,4.46632479 C10.0426667,4.57299199 10.0493333,4.66165777 10.0626667,4.73232479 C10.0760001,4.80299181 10.0953332,4.85965791 10.1206667,4.90232479 C10.1460001,4.94499167 10.1759998,4.97499137 10.2106667,4.99232479 C10.2453335,5.00965821 10.2853331,5.01832479 10.3306667,5.01832479 C10.4853341,5.01832479 10.5626667,4.93032567 10.5626667,4.75432479 C10.5626667,4.66899103 10.5453335,4.59299179 10.5106667,4.52632479 C10.4759998,4.45965779 10.4240003,4.38632519 10.3546667,4.30632479 L10.7706667,3.96232479 C10.8746672,4.08765875 10.955333,4.21699079 11.0126667,4.35032479 C11.0700003,4.48365879 11.0986667,4.62899067 11.0986667,4.78632479 C11.0986667,5.06632619 11.0366673,5.28965729 10.9126667,5.45632479 C10.788666,5.62299229 10.6120011,5.70632479 10.3826667,5.70632479 C10.1373321,5.70632479 9.95466727,5.57032615 9.83466667,5.29832479 L9.81866667,5.29832479 C9.77333311,5.44232551 9.70066717,5.55965767 9.60066667,5.65032479 C9.50066617,5.74099191 9.37066747,5.78632479 9.21066667,5.78632479 C9.09066607,5.78632479 8.98466713,5.75965839 8.89266667,5.70632479 C8.80066621,5.65299119 8.72266699,5.58165857 8.65866667,5.49232479 C8.59466635,5.40299101 8.54666683,5.29832539 8.51466667,5.17832479 C8.48266651,5.05832419 8.46666667,4.93299211 8.46666667,4.80232479 Z M4.04,4.97832479 L4.608,4.97832479 L4.608,3.89832479 L5.088,3.89832479 L6.576,4.76232479 L6.576,5.61832479 L5.128,5.61832479 L5.128,5.89032479 L4.608,5.89032479 L4.608,5.61832479 L4.04,5.61832479 L4.04,4.97832479 Z M5.128,4.54632479 L5.128,4.97832479 L5.416,4.97832479 C5.45866688,4.97832479 5.50599974,4.97899145 5.558,4.98032479 C5.61000026,4.98165813 5.6626664,4.98365811 5.716,4.98632479 C5.7693336,4.98899147 5.82199974,4.99165811 5.874,4.99432479 C5.92600026,4.99699147 5.97333312,4.99965811 6.016,5.00232479 L6.016,4.98632479 C5.93866628,4.95432463 5.86266704,4.92099163 5.788,4.88632479 C5.71333296,4.85165795 5.63733372,4.81565831 5.56,4.77832479 L5.128,4.54632479 Z" id="Combined-Shape" transform="translate(12.000000, 12.000000) rotate(-90.000000) translate(-12.000000, -12.000000) "></path>
        </g>
    </g>
</svg>
