<?xml version="1.0" encoding="UTF-8"?>
<svg width="24px" height="24px" viewBox="0 0 24 24" version="1.1" xmlns="http://www.w3.org/2000/svg" xmlns:xlink="http://www.w3.org/1999/xlink">
    <!-- Generator: Sketch 52.5 (67469) - http://www.bohemiancoding.com/sketch -->

    <desc>Created with Sketch.</desc>
    <g id="insertPhoto" stroke="none" stroke-width="1" fill="none" fill-rule="evenodd">
        <g id="icons/questionMark-Copy-2" fill="#5E646E" fill-rule="nonzero">
            <path d="M13.4545455,10.5440247 C13.4545455,9.74070142 14.1057676,9.08947924 14.9090909,9.08947924 C15.7124142,9.08947924 16.3636364,9.74070142 16.3636364,10.5440247 C16.3636364,11.347348 15.7124142,11.9985701 14.9090909,11.9985701 C14.1057676,11.9985701 13.4545455,11.347348 13.4545455,10.5440247 Z M18.4,3.99857015 C19.2836556,3.99857015 20,4.71491455 20,5.59857015 L20,18.4014299 C20,19.2850855 19.2836556,20.0014299 18.4,20.0014299 L5.6,20.0014299 C4.7163444,20.0014299 4,19.2850855 4,18.4014299 L4,5.59857015 C4,4.71491455 4.7163444,3.99857015 5.6,3.99857015 L18.4,3.99857015 Z M18.2656221,18.3013455 L18.2656221,5.69865451 L8.64346879,5.69865451 L11.3926555,8.2191927 L8.64346879,11.3698655 L13.4545455,15.1506727 L10.0180621,18.3013455 L18.2656221,18.3013455 Z" id="Combined-Shape" transform="translate(12.000000, 12.000000) rotate(-90.000000) translate(-12.000000, -12.000000) "></path>
        </g>
    </g>
</svg>
