<?xml version="1.0" encoding="UTF-8"?>
<svg width="24px" height="24px" viewBox="0 0 24 24" version="1.1" xmlns="http://www.w3.org/2000/svg" xmlns:xlink="http://www.w3.org/1999/xlink">
    <!-- Generator: Sketch 52.5 (67469) - http://www.bohemiancoding.com/sketch -->

    <desc>Created with Sketch.</desc>
    <g id="icons/tagFilled" stroke="none" stroke-width="1" fill="none" fill-rule="evenodd">
        <path d="M16.455,7.16 L20.25,12 L16.455,16.84 C16.1423684,17.2407143 15.6213158,17.5 15.0394737,17.5 L5.48684211,17.4921429 C4.53157895,17.4921429 3.75,16.7928571 3.75,15.9285714 L3.75,8.07142857 C3.75,7.20714286 4.53157895,6.50785714 5.48684211,6.50785714 L15.0394737,6.5 C15.6213158,6.5 16.1423684,6.75928571 16.455,7.16 Z M14.75,13.1 C15.3575132,13.1 15.85,12.6075132 15.85,12 C15.85,11.3924868 15.3575132,10.9 14.75,10.9 C14.1424868,10.9 13.65,11.3924868 13.65,12 C13.65,12.6075132 14.1424868,13.1 14.75,13.1 Z" id="tagFilled" fill="#5E646E" fill-rule="nonzero"></path>
    </g>
</svg>
