<?xml version="1.0" encoding="UTF-8"?>
<svg width="24px" height="24px" viewBox="0 0 24 24" version="1.1" xmlns="http://www.w3.org/2000/svg" xmlns:xlink="http://www.w3.org/1999/xlink">
    <!-- Generator: Sketch 52.5 (67469) - http://www.bohemiancoding.com/sketch -->

    <desc>Created with Sketch.</desc>
    <g id="unorderedList" stroke="none" stroke-width="1" fill="none" fill-rule="evenodd">
        <g id="icons/sort-copy-2" fill="#5E646E" fill-rule="nonzero">
            <path d="M7.42857143,17.7142857 L20,17.7142857 L20,20 L7.42857143,20 L7.42857143,17.7142857 Z M5.14285714,20 C4.51167457,20 4,19.4883254 4,18.8571429 C4,18.2259603 4.51167457,17.7142857 5.14285714,17.7142857 C5.77403971,17.7142857 6.28571429,18.2259603 6.28571429,18.8571429 C6.28571429,19.4883254 5.77403971,20 5.14285714,20 Z M7.42857143,13.1428571 L20,13.1428571 L20,15.4285714 L7.42857143,15.4285714 L7.42857143,13.1428571 Z M5.14285714,15.4285714 C4.51167457,15.4285714 4,14.9168969 4,14.2857143 C4,13.6545317 4.51167457,13.1428571 5.14285714,13.1428571 C5.77403971,13.1428571 6.28571429,13.6545317 6.28571429,14.2857143 C6.28571429,14.9168969 5.77403971,15.4285714 5.14285714,15.4285714 Z M7.42857143,8.57142857 L20,8.57142857 L20,10.8571429 L7.42857143,10.8571429 L7.42857143,8.57142857 Z M5.14285714,10.8571429 C4.51167457,10.8571429 4,10.3454683 4,9.71428571 C4,9.08310314 4.51167457,8.57142857 5.14285714,8.57142857 C5.77403971,8.57142857 6.28571429,9.08310314 6.28571429,9.71428571 C6.28571429,10.3454683 5.77403971,10.8571429 5.14285714,10.8571429 Z M7.42857143,4 L20,4 L20,6.28571429 L7.42857143,6.28571429 L7.42857143,4 Z M5.14285714,6.28571429 C4.51167457,6.28571429 4,5.77403971 4,5.14285714 C4,4.51167457 4.51167457,4 5.14285714,4 C5.77403971,4 6.28571429,4.51167457 6.28571429,5.14285714 C6.28571429,5.77403971 5.77403971,6.28571429 5.14285714,6.28571429 Z" id="Bullet-List" transform="translate(12.000000, 12.000000) rotate(-360.000000) translate(-12.000000, -12.000000) "></path>
        </g>
    </g>
</svg>
