<?xml version="1.0" encoding="UTF-8"?>
<svg width="25px" height="25px" viewBox="0 0 25 25" version="1.1" xmlns="http://www.w3.org/2000/svg" xmlns:xlink="http://www.w3.org/1999/xlink">
    <!-- Generator: Sketch 52.2 (67145) - http://www.bohemiancoding.com/sketch -->
    <title>addPeople</title>
    <desc>Created with Sketch.</desc>
    <g id="addPeople" stroke="none" stroke-width="1" fill="none" fill-rule="evenodd" transform="translate(0.285714, 0.285714)">
        <path d="M8.08333333,10.53125 L5.14583333,10.53125 L5.14583333,7.59375 L3.1875,7.59375 L3.1875,10.53125 L0.25,10.53125 L0.25,12.4895833 L3.1875,12.4895833 L3.1875,15.4270833 L5.14583333,15.4270833 L5.14583333,12.4895833 L8.08333333,12.4895833 L8.08333333,10.53125 Z M17.875,11.5104167 C19.4955208,11.5104167 20.8027083,10.1934375 20.8027083,8.57291667 C20.8027083,6.95239583 19.4955208,5.63541667 17.875,5.63541667 C17.5616667,5.63541667 17.2630208,5.684375 16.9790625,5.77739583 C17.5322917,6.57052083 17.8652083,7.535 17.8652083,8.57291667 C17.8652083,9.61083333 17.5322917,10.5753125 16.9790625,11.3684375 C17.2630208,11.4614583 17.5616667,11.5104167 17.875,11.5104167 Z M12.9791667,11.5104167 C14.5996875,11.5104167 15.906875,10.1934375 15.906875,8.57291667 C15.906875,6.95239583 14.5996875,5.63541667 12.9791667,5.63541667 C11.3586458,5.63541667 10.0416667,6.95239583 10.0416667,8.57291667 C10.0416667,10.1934375 11.3586458,11.5104167 12.9791667,11.5104167 Z M19.46125,13.6254167 C20.2739583,14.3353125 20.8125,15.2508333 20.8125,16.40625 L20.8125,18.3645833 L23.75,18.3645833 L23.75,16.40625 C23.75,14.8983333 21.4244792,13.9730208 19.46125,13.6254167 Z M12.9791667,13.46875 C11.0208333,13.46875 7.10416667,14.4479167 7.10416667,16.40625 L7.10416667,18.3645833 L18.8541667,18.3645833 L18.8541667,16.40625 C18.8541667,14.4479167 14.9375,13.46875 12.9791667,13.46875 Z" fill="#000000" fill-rule="nonzero"></path>
    </g>
</svg>