<?xml version="1.0" encoding="UTF-8"?>
<svg width="24px" height="24px" viewBox="0 0 24 24" version="1.1" xmlns="http://www.w3.org/2000/svg" xmlns:xlink="http://www.w3.org/1999/xlink">
    <!-- Generator: Sketch 52.5 (67469) - http://www.bohemiancoding.com/sketch -->
    <title>icons/addPeople</title>
    <desc>Created with Sketch.</desc>
    <g id="icons/addPeople" stroke="none" stroke-width="1" fill="none" fill-rule="evenodd">
        <path d="M12,11.4444444 C13.2333333,11.4444444 14.2222222,10.4444444 14.2222222,9.22222222 C14.2222222,8 13.2333333,7 12,7 C10.7777778,7 9.77777778,8 9.77777778,9.22222222 C9.77777778,10.4444444 10.7777778,11.4444444 12,11.4444444 Z M16.4444444,11.4444444 C17.6777778,11.4444444 18.6666667,10.4444444 18.6666667,9.22222222 C18.6666667,8 17.6777778,7 16.4444444,7 C16.0444444,7 15.6777778,7.11111111 15.3555556,7.3 C15.6888889,7.86666667 15.8888889,8.52222222 15.8888889,9.22222222 C15.8888889,9.92222222 15.6888889,10.5777778 15.3555556,11.1444444 C15.6777778,11.3333333 16.0555556,11.4444444 16.4444444,11.4444444 Z M12,12.7777778 C10.1444444,12.7777778 6.44444444,13.7 6.44444444,15.5555556 L6.44444444,17 L17.5555556,17 L17.5555556,15.5555556 C17.5555556,13.7 13.8555556,12.7777778 12,12.7777778 Z M7.55555556,10.3333333 L5.33333333,10.3333333 L5.33333333,8.11111111 L4.22222222,8.11111111 L4.22222222,10.3333333 L2,10.3333333 L2,11.4444444 L4.22222222,11.4444444 L4.22222222,13.6666667 L5.33333333,13.6666667 L5.33333333,11.4444444 L7.55555556,11.4444444 L7.55555556,10.3333333 Z M17.8111111,12.9 C18.6444444,13.5666667 19.2222222,14.4333333 19.2222222,15.5555556 L19.2222222,17 L22,17 L22,15.5555556 C22,14.1 19.7,13.2111111 17.8111111,12.9 Z" id="addPeople" fill="#5E646E" fill-rule="nonzero"></path>
    </g>
</svg>