<?xml version="1.0" encoding="UTF-8"?>
<svg width="24px" height="24px" viewBox="0 0 24 24" version="1.1" xmlns="http://www.w3.org/2000/svg" xmlns:xlink="http://www.w3.org/1999/xlink">
    <!-- Generator: Sketch 52.5 (67469) - http://www.bohemiancoding.com/sketch -->
    <title>icons/bell</title>
    <desc>Created with Sketch.</desc>
    <g id="icons/bell" stroke="none" stroke-width="1" fill="none" fill-rule="evenodd">
        <path d="M17,11.4 L17,9 C17,6.2 14.8,4 12,4 C9.2,4 7,6.2 7,9 L7,11.4 C5.4,12.3 4,13.6 4,16 C4,18.2 7.7,20 12,20 C16.3,20 20,18.2 20,16 C20,13.6 18.5,12.2 17,11.4 Z M12,18 C8.3,18 6,16.6 6,16 C6,15.5 7.2,14.7 9.3,14.3 C9.8,15.3 10.8,16 12,16 C13.2,16 14.2,15.3 14.7,14.3 C16.8,14.7 18,15.6 18,16 C18,16.6 15.7,18 12,18 Z" id="bell" fill="#5E646E" fill-rule="nonzero"></path>
    </g>
</svg>