<?xml version="1.0" encoding="UTF-8"?>
<svg width="24px" height="25px" viewBox="0 0 24 25" version="1.1" xmlns="http://www.w3.org/2000/svg" xmlns:xlink="http://www.w3.org/1999/xlink">
    <!-- Generator: Sketch 52.2 (67145) - http://www.bohemiancoding.com/sketch -->
    <title>bell</title>
    <desc>Created with Sketch.</desc>
    <g id="bell" stroke="none" stroke-width="1" fill="none" fill-rule="evenodd" transform="translate(0.000000, 0.285714)">
        <path d="M18.25,11.25 L18.25,8.25 C18.25,4.75 15.5,2 12,2 C8.5,2 5.75,4.75 5.75,8.25 L5.75,11.25 C3.75,12.375 2,14 2,17 C2,19.75 6.625,22 12,22 C17.375,22 22,19.75 22,17 C22,14 20.125,12.25 18.25,11.25 Z M12,19.5 C7.375,19.5 4.5,17.75 4.5,17 C4.5,16.375 6,15.375 8.625,14.875 C9.25,16.125 10.5,17 12,17 C13.5,17 14.75,16.125 15.375,14.875 C18,15.375 19.5,16.5 19.5,17 C19.5,17.75 16.625,19.5 12,19.5 Z" fill="#000000" fill-rule="nonzero"></path>
    </g>
</svg>