<?xml version="1.0" encoding="UTF-8"?>
<svg width="24px" height="25px" viewBox="0 0 24 25" version="1.1" xmlns="http://www.w3.org/2000/svg" xmlns:xlink="http://www.w3.org/1999/xlink">
    <!-- Generator: Sketch 52.2 (67145) - http://www.bohemiancoding.com/sketch -->
    <title>binoculars</title>
    <desc>Created with Sketch.</desc>
    <g id="binoculars" stroke="none" stroke-width="1" fill="none" fill-rule="evenodd" transform="translate(0.000000, 0.857143)">
        <path d="M16.8019351,11.0114808 C16.6715136,11.0545628 16.5442263,11.1065744 16.4225088,11.1699514 C16.4132313,11.1801795 16.4019638,11.1890565 16.388826,11.1960633 C15.6094996,11.622642 15.1254969,12.4388838 15.1254969,13.3248548 C15.1213952,13.3904823 15.0680729,13.4479064 14.9983437,13.4479064 C14.9286145,13.4479064 14.8752921,13.394584 14.8752921,13.3248548 C14.8752921,12.354148 15.4025219,11.4604977 16.2553435,10.9866884 C16.2610574,10.9822081 16.2672742,10.9781459 16.2739779,10.9745706 C16.4298432,10.8884345 16.5980136,10.8187053 16.7702858,10.7653829 C16.7841939,10.7610366 16.7982863,10.7592694 16.8120163,10.7598079 C17.0483672,10.6912957 17.2951301,10.6587383 17.5455104,10.6587383 C17.6152396,10.6587383 17.668562,10.7120606 17.668562,10.7817898 C17.668562,10.851519 17.6152396,10.9048413 17.5455104,10.9048413 C17.3035091,10.9048413 17.0656095,10.9417568 16.840015,11.011486 C16.8277098,11.0073843 16.8154047,11.011486 16.8030995,11.011486 C16.8027112,11.011486 16.802323,11.0114843 16.8019351,11.0114808 Z M5.71526671,11.0113901 C5.58741204,11.0536104 5.4625676,11.1044102 5.34302775,11.1660837 C5.33315644,11.1779484 5.32075198,11.1881873 5.30598454,11.1960633 C4.52665816,11.622642 4.04265546,12.4388838 4.04265546,13.3248548 C4.03855374,13.3904823 3.98523141,13.4479064 3.91550221,13.4479064 C3.84577301,13.4479064 3.79245068,13.394584 3.79245068,13.3248548 C3.79245068,12.3586631 4.31478706,11.4688129 5.1606227,10.9933273 C5.1683354,10.9861648 5.17715639,10.979839 5.18703472,10.9745706 C5.3429,10.8884345 5.51107043,10.8187053 5.68334258,10.7653829 C5.69842289,10.7606703 5.71371978,10.7589898 5.72853652,10.7599931 C5.96508139,10.6913544 6.21206317,10.6587383 6.46266896,10.6587383 C6.53239816,10.6587383 6.58572049,10.7120606 6.58572049,10.7817898 C6.58572049,10.851519 6.53239816,10.9048413 6.46266896,10.9048413 C6.22066761,10.9048413 5.98276798,10.9417568 5.7571735,11.011486 C5.74486834,11.0073843 5.73256319,11.011486 5.72025804,11.011486 C5.71858995,11.011486 5.71692588,11.0114539 5.71526671,11.0113901 Z M20.6423074,10.1132098 C21.4831595,10.9253499 22.0040777,12.057424 21.999976,13.3166514 C21.999976,15.7776821 19.9983377,17.7793204 17.537307,17.7793204 C15.2649553,17.7793204 13.3863686,16.068904 13.1115535,13.8703833 C12.7834161,14.0590623 12.406058,14.165707 11.999988,14.165707 C11.5980196,14.165707 11.2165599,14.0590623 10.8884225,13.8703833 C10.6177091,16.0730058 8.73502061,17.7834221 6.46266896,17.7834221 C4.00163828,17.7834221 2,15.7817838 2,13.3207531 C2,12.0656275 2.52091816,10.9294517 3.36587202,10.1173115 C3.47661841,10.0065652 3.59556822,9.90402221 3.71861975,9.8096827 L3.78014552,9.75636037 C4.53896331,9.19032331 5.44134123,8.89089791 6.39293976,8.89089791 C7.8326427,8.89089791 9.18210785,9.60049509 10.0024514,10.7858915 C10.0147566,10.8105018 10.0434686,10.822807 10.0680789,10.822807 C10.0844858,10.822807 10.1008926,10.8146036 10.1131978,10.8064001 C10.1501133,10.7817898 10.1583167,10.7284675 10.1337064,10.691552 C9.28054908,9.46103669 7.88186331,8.7268292 6.38883804,8.7268292 C5.73256319,8.7268292 5.09679693,8.86218589 4.51435301,9.12879755 L5.39622233,8.38228491 C6.04019203,7.92699423 6.81541669,7.63167055 7.65216712,7.5742465 L7.56192933,7.66448429 L7.65216712,7.5742465 L8.58325706,6.63905485 L8.59146049,6.63905485 C8.87858074,6.37654491 9.25593877,6.22067963 9.67021227,6.22067963 C10.3798094,6.22067963 10.982762,6.68417374 11.1919496,7.32404172 C11.4216458,7.18048159 11.6923591,7.09434552 11.9835811,7.09434552 C12.0245983,7.09434552 12.0697172,7.09434552 12.1107344,7.09844724 C12.3691426,7.11485411 12.6070422,7.19278675 12.8121281,7.32404172 C13.017214,6.68007202 13.6201665,6.21657791 14.3338654,6.21657791 C14.7481389,6.21657791 15.1295987,6.37654491 15.4126172,6.63495313 L15.4208206,6.63495313 L16.3560123,7.56604307 L16.4462501,7.65628086 L16.3560123,7.56604307 C17.1927627,7.62346712 17.9638856,7.91468908 18.6119571,8.37408147 L19.4651144,9.10008552 C18.8990773,8.84988074 18.2838196,8.72272748 17.6480534,8.72272748 C16.1509264,8.72272748 14.7522406,9.45693497 13.903185,10.6874503 C13.8785747,10.7243658 13.8867782,10.7776881 13.9236936,10.8022984 C13.9359988,10.8146036 13.9524056,10.8187053 13.9688125,10.8187053 C13.9934228,10.8187053 14.0180331,10.8064001 14.03444,10.7817898 C14.8547836,9.59639337 16.2042487,8.8867962 17.6439517,8.8867962 C18.5299227,8.8867962 19.3666731,9.14520442 20.0926772,9.63741055 L20.2895596,9.80558098 C20.4126112,9.90402221 20.531561,10.0065652 20.6423074,10.1132098 Z M3.41919436,13.3207531 C3.41919436,15.0024574 4.78096466,16.3642277 6.46266896,16.3642277 C8.14437325,16.3642277 9.51024528,14.9983557 9.50614356,13.3207531 C9.50614356,11.6390488 8.14437325,10.2772785 6.46266896,10.2772785 C4.78096466,10.2772785 3.41919436,11.6390488 3.41919436,13.3207531 Z M10.1378081,14.4487255 C10.1501133,14.4036066 10.1255029,14.3584877 10.0803841,14.3461826 C10.0352652,14.3297757 9.99014626,14.354386 9.97784111,14.3995049 C9.75224663,15.1378141 9.28875252,15.8022924 8.66939313,16.2657865 C8.02952515,16.7456875 7.26660565,16.999994 6.46266896,16.999994 C6.41755006,16.999994 6.3806346,17.0369094 6.3806346,17.0820283 C6.3806346,17.1271472 6.41755006,17.1640627 6.46266896,17.1640627 C7.30352111,17.1640627 8.09925436,16.9015528 8.76783436,16.3970415 C9.41590577,15.9089371 9.90401019,15.2198485 10.1378081,14.4487255 Z M12.0040897,13.3166514 C12.5496182,13.3166514 12.9926037,12.8736659 12.9926037,12.3281374 C12.9926037,11.782609 12.5496182,11.3396234 12.0040897,11.3396234 C11.4585612,11.3396234 11.0155757,11.782609 11.0155757,12.3281374 C11.0155757,12.8736659 11.4585612,13.3166514 12.0040897,13.3166514 Z M14.5020358,13.3207531 C14.5020358,15.0024574 15.8638061,16.3642277 17.5455104,16.3642277 C19.2272147,16.3642277 20.588985,14.9983557 20.588985,13.3207531 C20.588985,11.6390488 19.2272147,10.2772785 17.5455104,10.2772785 C15.8638061,10.2772785 14.5020358,11.6390488 14.5020358,13.3207531 Z M19.8506758,16.3970415 C20.4987472,15.9089371 20.9827499,15.2157467 21.2165479,14.4487255 C21.2329547,14.4036066 21.2083444,14.3584877 21.1632255,14.3461826 C21.1181066,14.3297757 21.0729877,14.354386 21.0606826,14.3995049 C20.8350881,15.1378141 20.371594,15.8022924 19.7522346,16.2657865 C19.1123666,16.7456875 18.3494471,16.999994 17.5455104,16.999994 C17.5003915,16.999994 17.4634761,17.0369094 17.4634761,17.0820283 C17.4634761,17.1271472 17.5003915,17.1640627 17.5455104,17.1640627 C18.3863626,17.1640627 19.1820958,16.9015528 19.8506758,16.3970415 Z M12.8080264,12.3281374 C12.8080264,12.7744047 12.4462553,13.1361758 11.999988,13.1361758 C11.5537207,13.1361758 11.1919496,12.7744047 11.1919496,12.3281374 C11.1919496,11.8818701 11.5537207,11.520099 11.999988,11.520099 C12.4462553,11.520099 12.8080264,11.8818701 12.8080264,12.3281374 Z" fill="#000000"></path>
    </g>
</svg>