<?xml version="1.0" encoding="UTF-8"?>
<svg width="24px" height="24px" viewBox="0 0 24 24" version="1.1" xmlns="http://www.w3.org/2000/svg" xmlns:xlink="http://www.w3.org/1999/xlink">
    <!-- Generator: Sketch 52.5 (67469) - http://www.bohemiancoding.com/sketch -->

    <desc>Created with Sketch.</desc>
    <g id="icons/binoculars" stroke="none" stroke-width="1" fill="none" fill-rule="evenodd">
        <path d="M15.8415481,11.2091846 C15.7372109,11.2436502 15.635381,11.2852595 15.538007,11.3359611 C15.530585,11.3441436 15.521571,11.3512452 15.5110608,11.3568507 C14.8875997,11.6981136 14.5003975,12.351107 14.5003975,13.0598839 C14.4971162,13.1123859 14.4544583,13.1583251 14.3986749,13.1583251 C14.3428916,13.1583251 14.3002337,13.1156672 14.3002337,13.0598839 C14.3002337,12.2833184 14.7220175,11.5683982 15.4042748,11.1893507 C15.4088459,11.1857665 15.4138194,11.1825167 15.4191823,11.1796564 C15.5438746,11.1107476 15.6784109,11.0549642 15.8162286,11.0123064 C15.8273551,11.0088293 15.838629,11.0074155 15.8496131,11.0078464 C16.0386937,10.9530366 16.236104,10.9269906 16.4364083,10.9269906 C16.4921917,10.9269906 16.5348496,10.9696485 16.5348496,11.0254319 C16.5348496,11.0812152 16.4921917,11.1238731 16.4364083,11.1238731 C16.2428073,11.1238731 16.0524876,11.1534054 15.872012,11.2091888 C15.8621679,11.2059074 15.8523237,11.2091888 15.8424796,11.2091888 Z M6.97221337,11.209112 C6.86992963,11.2428883 6.77005408,11.2835281 6.6744222,11.332867 C6.66652515,11.3423587 6.65660159,11.3505499 6.64478763,11.3568507 C6.02132653,11.6981136 5.63412437,12.351107 5.63412437,13.0598839 C5.63084299,13.1123859 5.58818513,13.1583251 5.53240177,13.1583251 C5.47661841,13.1583251 5.43396054,13.1156672 5.43396054,13.0598839 C5.43396054,12.2869305 5.85182965,11.5750503 6.52849816,11.1946618 C6.53466832,11.1889318 6.54172511,11.1838712 6.54962778,11.1796564 C6.67432,11.1107476 6.80885634,11.0549642 6.94667406,11.0123064 C6.95873831,11.0085363 6.97097583,11.0071919 6.98282921,11.0079945 C7.17206511,10.9530835 7.36965053,10.9269906 7.57013517,10.9269906 C7.62591853,10.9269906 7.66857639,10.9696485 7.66857639,11.0254319 C7.66857639,11.0812152 7.62591853,11.1238731 7.57013517,11.1238731 C7.37653409,11.1238731 7.18621438,11.1534054 7.0057388,11.2091888 C6.99589468,11.2059074 6.98605055,11.2091888 6.97620643,11.2091888 C6.97487196,11.2091888 6.97354071,11.2091631 6.97221337,11.209112 Z M18.9138459,10.4905679 C19.5865276,11.14028 20.0032621,12.0459392 19.9999808,13.0533211 C19.9999808,15.0221457 18.3986701,16.6234563 16.4298456,16.6234563 C14.6119643,16.6234563 13.1090949,15.2551232 12.8892428,13.4963067 C12.6267329,13.6472499 12.3248464,13.7325656 11.9999904,13.7325656 C11.6784157,13.7325656 11.3732479,13.6472499 11.110738,13.4963067 C10.8941673,15.2584046 9.38801649,16.6267377 7.57013517,16.6267377 C5.60131063,16.6267377 4,15.025427 4,13.0566025 C4,12.052502 4.41673453,11.1435613 5.09269762,10.4938492 C5.18129472,10.4052521 5.27645458,10.3232178 5.3748958,10.2477462 L5.42411642,10.2050883 C6.03117065,9.75225865 6.75307298,9.51271833 7.5143518,9.51271833 C8.66611416,9.51271833 9.74568628,10.0803961 10.4019611,11.0287132 C10.4118053,11.0484015 10.4347749,11.0582456 10.4544631,11.0582456 C10.4675886,11.0582456 10.4807141,11.0516828 10.4905582,11.0451201 C10.5200906,11.0254319 10.5266534,10.982774 10.5069651,10.9532416 C9.82443926,9.96882935 8.70549065,9.38146336 7.51107043,9.38146336 C6.98605055,9.38146336 6.47743755,9.48974871 6.01148241,9.70303804 L6.71697787,9.10582793 C7.23215362,8.74159539 7.85233335,8.50533644 8.52173369,8.4593972 L8.44954346,8.53158744 L8.52173369,8.4593972 L9.26660565,7.71124388 L9.27316839,7.71124388 C9.50286459,7.50123593 9.80475102,7.3765437 10.1361698,7.3765437 C10.7038476,7.3765437 11.1862096,7.74733899 11.3535597,8.25923337 C11.5373166,8.14438528 11.7538873,8.07547642 11.9868649,8.07547642 C12.0196786,8.07547642 12.0557737,8.07547642 12.0885875,8.07875779 C12.2953141,8.09188329 12.4856338,8.1542294 12.6497025,8.25923337 C12.8137712,7.74405762 13.2961332,7.37326233 13.8670923,7.37326233 C14.1985111,7.37326233 14.5036789,7.50123593 14.7300937,7.7079625 L14.7366565,7.7079625 L15.4848098,8.45283445 L15.5570001,8.52502469 L15.4848098,8.45283445 C16.1542102,8.49877369 16.7711085,8.73175126 17.2895656,9.09926518 L17.9720915,9.68006842 C17.5192618,9.47990459 17.0270557,9.37818199 16.5184427,9.37818199 C15.3207411,9.37818199 14.2017925,9.96554798 13.522548,10.9499602 C13.5028598,10.9794926 13.5094225,11.0221505 13.5389549,11.0418387 C13.548799,11.0516828 13.5619245,11.0549642 13.57505,11.0549642 C13.5947383,11.0549642 13.6144265,11.0451201 13.627552,11.0254319 C14.2838268,10.0771147 15.363399,9.50943696 16.5151613,9.50943696 C17.2239382,9.50943696 17.8933385,9.71616353 18.4741417,10.1099284 L18.6316477,10.2444648 C18.7300889,10.3232178 18.8252488,10.4052521 18.9138459,10.4905679 Z M5.13535548,13.0566025 C5.13535548,14.4019659 6.22477173,15.4913822 7.57013517,15.4913822 C8.9154986,15.4913822 10.0081962,14.3986846 10.0049148,13.0566025 C10.0049148,11.7112391 8.9154986,10.6218228 7.57013517,10.6218228 C6.22477173,10.6218228 5.13535548,11.7112391 5.13535548,13.0566025 Z M10.5102465,13.9589804 C10.5200906,13.9228853 10.5004024,13.8867902 10.4643072,13.8769461 C10.4282121,13.8638206 10.392117,13.8835088 10.3822729,13.9196039 C10.2017973,14.5102513 9.83100201,15.0418339 9.3355145,15.4126292 C8.82362012,15.79655 8.21328452,15.9999952 7.57013517,15.9999952 C7.53404005,15.9999952 7.50450768,16.0295276 7.50450768,16.0656227 C7.50450768,16.1017178 7.53404005,16.1312502 7.57013517,16.1312502 C8.24281688,16.1312502 8.87940349,15.9212422 9.41426749,15.5176332 C9.93272461,15.1271496 10.3232081,14.5758788 10.5102465,13.9589804 Z M12.0032718,13.0533211 C12.4396945,13.0533211 12.7940829,12.6989327 12.7940829,12.2625099 C12.7940829,11.8260872 12.4396945,11.4716987 12.0032718,11.4716987 C11.566849,11.4716987 11.2124606,11.8260872 11.2124606,12.2625099 C11.2124606,12.6989327 11.566849,13.0533211 12.0032718,13.0533211 Z M14.0016287,13.0566025 C14.0016287,14.4019659 15.0910449,15.4913822 16.4364083,15.4913822 C17.7817718,15.4913822 18.871188,14.3986846 18.871188,13.0566025 C18.871188,11.7112391 17.7817718,10.6218228 16.4364083,10.6218228 C15.0910449,10.6218228 14.0016287,11.7112391 14.0016287,13.0566025 Z M18.2805407,15.5176332 C18.7989978,15.1271496 19.1862,14.5725974 19.3732383,13.9589804 C19.3863638,13.9228853 19.3666755,13.8867902 19.3305804,13.8769461 C19.2944853,13.8638206 19.2583902,13.8835088 19.2485461,13.9196039 C19.0680705,14.5102513 18.6972752,15.0418339 18.2017877,15.4126292 C17.6898933,15.79655 17.0795577,15.9999952 16.4364083,15.9999952 C16.4003132,15.9999952 16.3707809,16.0295276 16.3707809,16.0656227 C16.3707809,16.1017178 16.4003132,16.1312502 16.4364083,16.1312502 C17.1090901,16.1312502 17.7456767,15.9212422 18.2805407,15.5176332 Z M12.6464211,12.2625099 C12.6464211,12.6195238 12.3570042,12.9089406 11.9999904,12.9089407 C11.6429766,12.9089406 11.3535597,12.6195238 11.3535597,12.2625099 C11.3535597,11.9054961 11.6429766,11.6160792 11.9999904,11.6160792 C12.3570042,11.6160792 12.6464211,11.9054961 12.6464211,12.2625099 Z" id="binoculars" fill="#5E646E" fill-rule="nonzero"></path>
    </g>
</svg>
