<?xml version="1.0" encoding="UTF-8"?>
<svg width="24px" height="25px" viewBox="0 0 24 25" version="1.1" xmlns="http://www.w3.org/2000/svg" xmlns:xlink="http://www.w3.org/1999/xlink">
    <!-- Generator: Sketch 52.2 (67145) - http://www.bohemiancoding.com/sketch -->
    <title>camera</title>
    <desc>Created with Sketch.</desc>
    <g id="camera" stroke="none" stroke-width="1" fill="none" fill-rule="evenodd" transform="translate(0.000000, 0.500000)">
        <path d="M14.5,19.5 L3.25,19.5 C2.5,19.5 2,19 2,18.25 L2,5.75 C2,5 2.5,4.5 3.25,4.5 L14.5,4.5 C15.25,4.5 15.75,5 15.75,5.75 L15.75,7.625 L20.25,5.75 C21.125,5.5 22,6.125 22,7 L22,17 C22,17.875 21.125,18.5 20.25,18.125 L15.75,16.375 L15.75,18.25 C15.75,19 15.25,19.5 14.5,19.5 Z M4.5,17 L13.25,17 L13.25,14.5 C13.25,13.625 14.125,13 15,13.375 L19.5,15.25 L19.5,9 L15,10.875 C14.125,11 13.25,10.375 13.25,9.5 L13.25,7 L4.5,7 L4.5,17 Z" fill="#000000" fill-rule="nonzero"></path>
    </g>
</svg>