<?xml version="1.0" encoding="UTF-8"?>
<svg width="24px" height="24px" viewBox="0 0 24 24" version="1.1" xmlns="http://www.w3.org/2000/svg" xmlns:xlink="http://www.w3.org/1999/xlink">
    <!-- Generator: Sketch 52.5 (67469) - http://www.bohemiancoding.com/sketch -->
    <title>icons/camera</title>
    <desc>Created with Sketch.</desc>
    <g id="icons/camera" stroke="none" stroke-width="1" fill="none" fill-rule="evenodd">
        <path d="M14,18 L5,18 C4.4,18 4,17.6 4,17 L4,7 C4,6.4 4.4,6 5,6 L14,6 C14.6,6 15,6.4 15,7 L15,8.5 L18.6,7 C19.3,6.8 20,7.3 20,8 L20,16 C20,16.7 19.3,17.2 18.6,16.9 L15,15.5 L15,17 C15,17.6 14.6,18 14,18 Z M6,16 L13,16 L13,14 C13,13.3 13.7,12.8 14.4,13.1 L18,14.6 L18,9.6 L14.4,11.1 C13.7,11.2 13,10.7 13,10 L13,8 L6,8 L6,16 Z" id="camera" fill="#5E646E" fill-rule="nonzero"></path>
    </g>
</svg>