<?xml version="1.0" encoding="UTF-8"?>
<svg width="24px" height="24px" viewBox="0 0 24 24" version="1.1" xmlns="http://www.w3.org/2000/svg" xmlns:xlink="http://www.w3.org/1999/xlink">
    <!-- Generator: Sketch 52.2 (67145) - http://www.bohemiancoding.com/sketch -->
    <title>check</title>
    <desc>Created with Sketch.</desc>
    <g id="check" stroke="none" stroke-width="1" fill="none" fill-rule="evenodd">
        <path d="M12,2 C6.5,2 2,6.5 2,12 C2,17.5 6.5,22 12,22 C17.5,22 22,17.5 22,12 C22,6.5 17.5,2 12,2 Z M12,19.5 C7.875,19.5 4.5,16.125 4.5,12 C4.5,7.875 7.875,4.5 12,4.5 C16.125,4.5 19.5,7.875 19.5,12 C19.5,16.125 16.125,19.5 12,19.5 Z M13.125,15.125 L11.375,17 L9.5,15.125 L7,12.625 L8.875,10.75 L11.375,13.25 L16.375,8.25 L18.25,10.125 L13.125,15.125 Z" fill="#000000" fill-rule="nonzero"></path>
    </g>
</svg>