<?xml version="1.0" encoding="UTF-8"?>
<svg width="24px" height="24px" viewBox="0 0 24 24" version="1.1" xmlns="http://www.w3.org/2000/svg" xmlns:xlink="http://www.w3.org/1999/xlink">
    <!-- Generator: Sketch 52.6 (67491) - http://www.bohemiancoding.com/sketch -->

    <desc>Created with Sketch.</desc>
    <g id="icons/chrome" stroke="none" stroke-width="1" fill="none" fill-rule="evenodd">
        <path d="M9.3,11.9969866 C9.3,10.5125893 10.5151205,9.29783036 12,9.29783036 C13.4848795,9.29783036 14.6999598,10.5125893 14.6999598,11.9969866 C14.6999598,13.4814643 13.4848795,14.6961027 12,14.6961027 C10.5151205,14.6961027 9.3,13.4814241 9.3,11.9969866 Z M20.8695,10.4649777 C20.9549598,10.9629107 21,11.4753482 21,11.9976295 C21,16.2751607 18.0139286,19.8559152 14.0119821,20.7695759 C13.6179098,20.8597791 13.2182044,20.9233116 12.8155848,20.9597411 C12.5467902,20.9842098 12.2749018,21 12,21 C11.660933,21 11.3263259,20.9862589 10.9967411,20.9492946 L10.996942,20.9598214 L10.9963393,20.9598214 L10.9967411,20.9484107 C10.996942,20.9484107 10.9973036,20.9378036 10.9973036,20.9378036 L15.1052411,13.7989955 C15.4198393,13.2589955 15.6,12.6768884 15.6,12.0020491 C15.6,10.9221696 15.1052411,9.99103125 14.3400804,9.30799554 L20.5834286,9.30799554 C20.7032411,9.66960268 20.7984241,10.0713884 20.8674911,10.4731741 L20.8675714,10.4731741 C20.7984643,10.0713884 20.7032813,9.66960268 20.5834286,9.30799554 L20.5877277,9.30799554 C20.7062143,9.66960268 20.800192,10.0698214 20.8685357,10.4666652 C20.8688571,10.4665045 20.8691384,10.4651786 20.8695,10.4649777 Z M12,15.5958214 C12.4052009,15.5958214 12.8098795,15.5058214 13.1698393,15.3709018 L10.0486473,20.7790982 L10.0474821,20.7811473 C8.37834375,20.412067 6.88358036,19.579808 5.70466071,18.4259196 C4.03596429,16.7927009 3,14.5159821 3,11.9969866 C3,10.7418482 3.25742411,9.54689732 3.72184821,8.46163393 C3.99700419,7.81885404 4.34628512,7.21040701 4.76259375,6.64865625 L4.76809821,6.65813839 L8.89479911,13.7964241 C9.52495982,14.8762232 10.6499598,15.5958214 12,15.5958214 Z M5.38226786,5.91595982 L5.38190625,5.91636161 L5.37620089,5.90659821 C6.35591518,4.84230804 7.58891518,4.01503125 8.97969643,3.51975 C9.92385268,3.18357589 10.9404107,3 12,3 C14.9474598,3 17.5637277,4.41697768 19.2053839,6.60614732 C19.2099241,6.60972321 19.2145045,6.6140625 19.219125,6.61647321 C19.6270982,7.16330357 19.9738393,7.78125 20.2504286,8.38392857 L20.2435179,8.38392857 C19.9665268,7.78125 19.619625,7.167 19.2124554,6.62153571 C19.2108884,6.62069196 19.2093214,6.61940625 19.2077545,6.6185625 C19.6169732,7.16555357 19.965442,7.78125 20.2435179,8.38392857 L12,8.38392857 C10.2447991,8.38392857 8.80512054,9.65007589 8.49008036,11.2697545 L5.38226786,5.91595982 Z" id="Combined-Shape" fill="#5E646E" fill-rule="nonzero"></path>
    </g>
</svg>
