<?xml version="1.0" encoding="UTF-8"?>
<svg width="24px" height="24px" viewBox="0 0 24 24" version="1.1" xmlns="http://www.w3.org/2000/svg" xmlns:xlink="http://www.w3.org/1999/xlink">
    <!-- Generator: Sketch 52.5 (67469) - http://www.bohemiancoding.com/sketch -->

    <desc>Created with Sketch.</desc>
    <g id="icons/clipboard" stroke="none" stroke-width="1" fill="none" fill-rule="evenodd">
        <path d="M8.52173913,19.9503106 C7.32919255,19.9503106 6.23602484,19.4534161 5.34161491,18.6583851 C3.55279503,16.8695652 3.55279503,14.0869565 5.34161491,12.2981366 L6.03726708,11.6024845 L7.42857143,12.9937888 L6.73291925,13.689441 C5.73913043,14.6832298 5.73913043,16.2732919 6.73291925,17.2670807 C7.72670807,18.2608696 9.31677019,18.2608696 10.310559,17.2670807 L13.2919255,14.2857143 C14.2857143,13.2919255 14.2857143,11.7018634 13.2919255,10.7080745 L12.5962733,10.0124224 L13.9875776,8.62111801 L14.6832298,9.31677019 C16.4720497,11.1055901 16.4720497,13.8881988 14.6832298,15.6770186 L11.7018634,18.6583851 C10.9068323,19.4534161 9.71428571,19.9503106 8.52173913,19.9503106 Z M10.0124224,15.378882 L9.31677019,14.6832298 C7.52795031,12.8944099 7.52795031,10.1118012 9.31677019,8.32298137 L12.2981366,5.34161491 C13.1925466,4.44720497 14.2857143,4.04968944 15.4782609,4.04968944 C16.6708075,4.04968944 17.7639752,4.54658385 18.6583851,5.34161491 C20.447205,7.13043478 20.447205,9.91304348 18.6583851,11.7018634 L17.9627329,12.3975155 L16.5714286,11.0062112 L17.2670807,10.310559 C18.2608696,9.31677019 18.2608696,7.72670807 17.2670807,6.73291925 C16.2732919,5.73913043 14.6832298,5.73913043 13.689441,6.73291925 L10.7080745,9.71428571 C9.71428571,10.7080745 9.71428571,12.2981366 10.7080745,13.2919255 L11.4037267,13.9875776 L10.0124224,15.378882 Z" id="clipboard" fill="#5E646E" fill-rule="nonzero"></path>
    </g>
</svg>
