<?xml version="1.0" encoding="UTF-8"?>
<svg width="24px" height="25px" viewBox="0 0 24 25" version="1.1" xmlns="http://www.w3.org/2000/svg" xmlns:xlink="http://www.w3.org/1999/xlink">
    <!-- Generator: Sketch 52.2 (67145) - http://www.bohemiancoding.com/sketch -->
    <title>clipboard</title>
    <desc>Created with Sketch.</desc>
    <g id="clipboard" stroke="none" stroke-width="1" fill="none" fill-rule="evenodd" transform="translate(0.000000, 0.142857)">
        <path d="M8.08695652,20.9440994 C6.74534161,20.9440994 5.51552795,20.3850932 4.50931677,19.4906832 C2.49689441,17.4782609 2.49689441,14.3478261 4.50931677,12.3354037 L5.29192547,11.552795 L6.85714286,13.1180124 L6.07453416,13.9006211 C4.95652174,15.0186335 4.95652174,16.8074534 6.07453416,17.9254658 C7.19254658,19.0434783 8.98136646,19.0434783 10.0993789,17.9254658 L13.4534161,14.5714286 C14.5714286,13.4534161 14.5714286,11.6645963 13.4534161,10.5465839 L12.6708075,9.76397516 L14.2360248,8.19875776 L15.0186335,8.98136646 C17.0310559,10.9937888 17.0310559,14.1242236 15.0186335,16.136646 L11.6645963,19.4906832 C10.7701863,20.3850932 9.42857143,20.9440994 8.08695652,20.9440994 Z M9.76397516,15.8012422 L8.98136646,15.0186335 C6.9689441,13.0062112 6.9689441,9.8757764 8.98136646,7.86335404 L12.3354037,4.50931677 C13.3416149,3.50310559 14.5714286,3.05590062 15.9130435,3.05590062 C17.2546584,3.05590062 18.484472,3.61490683 19.4906832,4.50931677 C21.5031056,6.52173913 21.5031056,9.65217391 19.4906832,11.6645963 L18.7080745,12.447205 L17.1428571,10.8819876 L17.9254658,10.0993789 C19.0434783,8.98136646 19.0434783,7.19254658 17.9254658,6.07453416 C16.8074534,4.95652174 15.0186335,4.95652174 13.9006211,6.07453416 L10.5465839,9.42857143 C9.42857143,10.5465839 9.42857143,12.3354037 10.5465839,13.4534161 L11.3291925,14.2360248 L9.76397516,15.8012422 Z" fill="#000000" fill-rule="nonzero"></path>
    </g>
</svg>