<?xml version="1.0" encoding="UTF-8"?>
<svg width="24px" height="25px" viewBox="0 0 24 25" version="1.1" xmlns="http://www.w3.org/2000/svg" xmlns:xlink="http://www.w3.org/1999/xlink">
    <!-- Generator: Sketch 52.2 (67145) - http://www.bohemiancoding.com/sketch -->
    <title>cloneComplete</title>
    <desc>Created with Sketch.</desc>
    <g id="cloneComplete" stroke="none" stroke-width="1" fill="none" fill-rule="evenodd" transform="translate(0.000000, 0.714286)">
        <path d="M21.8500941,4.23586553 C22.6821332,5.06762429 22.6821332,6.42105615 21.8500941,7.25281492 L11.9499198,17.1496129 C11.6741996,17.4252402 11.3120645,17.5630339 10.9499293,17.5630339 C10.5877941,17.5630339 10.2256589,17.4252402 9.94993876,17.1496129 L5.13773173,12.3390276 C4.30569258,11.5072688 4.30569258,10.153837 5.13773173,9.32207819 C5.96977089,8.49031941 7.32365899,8.49031941 8.15569813,9.32207819 L10.9499293,12.1148081 L18.8321277,4.23586553 C19.2484072,3.82024598 19.7943691,3.61189655 20.3413708,3.61189655 C20.8872928,3.61189655 21.4343344,3.82024598 21.8500941,4.23586553 Z M19.9835943,11.3541647 C19.9989099,11.5663518 20.0065877,11.7834557 20.0065877,12 C20.0065877,16.9626101 15.9678768,21 11.0035538,21 C6.03923078,21 2,16.9626101 2,11.9999601 C2,7.03730997 6.03927078,3 11.0035538,3 C12.9695847,3 14.8371241,3.62233001 16.4038306,4.79911256 C16.6456007,4.98067878 16.6943065,5.32354393 16.5126791,5.56471279 C16.3310516,5.80640133 15.9880709,5.85509082 15.7468208,5.67352459 C14.3704992,4.63997229 12.7304939,4.09367463 11.0035138,4.09367463 C6.64209628,4.09367463 3.09404331,7.64053195 3.09404331,11.9999601 C3.09404331,16.3593882 6.64209628,19.9062455 11.0035538,19.9062455 C15.3644914,19.9062455 18.9125044,16.3593882 18.9125044,11.9999601 C18.9125044,11.8096393 18.9053865,11.6187989 18.8922703,11.4328754 C18.8703966,11.1315443 19.0974109,10.8696284 19.3982837,10.8477621 C19.7002364,10.8264554 19.9617206,11.0528336 19.9835943,11.3541647 Z" fill="#000000"></path>
    </g>
</svg>