<?xml version="1.0" encoding="UTF-8"?>
<svg width="24px" height="24px" viewBox="0 0 24 24" version="1.1" xmlns="http://www.w3.org/2000/svg" xmlns:xlink="http://www.w3.org/1999/xlink">
    <!-- Generator: Sketch 52.2 (67145) - http://www.bohemiancoding.com/sketch -->
    <title>cloudUploadBold</title>
    <desc>Created with Sketch.</desc>
    <g id="cloudUploadBold" stroke="none" stroke-width="1" fill="none" fill-rule="evenodd">
        <path d="M11.0699907,12.9562237 L9.21129823,14.814843 C8.84638222,15.1672906 8.26632998,15.1622501 7.90759392,14.8035141 C7.54885796,14.4447781 7.54381746,13.8647258 7.90235583,13.4936123 L11.3424834,10.0534848 C11.7056519,9.69042592 12.2943481,9.69042592 12.6575699,10.0535381 L16.0976441,13.4936123 L16.1037349,13.4998098 C16.4561825,13.8647258 16.451142,14.4447781 16.092406,14.8035141 C15.73367,15.1622501 15.1536178,15.1672906 14.7825043,14.8087522 L12.9300093,12.9562573 L12.9300093,21.8913493 C12.9300093,22.4049792 12.5136299,22.8213585 12,22.8213585 C11.48637,22.8213585 11.0699907,22.4049792 11.0699907,21.8913493 L11.0699907,12.9562237 Z M18.8117845,6.48011529 C21.5475905,7.08157935 23.4528384,9.61498378 23.2327412,12.4432213 C23.0034596,15.3894793 20.5450201,17.6628194 17.5901206,17.6612472 L16.3000928,17.6612472 C15.7864628,17.6612472 15.3700835,17.2448679 15.3700835,16.7312379 C15.3700835,16.217608 15.7864628,15.8012287 16.3000928,15.8012287 L17.5904505,15.8012288 C19.5740324,15.8025378 21.2243801,14.2767962 21.3784778,12.2992086 C21.5325756,10.321621 20.1384911,8.55865093 18.179037,8.25274059 L17.1824582,8.097956 L17.13056,7.73076873 L17.0444043,7.11847345 C16.6060406,4.7028443 14.4684758,2.96994743 11.985591,3.04072417 C9.53156181,2.96997474 7.39402191,4.70281816 6.95871926,7.09901901 L6.81767892,8.09786206 L6.45118455,8.15478448 L5.82137246,8.25260424 C3.86131821,8.55834648 2.46696176,10.3214049 2.62105171,12.2991681 C2.77514167,14.2769313 4.42573886,15.8027537 6.4098794,15.8012287 L7.69990723,15.8012287 C8.21353717,15.8012287 8.6299165,16.217608 8.6299165,16.7312379 C8.6299165,17.2448679 8.21353717,17.6612472 7.69990723,17.6612472 L6.41014541,17.6612472 C3.45497985,17.6628194 0.996540416,15.3894793 0.767258777,12.4432213 C0.547161638,9.61498375 2.4524095,7.08157934 5.18821553,6.48011529 C5.90248781,3.33334805 8.74328015,1.10022208 12,1.18074854 C15.2567198,1.10022208 18.0975122,3.33334805 18.8117845,6.48011529 Z" fill="#000000" fill-rule="nonzero"></path>
    </g>
</svg>