<?xml version="1.0" encoding="UTF-8"?>
<svg width="24px" height="24px" viewBox="0 0 24 24" version="1.1" xmlns="http://www.w3.org/2000/svg" xmlns:xlink="http://www.w3.org/1999/xlink">
    <!-- Generator: Sketch 52.5 (67469) - http://www.bohemiancoding.com/sketch -->

    <desc>Created with Sketch.</desc>
    <g id="icons/cloudUpload" stroke="none" stroke-width="1" fill="none" fill-rule="evenodd">
        <g id="cloudUpload" transform="translate(4.000000, 4.000000)" fill-rule="nonzero">
            <path d="M12.16,4.88 C12.154624,4.88 12.149696,4.881536 12.14432,4.881536 C13.2518811,5.69900524 13.7101672,7.13471502 13.281061,8.44269647 C12.8519548,9.75067793 11.6322487,10.635893 10.25568,10.6384 L10.258112,10.64 L5.757568,10.64 L5.76,10.638464 C4.38339553,10.6359943 3.1636423,9.75076715 2.73452926,8.44275034 C2.30541622,7.13473353 2.76374257,5.69898912 3.87136,4.881536 C3.865984,4.881536 3.860992,4.88 3.85568,4.88 C2.21681868,4.88111507 0.843689805,6.12023849 0.674878618,7.75038279 C0.506067431,9.38052709 1.59614401,10.8747302 3.2,11.211648 L3.2,11.92 L11.52,11.92 L11.52,11.206144 C11.7301741,11.2530137 11.9446748,11.2777671 12.16,11.28 C13.9273112,11.28 15.36,9.8473112 15.36,8.08 C15.36,6.3126888 13.9273112,4.88 12.16,4.88 L12.16,4.88 Z" id="Shape" fill-opacity="0.0985054348" fill="#A1AAB7"></path>
            <path d="M10.78624,9.45376 C10.9075111,9.57932124 10.9057768,9.77890713 10.7823419,9.90234194 C10.6589071,10.0257768 10.4593212,10.0275111 10.33376,9.90624 L8.32,7.89248 L8.32,15.44 C8.32,15.6167311 8.17673112,15.76 8,15.76 C7.82326888,15.76 7.68,15.6167311 7.68,15.44 L7.68,7.89248 L5.66624,9.90624 C5.54067876,10.0275111 5.34109287,10.0257768 5.21765806,9.90234194 C5.09422324,9.77890713 5.09248889,9.57932124 5.21376,9.45376 L7.77376,6.89376 C7.89871995,6.76883778 8.10128005,6.76883778 8.22624,6.89376 L10.78624,9.45376 Z M12.753728,4.290624 C14.7345261,4.59971948 16.1436491,6.38139144 15.9881056,8.38011783 C15.8325621,10.3788442 14.1647693,11.9210666 12.16,11.92 L11.2,11.92 C11.0232689,11.92 10.88,11.7767311 10.88,11.6 C10.88,11.4232689 11.0232689,11.28 11.2,11.28 L12.16,11.28 C13.8305023,11.2811024 15.2203666,9.99617691 15.3501423,8.33072278 C15.4799179,6.66526864 14.3058694,5.18055771 12.65536,4.92288 L12.186432,4.850048 L12.12,4.380032 C11.7609419,2.40142129 10.0100901,0.982027807 8,1.04 C5.98993949,0.98205015 4.23911089,2.4013976 3.88,4.379968 L3.813632,4.849984 L3.344704,4.922816 C1.6940158,5.18030128 0.519738225,6.66508659 0.649507323,8.33068864 C0.779276421,9.99629069 2.16935086,11.2812842 3.84,11.28 L4.8,11.28 C4.97673112,11.28 5.12,11.4232689 5.12,11.6 C5.12,11.7767311 4.97673112,11.92 4.8,11.92 L3.84,11.92 C1.83523073,11.9210666 0.167437936,10.3788442 0.011894439,8.38011783 C-0.143649058,6.38139144 1.26547394,4.59971948 3.246272,4.290624 C3.64614622,1.9939719 5.6696241,0.337883961 8,0.4 C10.3303759,0.337883961 12.3538538,1.9939719 12.753728,4.290624 Z" id="Combined-Shape" fill="#5E646E"></path>
        </g>
    </g>
</svg>
