<?xml version="1.0" encoding="UTF-8"?>
<svg width="24px" height="25px" viewBox="0 0 24 25" version="1.1" xmlns="http://www.w3.org/2000/svg" xmlns:xlink="http://www.w3.org/1999/xlink">
    <!-- Generator: Sketch 52.2 (67145) - http://www.bohemiancoding.com/sketch -->
    <title>cloudUpload</title>
    <desc>Created with Sketch.</desc>
    <g id="cloudUpload" stroke="none" stroke-width="1" fill="none" fill-rule="evenodd" transform="translate(0.000000, 0.857143)">
        <path d="M15.7440908,13.8471657 C15.9070523,14.0158923 15.9047217,14.2840916 15.7388526,14.4499607 C15.5729835,14.6158298 15.3047842,14.6181604 15.1360576,14.4551989 L12.4300093,11.7491505 L12.4300093,21.8913493 C12.4300093,22.1288368 12.2374876,22.3213585 12,22.3213585 C11.7625124,22.3213585 11.5699907,22.1288368 11.5699907,21.8913493 L11.5699907,11.7491505 L8.86394234,14.4551989 C8.69521577,14.6181604 8.42701645,14.6158298 8.26114734,14.4499607 C8.09527825,14.2840916 8.09294766,14.0158923 8.25590922,13.8471657 L11.6959834,10.4070915 C11.863902,10.2392237 12.136098,10.2392237 12.3040165,10.4070915 L15.7440908,13.8471657 Z M12,1.68091328 C15.1315102,1.59744305 17.8506172,3.82285923 18.3879598,6.90905206 C21.0497146,7.32440806 22.9432646,9.71858142 22.7342484,12.4044279 C22.5252323,15.0902745 20.2840874,17.1626805 17.5901206,17.1612472 L16.3000928,17.1612472 C16.0626052,17.1612472 15.8700835,16.9687255 15.8700835,16.7312379 C15.8700835,16.4937504 16.0626052,16.3012287 16.3000928,16.3012287 L17.5901206,16.3012287 C19.8349065,16.3027101 21.702577,14.5760542 21.8769668,12.3380519 C22.0513565,10.1000496 20.4736948,8.10492629 18.2557749,7.75866439 L17.6256393,7.66079428 L17.5363694,7.02919665 C17.0538748,4.37038116 14.7011168,2.46303002 12,2.54093183 C9.29892291,2.46306004 6.94619621,4.37034932 6.46363056,7.02911065 L6.37444663,7.66070828 L5.74431104,7.75857839 C3.52615091,8.1045817 1.94818139,10.099805 2.12256238,12.338006 C2.29694336,14.5762071 4.16489619,16.3029543 6.4098794,16.3012287 L7.69990723,16.3012287 C7.93739479,16.3012287 8.1299165,16.4937504 8.1299165,16.7312379 C8.1299165,16.9687255 7.93739479,17.1612472 7.69990723,17.1612472 L6.4098794,17.1612472 C3.71591259,17.1626805 1.47476766,15.0902745 1.26575158,12.4044279 C1.0567355,9.71858142 2.95028537,7.32440806 5.61204019,6.90905206 C6.14938275,3.82285923 8.86848982,1.59744305 12,1.68091328 Z" fill="#000000"></path>
    </g>
</svg>