<?xml version="1.0" encoding="UTF-8"?>
<svg width="24px" height="24px" viewBox="0 0 24 24" version="1.1" xmlns="http://www.w3.org/2000/svg" xmlns:xlink="http://www.w3.org/1999/xlink">
    <!-- Generator: Sketch 52.5 (67469) - http://www.bohemiancoding.com/sketch -->

    <desc>Created with Sketch.</desc>
    <g id="icons/copy" stroke="none" stroke-width="1" fill="none" fill-rule="evenodd">
        <path d="M6.49248709,18.4795926 C9.56658259,18.4795926 11.968765,18.4795926 13.6988726,18.4795926 C14.6273912,18.4795926 15.1248234,18.4795926 15.1911692,18.4795926 C15.1911692,18.5870276 15.1911692,18.674268 15.1911692,18.7880038 C15.1911692,19.4574936 14.6486628,20 13.9793346,20 C10.975193,20 7.86781687,20 6.21202516,20 C5.54269692,20 5.00019047,19.4571704 5.00019047,18.7880038 C5.00019047,17.694913 5.00019047,8.9509951 5.00019047,7.85806594 C5.00019047,7.1898686 5.54382782,6.64623126 6.21234827,6.64623126 C6.30459698,6.64623126 6.76584055,6.64623126 7.59640209,6.64623126 L7.59640209,8.16631559 L6.49248709,8.16631559 C6.49248709,14.354411 6.49248709,17.79217 6.49248709,18.4795926 Z M16.2546429,4.00048467 L16.2686983,4.00129245 L16.2827537,4.00226179 L16.2968091,4.00339268 L16.310703,4.00484669 L16.3245968,4.00662381 L16.3384907,4.00872405 L16.352223,4.01098584 L16.3659553,4.01357074 L16.379526,4.01647875 L16.3930967,4.01954833 L16.4065059,4.02294101 L16.4199151,4.02649525 L16.4333243,4.03037261 L16.4464104,4.03441152 L16.459658,4.0389351 L16.4725825,4.04345868 L16.485507,4.04846693 L16.4984315,4.05363673 L16.5111945,4.05896809 L16.5237959,4.06462257 L16.5363973,4.07060015 L16.5486756,4.0767393 L16.5611154,4.08304 L16.5732321,4.08982537 L16.5853489,4.09661074 L16.5971425,4.10388078 L16.6089361,4.11115081 L16.6207297,4.11874397 L16.6322002,4.12666023 L16.6436707,4.13473805 L16.6548181,4.14313899 L16.6659655,4.15170148 L16.6769514,4.16058708 L16.6877756,4.16963424 L16.6984384,4.17884295 L16.7089395,4.18837478 L16.7192791,4.19806817 L16.7294572,4.20808466 L18.7912402,6.27019077 L18.8012567,6.28036882 L18.8109501,6.29070843 L18.8204819,6.3012096 L18.8298522,6.31187232 L18.8388993,6.32253505 L18.8476234,6.33352088 L18.8561859,6.34466828 L18.8645868,6.35581567 L18.8726646,6.36728617 L18.8805809,6.37875668 L18.8883356,6.39038874 L18.8956056,6.40218236 L18.9028757,6.41413754 L18.909661,6.42609271 L18.9164464,6.438371 L18.9229087,6.45064929 L18.9290478,6.46308913 L18.9348638,6.47552897 L18.9406799,6.48813037 L18.9460112,6.50089333 L18.951181,6.51365629 L18.9561893,6.52674236 L18.9607129,6.53966687 L18.9652365,6.5529145 L18.9692754,6.56600057 L18.9733143,6.57940975 L18.9768685,6.59281893 L18.9802612,6.60622812 L18.9833308,6.61979885 L18.9862388,6.63353115 L18.9888237,6.64726344 L18.9910855,6.66099574 L18.9931857,6.67488959 L18.9949628,6.68878344 L18.9964168,6.7026773 L18.9977093,6.7167327 L18.9986786,6.73078811 L18.9993249,6.74500508 L18.999648,6.75922204 L18.9998095,6.77343901 L18.9998095,16.1416109 L18.9988402,16.1916934 L18.9957706,16.2411297 L18.9909239,16.2900813 L18.983977,16.3383867 L18.975253,16.3860458 L18.9645902,16.4330587 L18.9523119,16.4792639 L18.938095,16.5248228 L18.9222624,16.5695739 L18.9046528,16.6135172 L18.8854276,16.6566528 L18.8645868,16.698819 L18.842292,16.7400159 L18.8183817,16.7802435 L18.7928558,16.8195017 L18.7660374,16.857629 L18.737765,16.8946254 L18.7082002,16.9306525 L18.6771814,16.9653871 L18.6448701,16.9988293 L18.6114279,17.0311406 L18.5766933,17.0621594 L18.5408277,17.0917242 L18.5036698,17.1199966 L18.4655425,17.146815 L18.4264458,17.1721793 L18.3862183,17.1960897 L18.3450214,17.218546 L18.3028551,17.2393868 L18.2597196,17.258612 L18.2157762,17.2762217 L18.1710251,17.2920542 L18.1254662,17.3062712 L18.0792611,17.3185494 L18.0322481,17.3292122 L17.984589,17.3379362 L17.9362836,17.3448831 L17.8874936,17.3497298 L17.8380573,17.3527994 L17.7879748,17.3537687 L10.0209886,17.3537687 L9.97090606,17.3527994 L9.9214698,17.3497298 L9.87267976,17.3448831 L9.82421284,17.3379362 L9.77655369,17.3292122 L9.72954078,17.3185494 L9.68333564,17.3061096 L9.63777673,17.2920542 L9.5930256,17.2760601 L9.54908226,17.258612 L9.5059467,17.2393868 L9.46378047,17.218546 L9.42258359,17.1960897 L9.38235604,17.1721793 L9.34309783,17.146815 L9.30497051,17.119835 L9.26797409,17.0915627 L9.23194701,17.0619979 L9.19721238,17.030979 L9.16377021,16.9986677 L9.13145892,16.9652256 L9.10060165,16.9304909 L9.07087527,16.8946254 L9.04260289,16.8574674 L9.01578453,16.8193401 L8.99042017,16.7800819 L8.96650982,16.7398544 L8.94405348,16.6986575 L8.9232127,16.6564912 L8.90398749,16.6135172 L8.88653939,16.5695739 L8.87054531,16.5248228 L8.8564899,16.4792639 L8.84405006,16.4328972 L8.83338733,16.3858842 L8.82466329,16.3382251 L8.81771636,16.2899197 L8.81286967,16.2411297 L8.8098001,16.1916934 L8.80883076,16.1416109 L8.80883076,5.21199624 L8.8098001,5.16223686 L8.81286967,5.1128006 L8.81787792,5.06401056 L8.82466329,5.01570519 L8.83354889,4.96804605 L8.84405006,4.92103313 L8.8564899,4.874828 L8.87070687,4.82926909 L8.88653939,4.78451796 L8.90414904,4.74073617 L8.92337426,4.69760061 L8.94421504,4.65543438 L8.96667138,4.6142375 L8.99058173,4.57400995 L9.01610764,4.53475174 L9.04292601,4.49662443 L9.07119838,4.45962801 L9.10092476,4.42360092 L9.13194359,4.3888663 L9.16425487,4.35542412 L9.19769705,4.32311283 L9.23243168,4.292094 L9.26845876,4.26236762 L9.30545518,4.23409525 L9.3435825,4.20727688 L9.38284071,4.18175097 L9.42306825,4.15784062 L9.46426514,4.13538428 L9.50643137,4.1145435 L9.54956693,4.09531829 L9.59351027,4.07770864 L9.63809985,4.06187611 L9.68365875,4.04765914 L9.73002545,4.0352193 L9.77687681,4.02471813 L9.82453595,4.01583253 L9.87284132,4.00904716 L9.92163136,4.00403891 L9.97106762,4.00096934 L10.0209886,4 L16.226209,4 L16.2404259,4.00016156 L16.2546429,4.00048467 Z M10.3009658,15.8336844 L17.5075129,15.8336844 L17.5075129,7.71547447 L16.1737031,7.71547447 L16.1381607,7.71466669 L16.103103,7.71256646 L16.0683683,7.70901222 L16.0341184,7.70416552 L16.0001915,7.69786482 L15.9669109,7.69043323 L15.9339534,7.68154763 L15.9016421,7.67136957 L15.8698155,7.66006062 L15.8386351,7.64762078 L15.8079394,7.63388848 L15.7780515,7.61918685 L15.7488098,7.60319276 L15.7202143,7.58606778 L15.692265,7.56813502 L15.6651235,7.54890981 L15.6387898,7.52887681 L15.6132639,7.50771292 L15.5885458,7.48574125 L15.564797,7.46280024 L15.541856,7.43888989 L15.5197228,7.41417176 L15.4987204,7.38864584 L15.4785259,7.36231215 L15.4594622,7.33517067 L15.4413679,7.30722141 L15.4244045,7.27862592 L15.4084104,7.24938421 L15.3935472,7.21933472 L15.3799765,7.18880055 L15.3673751,7.15745861 L15.3560661,7.12579355 L15.3460496,7.09332071 L15.337164,7.06052476 L15.3297324,7.02708258 L15.3234317,6.99315573 L15.318585,6.95890577 L15.3150308,6.92417114 L15.3129305,6.8891134 L15.3121228,6.85357099 L15.3121228,5.52040744 L10.3009658,5.52040744 L10.3009658,15.8336844 Z" id="copy" fill="#5E646E" fill-rule="nonzero"></path>
    </g>
</svg>
