<?xml version="1.0" encoding="UTF-8"?>
<svg width="24px" height="25px" viewBox="0 0 24 25" version="1.1" xmlns="http://www.w3.org/2000/svg" xmlns:xlink="http://www.w3.org/1999/xlink">
    <!-- Generator: Sketch 52.2 (67145) - http://www.bohemiancoding.com/sketch -->
    <title>copy</title>
    <desc>Created with Sketch.</desc>
    <g id="copy" stroke="none" stroke-width="1" fill="none" fill-rule="evenodd" transform="translate(0.000000, 0.357143)">
        <path d="M3.95244134,20.8330163 C7.97442401,20.8330163 11.1173114,20.8330163 13.380892,20.8330163 L13.380892,20.8133587 C14.5523145,20.8133587 15.2031283,20.8133587 15.3333333,20.8133587 C15.3333333,20.9539209 15.3333333,21.0877193 15.3333333,21.236525 C15.3333333,22.1124498 14.6235468,22.8222363 13.7478334,22.8222363 C9.81737476,22.8222363 5.7518495,22.8222363 3.58549989,22.8222363 C2.70978651,22.8222363 2,22.1120271 2,21.236525 C2,19.8063834 2,8.36630733 2,6.93637709 C2,6.06214331 2.71126612,5.35087719 3.58592264,5.35087719 C3.70661594,5.35087719 4.31008244,5.35087719 5.39674487,5.35087719 L5.39674487,7.33967449 L3.95244134,7.33967449 C3.95244134,15.4358487 3.95244134,19.9336293 3.95244134,20.8330163 Z M18.4083703,1.1783978 L18.4267597,1.17945466 L18.445149,1.18072289 L18.4635384,1.18220249 L18.4817163,1.18410484 L18.4998943,1.18642993 L18.5180723,1.18917776 L18.5360389,1.19213697 L18.5540055,1.19551892 L18.5717607,1.19932361 L18.589516,1.20333967 L18.6070598,1.20777848 L18.6246037,1.21242866 L18.6421475,1.21750159 L18.6592687,1.22278588 L18.6766011,1.22870429 L18.6935109,1.2346227 L18.7104206,1.24117523 L18.7273304,1.24793912 L18.7440287,1.25491439 L18.7605157,1.26231241 L18.7770027,1.27013316 L18.793067,1.27816529 L18.8093426,1.28640879 L18.8251955,1.29528641 L18.8410484,1.30416402 L18.8564785,1.31367576 L18.8719087,1.32318749 L18.8873388,1.33312196 L18.9023462,1.34347918 L18.9173536,1.35404777 L18.9319383,1.3650391 L18.9465229,1.37624181 L18.9608962,1.38786726 L18.9750581,1.39970408 L18.9890087,1.41175227 L19.0027478,1.42422321 L19.0162756,1.43690552 L19.0295921,1.45001057 L21.727119,4.14796026 L21.7402241,4.16127669 L21.7529064,4.17480448 L21.7653773,4.18854365 L21.7776369,4.20249419 L21.7894737,4.21644473 L21.8008878,4.23081801 L21.8120905,4.24540266 L21.8230818,4.25998732 L21.8336504,4.27499472 L21.8440076,4.29000211 L21.8541535,4.30522088 L21.8636652,4.32065103 L21.8731769,4.33629254 L21.8820545,4.35193405 L21.8909321,4.36799831 L21.899387,4.38406257 L21.9074192,4.40033819 L21.9150285,4.41661382 L21.9226379,4.43310082 L21.9296132,4.4497992 L21.9363771,4.46649757 L21.9429296,4.48361869 L21.948848,4.50052843 L21.9547664,4.51786092 L21.9600507,4.53498203 L21.965335,4.55252589 L21.9699852,4.57006975 L21.974424,4.58761361 L21.9784401,4.60536884 L21.9822448,4.62333545 L21.9856267,4.64130205 L21.9885859,4.65926865 L21.9913338,4.67744663 L21.9936588,4.6956246 L21.9955612,4.71380258 L21.9972522,4.73219193 L21.9985204,4.75058127 L21.9993659,4.76918199 L21.9997886,4.78778271 L22,4.80638343 L22,17.0632002 L21.9987318,17.1287254 L21.9947157,17.1934052 L21.9883746,17.2574509 L21.9792856,17.320651 L21.9678715,17.3830057 L21.9539209,17.4445149 L21.9378567,17.5049672 L21.919256,17.5645741 L21.8985415,17.6231241 L21.875502,17.6806172 L21.8503488,17.7370535 L21.8230818,17.7922215 L21.7939125,17.8461213 L21.7626295,17.8987529 L21.7292327,17.9501163 L21.694145,18 L21.6571549,18.0484041 L21.6184739,18.0955401 L21.5778905,18.140985 L21.5356161,18.184739 L21.4918622,18.2270133 L21.4464172,18.2675967 L21.3994927,18.3062777 L21.3508772,18.3432678 L21.3009934,18.3783555 L21.2498415,18.4115409 L21.1972099,18.4428239 L21.1433101,18.4722046 L21.088142,18.4994716 L21.0317058,18.5246248 L20.9742126,18.5476643 L20.9156627,18.5683788 L20.8560558,18.5869795 L20.7956035,18.6030438 L20.7340943,18.6169943 L20.6717396,18.6284084 L20.6085394,18.6374974 L20.5447051,18.6438385 L20.4800254,18.6478546 L20.4145001,18.6491228 L10.2525893,18.6491228 L10.187064,18.6478546 L10.1223843,18.6438385 L10.05855,18.6374974 L9.99513845,18.6284084 L9.93278377,18.6169943 L9.87127457,18.6030438 L9.81082224,18.5867681 L9.75121539,18.5683788 L9.6926654,18.547453 L9.63517227,18.5246248 L9.578736,18.4994716 L9.52356796,18.4722046 L9.46966815,18.4428239 L9.41703657,18.4115409 L9.36567322,18.3783555 L9.31578947,18.3430564 L9.26738533,18.3060664 L9.22024942,18.2673853 L9.17480448,18.2268019 L9.13105052,18.1845276 L9.08877616,18.1407736 L9.04840414,18.0953287 L9.00951173,18.0484041 L8.97252167,17.9997886 L8.93743395,17.9499049 L8.90424857,17.8985415 L8.87296555,17.84591 L8.84358487,17.7920101 L8.8163179,17.7368421 L8.79116466,17.6806172 L8.7683365,17.6231241 L8.7474107,17.5645741 L8.72902135,17.5049672 L8.71274572,17.4443035 L8.69879518,17.3827943 L8.6873811,17.3204397 L8.67829212,17.2572395 L8.67195096,17.1934052 L8.6679349,17.1287254 L8.66666667,17.0632002 L8.66666667,2.76347495 L8.6679349,2.69837244 L8.67195096,2.63369267 L8.67850349,2.56985838 L8.6873811,2.50665821 L8.69900655,2.44430353 L8.71274572,2.38279434 L8.72902135,2.322342 L8.74762207,2.26273515 L8.7683365,2.20418516 L8.79137603,2.1469034 L8.81652927,2.09046713 L8.84379624,2.03529909 L8.87317692,1.98139928 L8.90445995,1.9287677 L8.93785669,1.87740435 L8.97294441,1.82752061 L9.00993447,1.77911647 L9.04882689,1.73198055 L9.08941027,1.68653562 L9.13168463,1.64278165 L9.1754386,1.60050729 L9.22088353,1.55992391 L9.26801945,1.52103149 L9.31642359,1.48404143 L9.36630733,1.44895371 L9.41767068,1.41555696 L9.47030226,1.38427394 L9.52420207,1.35489326 L9.57937011,1.32762629 L9.63580638,1.30247305 L9.69329951,1.27943352 L9.75163813,1.25871909 L9.81124498,1.24011837 L9.87190869,1.22384274 L9.93320651,1.21010357 L9.99556119,1.19847812 L10.0587614,1.18960051 L10.1225956,1.18304798 L10.1872754,1.17903192 L10.2525893,1.17776369 L18.3711689,1.17776369 L18.3897696,1.17797506 L18.4083703,1.1783978 Z M10.6188966,16.6603255 L20.0475587,16.6603255 L20.0475587,6.03889241 L18.3024731,6.03889241 L18.2559713,6.03783555 L18.2101036,6.03508772 L18.1646586,6.03043754 L18.1198478,6.02409639 L18.0754597,6.01585289 L18.0319171,6.00612978 L17.9887973,5.99450433 L17.9465229,5.98118791 L17.9048827,5.96639188 L17.8640879,5.95011625 L17.8239273,5.93214965 L17.7848235,5.91291482 L17.7465652,5.89198901 L17.7091524,5.8695836 L17.6725851,5.84612133 L17.6370746,5.82096808 L17.602621,5.79475798 L17.5692243,5.76706827 L17.5368844,5.73832171 L17.5058127,5.70830691 L17.4757979,5.67702389 L17.44684,5.644684 L17.4193617,5.61128725 L17.3929402,5.57683365 L17.3679983,5.54132319 L17.3443247,5.50475587 L17.3221306,5.46734306 L17.3012048,5.42908476 L17.2817586,5.3897696 L17.2640034,5.34982033 L17.2475164,5.3088142 L17.2327204,5.26738533 L17.2196153,5.2248996 L17.2079899,5.18199112 L17.1982668,5.13823716 L17.1900233,5.09384908 L17.1836821,5.04903826 L17.1790319,5.00359332 L17.1762841,4.95772564 L17.1752272,4.91122384 L17.1752272,3.16698372 L10.6188966,3.16698372 L10.6188966,16.6603255 Z" fill="#000000"></path>
    </g>
</svg>