<?xml version="1.0" encoding="UTF-8"?>
<svg width="24px" height="25px" viewBox="0 0 24 25" version="1.1" xmlns="http://www.w3.org/2000/svg" xmlns:xlink="http://www.w3.org/1999/xlink">
    <!-- Generator: Sketch 52.2 (67145) - http://www.bohemiancoding.com/sketch -->
    <title>createBoard</title>
    <desc>Created with Sketch.</desc>
    <g id="createBoard" stroke="none" stroke-width="1" fill="none" fill-rule="evenodd" transform="translate(0.000000, 0.285714)">
        <path d="M7.11201648,2.46251096 L19.756002,2.46251096 C20.7191855,2.46251096 21.5,3.24332546 21.5,4.20650895 L21.5,16.8504944 C21.5,17.8136779 20.7191855,18.5944925 19.756002,18.5944925 L7.11201648,18.5944925 C6.14883301,18.5944925 5.36801851,17.8136779 5.36801851,16.8504944 L5.36801851,4.20650895 C5.36801851,3.24332546 6.14883301,2.46251096 7.11201648,2.46251096 Z M14.3060082,9.47992289 L14.3060082,5.58426737 L12.5620102,5.58426737 L12.5620102,9.47992289 L8.48977491,9.47992289 L8.48977491,11.2239209 L12.5620102,11.2239209 L12.5620102,15.472736 L14.3060082,15.472736 L14.3060082,11.2239209 L18.3782435,11.2239209 L18.3782435,9.47992289 L14.3060082,9.47992289 Z M2.5,6.27750657 L4.243998,6.27750657 L4.243998,18.9214921 C4.243998,19.4030838 4.63440525,19.7934911 5.115997,19.7934911 L17.7599825,19.7934911 L17.7599825,21.537489 L5.115997,21.537489 C3.67122175,21.537489 2.5,20.3662673 2.5,18.9214921 L2.5,6.27750657 Z" fill="#000000" fill-rule="nonzero"></path>
    </g>
</svg>