<?xml version="1.0" encoding="UTF-8"?>
<svg width="24px" height="25px" viewBox="0 0 24 25" version="1.1" xmlns="http://www.w3.org/2000/svg" xmlns:xlink="http://www.w3.org/1999/xlink">
    <!-- Generator: Sketch 52.2 (67145) - http://www.bohemiancoding.com/sketch -->
    <title>cross</title>
    <desc>Created with Sketch.</desc>
    <g id="cross" stroke="none" stroke-width="1" fill="none" fill-rule="evenodd" transform="translate(0.000000, 0.714286)">
        <path d="M18.6999997,5.29999861 C18.3000015,4.90000046 17.6999975,4.90000046 17.2999993,5.29999861 L12,10.5999979 L6.70000066,5.29999861 C6.30000251,4.90000046 5.69999846,4.90000046 5.30000032,5.29999861 C4.90000217,5.69999675 4.90000217,6.30000081 5.30000032,6.69999895 L10.5999997,11.9999983 L5.30000032,17.2999976 C4.90000217,17.6999958 4.90000217,18.2999998 5.30000032,18.699998 C5.50000623,18.9000039 5.69999846,19 6.00000049,19 C6.30000251,19 6.49999475,18.9000039 6.70000066,18.699998 L12,13.3999986 L17.2999993,18.699998 C17.5000052,18.9000039 17.7999936,19 17.9999995,19 C18.2000054,19 18.4999938,18.9000039 18.6999997,18.699998 C19.0999978,18.2999998 19.0999978,17.6999958 18.6999997,17.2999976 L13.4000003,11.9999983 L18.6999997,6.69999895 C19.0999978,6.30000081 19.0999978,5.69999675 18.6999997,5.29999861 Z" fill="#000000" transform="translate(12.000000, 12.000000) rotate(-270.000000) translate(-12.000000, -12.000000) "></path>
    </g>
</svg>