<?xml version="1.0" encoding="UTF-8"?>
<svg width="24px" height="25px" viewBox="0 0 24 25" version="1.1" xmlns="http://www.w3.org/2000/svg" xmlns:xlink="http://www.w3.org/1999/xlink">
    <!-- Generator: Sketch 52.2 (67145) - http://www.bohemiancoding.com/sketch -->
    <title>detach</title>
    <desc>Created with Sketch.</desc>
    <g id="detach" stroke="none" stroke-width="1" fill="none" fill-rule="evenodd" transform="translate(0.000000, 0.714286)">
        <path d="M4.4,6.3 L2.5,6.3 L2.5,19.6 C2.5,20.645 3.355,21.5 4.4,21.5 L17.7,21.5 L17.7,19.6 L4.4,19.6 L4.4,6.3 Z M19.6,2.5 L8.2,2.5 C7.155,2.5 6.3,3.355 6.3,4.4 L6.3,15.8 C6.3,16.845 7.155,17.7 8.2,17.7 L19.6,17.7 C20.645,17.7 21.5,16.845 21.5,15.8 L21.5,4.4 C21.5,3.355 20.645,2.5 19.6,2.5 Z M18.65,11.05 L14.85,11.05 L12.95,11.05 L9.15,11.05 L9.15,9.15 L12.95,9.15 L14.85,9.15 L18.65,9.15 L18.65,11.05 Z" fill="#000000" fill-rule="nonzero"></path>
    </g>
</svg>