<?xml version="1.0" encoding="UTF-8"?>
<svg width="58px" height="71px" viewBox="0 0 58 71" version="1.1" xmlns="http://www.w3.org/2000/svg" xmlns:xlink="http://www.w3.org/1999/xlink">
    <!-- Generator: sketchtool 53.1 (72631) - https://sketchapp.com -->
    <title>D2B5861B-9CAE-441B-BD71-FE144CCF834F</title>
    <desc>Created with sketchtool.</desc>
    <g id="Page-1" stroke="none" stroke-width="1" fill="none" fill-rule="evenodd" stroke-linecap="round">
        <g id="Delete,-Message,-Error-Copy" transform="translate(-1062.000000, -389.000000)" stroke="#7A50C7" stroke-width="2">
            <g id="Group-19-Copy-2" transform="translate(849.000000, 302.500000)">
                <g id="Group-19" transform="translate(242.000000, 122.000000) scale(-1, -1) translate(-242.000000, -122.000000) translate(214.000000, 88.000000)">
                    <rect id="Rectangle-Copy" stroke-linejoin="round" transform="translate(21.368421, 27.325763) scale(-1, -1) translate(-21.368421, -27.325763) " x="-1.77635684e-14" y="0" width="42.7368421" height="54.6515264" rx="2"></rect>
                    <path d="M23.8863737,67.5879717 L18.8863737,67.5879717 C16.8440619,67.5879717 16.188441,66.9323508 16.188441,64.890039 L16.188441,19.7614874 C16.188441,17.7191756 16.8440619,17.0635547 18.8863737,17.0635547 L53,17.0635547 C55.0423118,17.0635547 55.6979327,17.7191756 55.6979327,19.7614874 L55.6979327,24.7614874" id="Path" stroke-linejoin="round" transform="translate(35.943187, 42.325763) scale(-1, -1) translate(-35.943187, -42.325763) "></path>
                    <g id="Group-24" transform="translate(9.368421, 11.825763)" stroke-linejoin="bevel">
                        <g id="Group-25" transform="translate(0.000000, 0.000000)">
                            <path d="M1.42108547e-14,0.467741935 L23.7157895,0.467741935" id="Path-2"></path>
                            <path d="M1.42108547e-14,9.82258065 L23.7157895,9.82258065" id="Path-2-Copy"></path>
                            <path d="M1.42108547e-14,19.1774194 L23.7157895,19.1774194" id="Path-2-Copy-2"></path>
                            <path d="M11.7157895,28.5322581 L23.5736842,28.5322581" id="Path-2-Copy-3"></path>
                        </g>
                    </g>
                </g>
            </g>
        </g>
    </g>
</svg>