<?xml version="1.0" encoding="UTF-8"?>
<svg width="24px" height="25px" viewBox="0 0 24 25" version="1.1" xmlns="http://www.w3.org/2000/svg" xmlns:xlink="http://www.w3.org/1999/xlink">
    <!-- Generator: Sketch 52.2 (67145) - http://www.bohemiancoding.com/sketch -->
    <title>download</title>
    <desc>Created with Sketch.</desc>
    <g id="download" stroke="none" stroke-width="1" fill="none" fill-rule="evenodd" transform="translate(0.000000, 0.428571)">
        <path d="M13.25,10 L16.25,10 L12,15 L7.75,10 L10.75,10 L10.75,0 L13.25,0 L13.25,10 Z M20.75,20 L3.25,20 C2.5,20 2,19.5 2,18.75 L2,7.5 C2,6.75 2.5,6.25 3.25,6.25 L7,6.25 L7,8.75 L4.5,8.75 L4.5,17.5 L19.5,17.5 L19.5,8.75 L17,8.75 L17,6.25 L20.75,6.25 C21.5,6.25 22,6.75 22,7.5 L22,18.75 C22,19.5 21.5,20 20.75,20 Z" fill="#000000" fill-rule="nonzero"></path>
    </g>
</svg>