<?xml version="1.0" encoding="UTF-8"?>
<svg width="24px" height="24px" viewBox="0 0 24 24" version="1.1" xmlns="http://www.w3.org/2000/svg" xmlns:xlink="http://www.w3.org/1999/xlink">
    <!-- Generator: Sketch 52.6 (67491) - http://www.bohemiancoding.com/sketch -->

    <desc>Created with Sketch.</desc>
    <g id="icons/entirepage" stroke="none" stroke-width="1" fill="none" fill-rule="evenodd">
        <path d="M21,3 L3,3 C1.89,3 1,3.89 1,5 L1,19 C1,20.11 1.89,21 3,21 L21,21 C22.11,21 23,20.11 23,19 L23,5 C23,3.89 22.11,3 21,3 Z M21,19.02 L3,19.02 L3,4.98 L21,4.98 L21,19.02 Z M14,12 L16,12 L12,16 L8,12 L10,12 L10,8 L14,8 L14,12 Z" id="Shape" fill="#5E646E" fill-rule="nonzero"></path>
    </g>
</svg>
