<?xml version="1.0" encoding="UTF-8"?>
<svg width="24px" height="25px" viewBox="0 0 24 25" version="1.1" xmlns="http://www.w3.org/2000/svg" xmlns:xlink="http://www.w3.org/1999/xlink">
    <!-- Generator: Sketch 52.2 (67145) - http://www.bohemiancoding.com/sketch -->
    <title>error</title>
    <desc>Created with Sketch.</desc>
    <g id="error" stroke="none" stroke-width="1" fill="none" fill-rule="evenodd" transform="translate(0.000000, 0.142857)">
        <path d="M12,2 C6.5,2 2,6.5 2,12 C2,17.5 6.5,22 12,22 C17.5,22 22,17.5 22,12 C22,6.5 17.5,2 12,2 Z M12,17 C11.25,17 10.75,16.5 10.75,15.75 C10.75,15 11.25,14.5 12,14.5 C12.75,14.5 13.25,15 13.25,15.75 C13.25,16.5 12.75,17 12,17 Z M13.25,13.25 L10.75,13.25 L10.75,7 L13.25,7 L13.25,13.25 Z" fill="#000000" fill-rule="nonzero"></path>
    </g>
</svg>