<?xml version="1.0" encoding="UTF-8"?>
<svg width="24px" height="24px" viewBox="0 0 24 24" version="1.1" xmlns="http://www.w3.org/2000/svg" xmlns:xlink="http://www.w3.org/1999/xlink">
    <!-- Generator: Sketch 52.5 (67469) - http://www.bohemiancoding.com/sketch -->
    <title>icons/error</title>
    <desc>Created with Sketch.</desc>
    <g id="icons/error" stroke="none" stroke-width="1" fill="none" fill-rule="evenodd">
        <path d="M12,4 C7.6,4 4,7.6 4,12 C4,16.4 7.6,20 12,20 C16.4,20 20,16.4 20,12 C20,7.6 16.4,4 12,4 Z M12,16 C11.4,16 11,15.6 11,15 C11,14.4 11.4,14 12,14 C12.6,14 13,14.4 13,15 C13,15.6 12.6,16 12,16 Z M13,13 L11,13 L11,8 L13,8 L13,13 Z" id="error" fill="#5E646E" fill-rule="nonzero"></path>
    </g>
</svg>