<?xml version="1.0" encoding="UTF-8"?>
<svg width="24px" height="24px" viewBox="0 0 24 24" version="1.1" xmlns="http://www.w3.org/2000/svg" xmlns:xlink="http://www.w3.org/1999/xlink">
    <!-- Generator: Sketch 52.5 (67469) - http://www.bohemiancoding.com/sketch -->

    <desc>Created with Sketch.</desc>
    <g id="icons/expireTime" stroke="none" stroke-width="1" fill="none" fill-rule="evenodd">
        <path d="M14.067505,19.7286586 C13.4056028,19.9056336 12.7098599,20 11.992,20 C7.576,20 4,16.416 4,12 C4,7.584 7.576,4 11.992,4 C16.416,4 20,7.584 20,12 C20,12.719868 19.9047608,13.4176269 19.726169,14.0813555 C19.3315483,13.6556575 18.8454263,13.3159871 18.2990715,13.0936128 C18.3601934,12.7382609 18.3920395,12.3728666 18.3920395,12 C18.3920395,8.464 15.5280395,5.6 11.9920395,5.6 C8.45603947,5.6 5.59203947,8.464 5.59203947,12 C5.59203947,15.536 8.45603947,18.4 11.9920395,18.4 C12.3649061,18.4 12.7303004,18.368154 13.0856523,18.3070321 C13.307,18.8508647 13.6445634,19.3350194 14.067505,19.7286586 Z M11.4833138,8 L12.6833138,8 L12.6833138,12.8 L8.48331384,15.32 L7.88331384,14.336 L11.4833138,12.2 L11.4833138,8 Z M16.8362106,13.6724212 C18.5857861,13.6724212 20,15.086635 20,16.8362106 C20,18.5857861 18.5857861,20 16.8362106,20 C15.086635,20 13.6724212,18.5857861 13.6724212,16.8362106 C13.6724212,15.086635 15.086635,13.6724212 16.8362106,13.6724212 Z M18.4181053,17.972011 L17.2823049,16.8362106 L18.4181053,15.7004102 L17.972011,15.2543159 L16.8362106,16.3901163 L15.7004102,15.2543159 L15.2543159,15.7004102 L16.3901163,16.8362106 L15.2543159,17.972011 L15.7004102,18.4181053 L16.8362106,17.2823049 L17.972011,18.4181053 L18.4181053,17.972011 Z" id="expireTime" fill="#5E646E" fill-rule="nonzero"></path>
    </g>
</svg>
