<?xml version="1.0" encoding="UTF-8"?>
<svg width="24px" height="24px" viewBox="0 0 24 24" version="1.1" xmlns="http://www.w3.org/2000/svg" xmlns:xlink="http://www.w3.org/1999/xlink">
    <!-- Generator: Sketch 52.2 (67145) - http://www.bohemiancoding.com/sketch -->
    <title>expireTime</title>
    <desc>Created with Sketch.</desc>
    <g id="expireTime" stroke="none" stroke-width="1" fill="none" fill-rule="evenodd">
        <path d="M14.5943319,21.6608233 C13.7669541,21.882042 12.8972756,22 11.9999507,22 C6.47995067,22 2.00995067,17.52 2.00995067,12 C2.00995067,6.48 6.47995067,2 11.9999507,2 C17.5299507,2 22.0099507,6.48 22.0099507,12 C22.0099507,12.899835 21.8909017,13.7720336 21.667662,14.6016944 C21.1743861,14.0695719 20.5667336,13.6449839 19.8837901,13.3670161 C19.9601924,12.9228262 20,12.4660832 20,12 C20,7.58 16.42,4 12,4 C7.58,4 4,7.58 4,12 C4,16.42 7.58,20 12,20 C12.4660832,20 12.9228262,19.9601924 13.3670161,19.8837901 C13.6437007,20.5635809 14.0656549,21.1687742 14.5943319,21.6608233 Z M11.364093,7 L12.864093,7 L12.864093,13 L7.61409296,16.15 L6.86409296,14.92 L11.364093,12.25 L11.364093,7 Z M18.0552139,14.0905264 C20.2421833,14.0905264 22.0099507,15.8582938 22.0099507,18.0452632 C22.0099507,20.2322327 20.2421833,22 18.0552139,22 C15.8682444,22 14.1004771,20.2322327 14.1004771,18.0452632 C14.1004771,15.8582938 15.8682444,14.0905264 18.0552139,14.0905264 Z M20.0325823,19.4650137 L18.6128318,18.0452632 L20.0325823,16.6255127 L19.4749644,16.0678948 L18.0552139,17.4876453 L16.6354634,16.0678948 L16.0778455,16.6255127 L17.497596,18.0452632 L16.0778455,19.4650137 L16.6354634,20.0226316 L18.0552139,18.6028811 L19.4749644,20.0226316 L20.0325823,19.4650137 Z" fill="#000000"></path>
    </g>
</svg>