<?xml version="1.0" encoding="UTF-8"?>
<svg width="24px" height="24px" viewBox="0 0 24 24" version="1.1" xmlns="http://www.w3.org/2000/svg" xmlns:xlink="http://www.w3.org/1999/xlink">
    <!-- Generator: Sketch 53.2 (72643) - https://sketchapp.com -->

    <desc>Created with Sketch.</desc>
    <g id="icons/facebook" stroke="none" stroke-width="1" fill="none" fill-rule="evenodd">
        <path d="M15.0396756,20 L15.0396756,13.8039617 L17.11948,13.8039617 L17.4308538,11.3892836 L15.0396756,11.3892836 L15.0396756,9.84753966 C15.0396756,9.14841739 15.2338624,8.67198175 16.236421,8.67198175 L17.5151035,8.67141925 L17.5151035,6.51174019 C17.2938543,6.4823028 16.5348573,6.41655306 15.6518607,6.41655306 C13.8082429,6.41655306 12.5461229,7.54186116 12.5461229,9.60847809 L12.5461229,11.3892836 L10.461006,11.3892836 L10.461006,13.8039617 L12.5461229,13.8039617 L12.5461229,20 L4.8830903,20 C4.39527971,20 4.00003125,19.6046265 4.00003125,19.1169409 L4.00003125,4.88305905 C4.00003125,4.39531096 4.39527971,4 4.8830903,4 L19.1169097,4 C19.6045328,4 19.9999688,4.39531096 19.9999688,4.88305905 L19.9999688,19.1169409 C19.9999688,19.6046265 19.6045328,20 19.1169097,20 L15.0396756,20 Z" id="Combined-Shape" fill="#5E646E" fill-rule="nonzero"></path>
    </g>
</svg>
