<?xml version="1.0" encoding="UTF-8"?>
<svg width="24px" height="25px" viewBox="0 0 24 25" version="1.1" xmlns="http://www.w3.org/2000/svg" xmlns:xlink="http://www.w3.org/1999/xlink">
    <!-- Generator: Sketch 52.2 (67145) - http://www.bohemiancoding.com/sketch -->
    <title>gear</title>
    <desc>Created with Sketch.</desc>
    <g id="gear" stroke="none" stroke-width="1" fill="none" fill-rule="evenodd" transform="translate(0.000000, 0.857143)">
        <path d="M18.125,7.625 L20,5.75 L18.25,4 L16.375,5.875 C15.5,5.25 14.375,4.75 13.25,4.625 L13.25,2 L10.75,2 L10.75,4.625 C9.625,4.875 8.5,5.25 7.625,5.875 L5.875,4 L4,5.875 L5.875,7.75 C5.25,8.5 4.75,9.625 4.625,10.75 L2,10.75 L2,13.25 L4.625,13.25 C4.875,14.375 5.25,15.5 5.875,16.375 L4,18.25 L5.75,20 L7.625,18.125 C8.5,18.75 9.625,19.25 10.75,19.375 L10.75,22 L13.25,22 L13.25,19.375 C14.375,19.125 15.5,18.75 16.375,18.125 L18.25,20 L20,18.25 L18.125,16.375 C18.75,15.5 19.25,14.375 19.375,13.25 L22,13.25 L22,10.75 L19.375,10.75 C19.25,9.625 18.75,8.5 18.125,7.625 Z M12,15.75 C9.875,15.75 8.25,14.125 8.25,12 C8.25,9.875 9.875,8.25 12,8.25 C14.125,8.25 15.75,9.875 15.75,12 C15.75,14.125 14.125,15.75 12,15.75 Z" fill="#000000" fill-rule="nonzero"></path>
    </g>
</svg>