<?xml version="1.0" encoding="UTF-8"?>
<svg width="24px" height="24px" viewBox="0 0 24 24" version="1.1" xmlns="http://www.w3.org/2000/svg" xmlns:xlink="http://www.w3.org/1999/xlink">
    <!-- Generator: Sketch 52.5 (67469) - http://www.bohemiancoding.com/sketch -->
    <title>icons/gear</title>
    <desc>Created with Sketch.</desc>
    <g id="icons/gear" stroke="none" stroke-width="1" fill="none" fill-rule="evenodd">
        <path d="M16.9,8.5 L18.4,7 L17,5.6 L15.5,7.1 C14.8,6.6 13.9,6.2 13,6.1 L13,4 L11,4 L11,6.1 C10.1,6.3 9.2,6.6 8.5,7.1 L7.1,5.6 L5.6,7.1 L7.1,8.6 C6.6,9.2 6.2,10.1 6.1,11 L4,11 L4,13 L6.1,13 C6.3,13.9 6.6,14.8 7.1,15.5 L5.6,17 L7,18.4 L8.5,16.9 C9.2,17.4 10.1,17.8 11,17.9 L11,20 L13,20 L13,17.9 C13.9,17.7 14.8,17.4 15.5,16.9 L17,18.4 L18.4,17 L16.9,15.5 C17.4,14.8 17.8,13.9 17.9,13 L20,13 L20,11 L17.9,11 C17.8,10.1 17.4,9.2 16.9,8.5 Z M12,15 C10.3,15 9,13.7 9,12 C9,10.3 10.3,9 12,9 C13.7,9 15,10.3 15,12 C15,13.7 13.7,15 12,15 Z" id="gear" fill="#5E646E" fill-rule="nonzero"></path>
    </g>
</svg>