<?xml version="1.0" encoding="UTF-8"?>
<svg width="24px" height="24px" viewBox="0 0 24 24" version="1.1" xmlns="http://www.w3.org/2000/svg" xmlns:xlink="http://www.w3.org/1999/xlink">
    <!-- Generator: Sketch 52.2 (67145) - http://www.bohemiancoding.com/sketch -->
    <title>info</title>
    <desc>Created with Sketch.</desc>
    <g id="info" stroke="none" stroke-width="1" fill="none" fill-rule="evenodd">
        <path d="M12,2 C6.5,2 2,6.5 2,12 C2,17.5 6.5,22 12,22 C17.5,22 22,17.5 22,12 C22,6.5 17.5,2 12,2 Z M13.25,17 L10.75,17 L10.75,10.75 L13.25,10.75 L13.25,17 Z M12,9.5 C11.25,9.5 10.75,9 10.75,8.25 C10.75,7.5 11.25,7 12,7 C12.75,7 13.25,7.5 13.25,8.25 C13.25,9 12.75,9.5 12,9.5 Z" fill="#000000" fill-rule="nonzero"></path>
    </g>
</svg>