<?xml version="1.0" encoding="UTF-8"?>
<svg width="24px" height="25px" viewBox="0 0 24 25" version="1.1" xmlns="http://www.w3.org/2000/svg" xmlns:xlink="http://www.w3.org/1999/xlink">
    <!-- Generator: Sketch 52.2 (67145) - http://www.bohemiancoding.com/sketch -->
    <title>logout</title>
    <desc>Created with Sketch.</desc>
    <g id="logout" stroke="none" stroke-width="1" fill="none" fill-rule="evenodd" transform="translate(0.000000, 0.428571)">
        <path d="M10.0900067,15.5899945 L11.4999995,16.9999873 L16.4999868,12 L11.4999995,7.0000127 L10.0900067,8.41000546 L12.6699984,10.999999 L3,10.999999 L3,13.000001 L12.6699984,13.000001 L10.0900067,15.5899945 Z M18.999998,3.00000879 L5.00001953,3.00000879 C3.89001476,3.00000879 3.00001758,3.90000791 3.00001758,5.00001074 L3.00001758,9.00001465 L5.00001953,9.00001465 L5.00001953,5.00001074 L18.999998,5.00001074 L18.999998,18.9999893 L5.00001953,18.9999893 L5.00001953,14.9999854 L3.00001758,14.9999854 L3.00001758,18.9999893 C3.00001758,20.0999921 3.89001476,20.9999912 5.00001953,20.9999912 L18.999998,20.9999912 C20.1000009,20.9999912 21,20.0999921 21,18.9999893 L21,5.00001074 C21,3.90000791 20.1000009,3.00000879 18.999998,3.00000879 Z" fill="#000000" fill-rule="nonzero"></path>
    </g>
</svg>