<?xml version="1.0" encoding="UTF-8"?>
<svg width="25px" height="25px" viewBox="0 0 25 25" version="1.1" xmlns="http://www.w3.org/2000/svg" xmlns:xlink="http://www.w3.org/1999/xlink">
    <!-- Generator: Sketch 52.2 (67145) - http://www.bohemiancoding.com/sketch -->
    <title>move</title>
    <desc>Created with Sketch.</desc>
    <g id="move" stroke="none" stroke-width="1" fill="none" fill-rule="evenodd" transform="translate(0.214286, 0.428571)">
        <path d="M15.75,10.75 L3.25,10.75 C2.56,10.75 2,11.31 2,12 C2,12.69 2.56,13.25 3.25,13.25 L15.75,13.25 L15.75,17 L22,12 L15.75,7 L15.75,10.75 Z M12,5.75 L3.25,5.75 C2.56,5.75 2,5.19 2,4.5 C2,3.81 2.56,3.25 3.25,3.25 L12,3.25 C12.69,3.25 13.25,3.81 13.25,4.5 C13.25,5.19 12.69,5.75 12,5.75 Z M12,20.75 L3.25,20.75 C2.56,20.75 2,20.19 2,19.5 C2,18.81 2.56,18.25 3.25,18.25 L12,18.25 C12.69,18.25 13.25,18.81 13.25,19.5 C13.25,20.19 12.69,20.75 12,20.75 Z" fill="#000000" fill-rule="nonzero"></path>
    </g>
</svg>