<?xml version="1.0" encoding="UTF-8"?>
<svg width="24px" height="24px" viewBox="0 0 24 24" version="1.1" xmlns="http://www.w3.org/2000/svg" xmlns:xlink="http://www.w3.org/1999/xlink">
    <!-- Generator: Sketch 52.5 (67469) - http://www.bohemiancoding.com/sketch -->

    <desc>Created with Sketch.</desc>
    <g id="icons/move" stroke="none" stroke-width="1" fill="none" fill-rule="evenodd">
        <path d="M15,11 L5,11 C4.448,11 4,11.448 4,12 C4,12.552 4.448,13 5,13 L15,13 L15,16 L20,12 L15,8 L15,11 Z M12,7 L5,7 C4.448,7 4,6.552 4,6 C4,5.448 4.448,5 5,5 L12,5 C12.552,5 13,5.448 13,6 C13,6.552 12.552,7 12,7 Z M12,19 L5,19 C4.448,19 4,18.552 4,18 C4,17.448 4.448,17 5,17 L12,17 C12.552,17 13,17.448 13,18 C13,18.552 12.552,19 12,19 Z" id="move" fill="#5E646E" fill-rule="nonzero"></path>
    </g>
</svg>
