<?xml version="1.0" encoding="UTF-8"?>
<svg width="24px" height="25px" viewBox="0 0 24 25" version="1.1" xmlns="http://www.w3.org/2000/svg" xmlns:xlink="http://www.w3.org/1999/xlink">
    <!-- Generator: Sketch 52.2 (67145) - http://www.bohemiancoding.com/sketch -->
    <title>notes</title>
    <desc>Created with Sketch.</desc>
    <g id="notes" stroke="none" stroke-width="1" fill="none" fill-rule="evenodd" transform="translate(0.000000, 0.000000)">
        <path d="M20.75,3.25 C21.5,3.25 22,3.75 22,4.5 L22,20.75 C22,21.5 21.5,22 20.75,22 L3.25,22 C2.5,22 2,21.5 2,20.75 L2,4.5 C2,3.75 2.5,3.25 3.25,3.25 L7,3.25 L7,5.75 L4.5,5.75 L4.5,19.5 L19.5,19.5 L19.5,5.75 L17,5.75 L17,3.25 L20.75,3.25 Z M8.25,2 L15.75,2 L15.75,7 L8.25,7 L8.25,2 Z M7,9.5 L17,9.5 L17,12 L7,12 L7,9.5 Z M7,14.5 L17,14.5 L17,17 L7,17 L7,14.5 Z" fill="#000000"></path>
    </g>
</svg>