<?xml version="1.0" encoding="UTF-8"?>
<svg width="24px" height="24px" viewBox="0 0 24 24" version="1.1" xmlns="http://www.w3.org/2000/svg" xmlns:xlink="http://www.w3.org/1999/xlink">
    <!-- Generator: Sketch 52.5 (67469) - http://www.bohemiancoding.com/sketch -->
    <title>icons/notesBold</title>
    <desc>Created with Sketch.</desc>
    <g id="icons/notesBold" stroke="none" stroke-width="1" fill="none" fill-rule="evenodd">
        <path d="M18.3000001,5.29275787 C18.6871,5.29275787 19,5.59075787 19,5.95942454 L19,18.6260912 C19,18.9947579 18.6871,19.2927579 18.3000001,19.2927579 L5.7,19.2927579 C5.3129,19.2927579 5,18.9947579 5,18.6260912 L5,5.95942454 C5,5.59075787 5.3129,5.29275787 5.7,5.29275787 L7.10000001,5.29275787 L7.10000001,8.6260912 L16.9,8.6260912 L16.9,5.29275787 L18.3000001,5.29275787 Z M16.2000001,15.9594246 L16.2000001,14.6260912 L7.80000001,14.6260912 L7.80000001,15.9594246 L16.2000001,15.9594246 Z M16.2000001,12.6260912 L16.2000001,11.2927579 L7.80000001,11.2927579 L7.80000001,12.6260912 L16.2000001,12.6260912 Z M13.4,4.6260912 L15.5,4.6260912 L15.5,7.29275787 L8.50000001,7.29275787 L8.50000001,4.6260912 L10.6,4.6260912 C10.6,3.88942454 11.2265,3.29275787 12,3.29275787 C12.7735,3.29275787 13.4,3.88942454 13.4,4.6260912 Z" id="notesBold" fill="#5E646E" fill-rule="nonzero"></path>
    </g>
</svg>