<?xml version="1.0" encoding="UTF-8"?>
<svg width="24px" height="25px" viewBox="0 0 24 25" version="1.1" xmlns="http://www.w3.org/2000/svg" xmlns:xlink="http://www.w3.org/1999/xlink">
    <!-- Generator: Sketch 52.2 (67145) - http://www.bohemiancoding.com/sketch -->
    <title>notesBold</title>
    <desc>Created with Sketch.</desc>
    <g id="notesBold" stroke="none" stroke-width="1" fill="none" fill-rule="evenodd" transform="translate(0.000000, 0.000000)">
        <path d="M19.2000001,4.79999998 C19.6424,4.79999998 20,5.15759998 20,5.59999999 L20,20.8 C20,21.2424 19.6424,21.6 19.2000001,21.6 L4.8,21.6 C4.3576,21.6 4,21.2424 4,20.8 L4,5.59999999 C4,5.15759998 4.3576,4.79999998 4.8,4.79999998 L6.40000001,4.79999998 L6.40000001,8.79999999 L17.6,8.79999999 L17.6,4.79999998 L19.2000001,4.79999998 Z M16.8000001,17.6000001 L16.8000001,16 L7.20000001,16 L7.20000001,17.6000001 L16.8000001,17.6000001 Z M16.8000001,13.6 L16.8000001,12 L7.20000001,12 L7.20000001,13.6 L16.8000001,13.6 Z M13.6,3.99999998 L16,3.99999998 L16,7.19999999 L8.00000001,7.19999999 L8.00000001,3.99999998 L10.4,3.99999998 C10.4,3.11599998 11.116,2.39999998 12,2.39999998 C12.884,2.39999998 13.6,3.11599998 13.6,3.99999998 Z" fill="#000000" fill-rule="nonzero"></path>
    </g>
</svg>