<?xml version="1.0" encoding="UTF-8"?>
<svg width="24px" height="25px" viewBox="0 0 24 25" version="1.1" xmlns="http://www.w3.org/2000/svg" xmlns:xlink="http://www.w3.org/1999/xlink">
    <!-- Generator: Sketch 52.2 (67145) - http://www.bohemiancoding.com/sketch -->
    <title>others</title>
    <desc>Created with Sketch.</desc>
    <g id="others" stroke="none" stroke-width="1" fill="none" fill-rule="evenodd" transform="translate(0.000000, 0.000000)">
        <path d="M17.875,16.6641539 L16.125,14.9141539 L19,12.0391539 L16.125,9.16415389 L17.875,7.41415389 L21.625,11.1641539 C22.125,11.6641539 22.125,12.4141539 21.625,12.9141539 L17.875,16.6641539 Z M6.125,16.6641539 L2.375,12.9141539 C1.875,12.4141539 1.875,11.6641539 2.375,11.1641539 L6.125,7.41415389 L7.875,9.16415389 L5,12.0391539 L7.875,14.9141539 L6.125,16.6641539 Z M9.5,20.7891539 C9.375,20.7891539 9.25,20.7891539 9.125,20.6641539 C8.5,20.4141539 8.125,19.7891539 8.375,19.0391539 L13.375,4.03915389 C13.625,3.41415389 14.25,3.03915389 15,3.28915389 C15.625,3.53915389 16,4.16415389 15.75,4.91415389 L10.75,19.9141539 C10.5,20.4141539 10,20.7891539 9.5,20.7891539 Z" fill="#000000"></path>
    </g>
</svg>