<?xml version="1.0" encoding="UTF-8"?>
<svg width="25px" height="25px" viewBox="0 0 25 25" version="1.1" xmlns="http://www.w3.org/2000/svg" xmlns:xlink="http://www.w3.org/1999/xlink">
    <!-- Generator: Sketch 52.2 (67145) - http://www.bohemiancoding.com/sketch -->
    <title>padlockBold</title>
    <desc>Created with Sketch.</desc>
    <g id="padlockBold" stroke="none" stroke-width="1" fill="none" fill-rule="evenodd" transform="translate(0.428571, 0.714286)">
        <path d="M12.3525,1 C9.41314286,1 7.00821429,3.40492857 7.00821429,6.34428571 L7.00821429,7.68035714 L4.33607143,7.68035714 C3.53442857,7.68035714 3,8.21478571 3,9.01642857 L3,21.0410714 C3,21.8427143 3.53442857,22.3771429 4.33607143,22.3771429 L20.3689286,22.3771429 C21.1705714,22.3771429 21.705,21.8427143 21.705,21.0410714 L21.705,9.01642857 C21.705,8.21478571 21.1705714,7.68035714 20.3689286,7.68035714 L17.6967857,7.68035714 L17.6967857,6.34428571 C17.6967857,3.40492857 15.2918571,1 12.3525,1 Z M13.6885714,16.6320357 L13.6885714,18.3689286 L11.0164286,18.3689286 L11.0164286,16.6320357 C10.2147857,16.2312143 9.68035714,15.2959643 9.68035714,14.3607143 C9.68035714,12.8910357 10.8828214,11.6885714 12.3525,11.6885714 C13.8221786,11.6885714 15.0246429,12.8910357 15.0246429,14.3607143 C15.0246429,15.2959643 14.4902143,16.2312143 13.6885714,16.6320357 Z M15.0246429,7.68035714 L9.68035714,7.68035714 L9.68035714,6.34428571 C9.68035714,4.87460714 10.8828214,3.67214286 12.3525,3.67214286 C13.8221786,3.67214286 15.0246429,4.87460714 15.0246429,6.34428571 L15.0246429,7.68035714 Z" fill="#000000" fill-rule="nonzero"></path>
    </g>
</svg>