<?xml version="1.0" encoding="UTF-8"?>
<svg width="24px" height="24px" viewBox="0 0 24 24" version="1.1" xmlns="http://www.w3.org/2000/svg" xmlns:xlink="http://www.w3.org/1999/xlink">
    <!-- Generator: Sketch 52.5 (67469) - http://www.bohemiancoding.com/sketch -->
    <title>icons/padlockUnlock</title>
    <desc>Created with Sketch.</desc>
    <g id="icons/padlockUnlock" stroke="none" stroke-width="1" fill="none" fill-rule="evenodd">
        <path d="M8.19048161,7.8030354 C8.19398793,5.70315716 9.89930608,4 12,4 C14.1028571,4 15.8095238,5.70666667 15.8095238,7.80952381 L15.8095238,9.33333333 L16.5714286,9.33333333 C17.4095238,9.33333333 18.0952381,10.0190476 18.0952381,10.8571429 L18.0952381,18.4761905 C18.0952381,19.3142857 17.4095238,20 16.5714286,20 L7.42857143,20 C6.59047619,20 5.9047619,19.3142857 5.9047619,18.4761905 L5.9047619,10.8571429 C5.9047619,10.0190476 6.59047619,9.33333333 7.42857143,9.33333333 L8.19047619,9.33333333 L8.19047619,9.33 L9.63809524,9.33 L9.63809524,9.33333333 L14.3619048,9.33333333 L14.3619048,7.80952381 C14.3619048,6.50666667 13.3028571,5.44761905 12,5.44761905 C10.6993063,5.44761905 9.64161314,6.50315236 9.638104,7.8030354 L8.19048122,7.8030354 Z M12,16.1904762 C12.8380952,16.1904762 13.5238095,15.5047619 13.5238095,14.6666667 C13.5238095,13.8285714 12.8380952,13.1428571 12,13.1428571 C11.1619048,13.1428571 10.4761905,13.8285714 10.4761905,14.6666667 C10.4761905,15.5047619 11.1619048,16.1904762 12,16.1904762 Z" id="padlockUnlock" fill="#5E646E" fill-rule="nonzero"></path>
    </g>
</svg>