<?xml version="1.0" encoding="UTF-8"?>
<svg width="24px" height="25px" viewBox="0 0 24 25" version="1.1" xmlns="http://www.w3.org/2000/svg" xmlns:xlink="http://www.w3.org/1999/xlink">
    <!-- Generator: Sketch 52.2 (67145) - http://www.bohemiancoding.com/sketch -->
    <title>padlock</title>
    <desc>Created with Sketch.</desc>
    <g id="padlock" stroke="none" stroke-width="1" fill="none" fill-rule="evenodd" transform="translate(0.000000, 0.714286)">
        <path d="M8.35727156,8.98650361 L7.63105963,8.98650361 L7.63105963,5.71929759 C7.63105963,3.11714951 9.7486936,1 12.3514372,1 C14.9541807,1 17.0718147,3.11714951 17.0718147,5.71929759 L17.0718147,8.98650361 L16.3456027,8.98650361 L16.3456027,5.71929759 C16.3456027,3.51756376 14.5536748,1.72604578 12.3514372,1.72604578 C10.1491995,1.72604578 8.35727156,3.51756376 8.35727156,5.71929759 L8.35727156,8.98650361 Z M19.9766624,9.7125494 C20.3778944,9.7125494 20.7028743,10.0374549 20.7028743,10.4385952 L20.7028743,22.7813735 C20.7028743,23.1825138 20.3778944,23.5074193 19.9766624,23.5074193 L4.72621193,23.5074193 C4.32497984,23.5074193 4,23.1825138 4,22.7813735 L4,10.4385952 C4,10.0374549 4.32497984,9.7125494 4.72621193,9.7125494 L19.9766624,9.7125494 Z M12.7145431,17.6663809 C13.7446747,17.493219 14.5300729,16.5998197 14.5300729,15.5209156 C14.5300729,14.3178578 13.5547703,13.3427783 12.3514372,13.3427783 C11.148104,13.3427783 10.1728014,14.3178578 10.1728014,15.5209156 C10.1728014,16.5998197 10.9581996,17.493219 11.9883312,17.6663809 L11.9883312,19.8771904 L12.7145431,19.8771904 L12.7145431,17.6663809 Z" id="Shape" fill="#000000" fill-rule="nonzero"></path>
    </g>
</svg>