<?xml version="1.0" encoding="UTF-8"?>
<svg width="24px" height="24px" viewBox="0 0 24 24" version="1.1" xmlns="http://www.w3.org/2000/svg" xmlns:xlink="http://www.w3.org/1999/xlink">
    <!-- Generator: Sketch 52.2 (67145) - http://www.bohemiancoding.com/sketch -->
    <title>padlock-lock</title>
    <desc>Created with Sketch.</desc>
    <g id="padlock-lock" stroke="none" stroke-width="1" fill="none" fill-rule="evenodd">
        <path d="M17.845029,7.93112401 L16.8536385,7.93112401 L16.8536385,5.94834301 C16.8536385,3.21210522 14.6329238,0.991390502 11.896686,0.991390502 C9.16044823,0.991390502 6.93973351,3.21210522 6.93973351,5.94834301 L6.93973351,7.93112401 L5.94834301,7.93112401 C4.85781346,7.93112401 3.96556201,8.82337546 3.96556201,9.91390502 L3.96556201,19.82781 C3.96556201,20.9183396 4.85781346,21.810591 5.94834301,21.810591 L17.845029,21.810591 C18.9355586,21.810591 19.82781,20.9183396 19.82781,19.82781 L19.82781,9.91390502 C19.82781,8.82337546 18.9355586,7.93112401 17.845029,7.93112401 L17.845029,7.93112401 Z M11.896686,16.8536385 C10.8061565,16.8536385 9.91390502,15.9613871 9.91390502,14.8708575 C9.91390502,13.780328 10.8061565,12.8880765 11.896686,12.8880765 C12.9872156,12.8880765 13.879467,13.780328 13.879467,14.8708575 C13.879467,15.9613871 12.9872156,16.8536385 11.896686,16.8536385 L11.896686,16.8536385 Z M14.9699966,7.93112401 L8.82337546,7.93112401 L8.82337546,5.94834301 C8.82337546,4.25306525 10.2014083,2.87503245 11.896686,2.87503245 C13.5919638,2.87503245 14.9699966,4.25306525 14.9699966,5.94834301 L14.9699966,7.93112401 L14.9699966,7.93112401 Z" fill="#000000"></path>
    </g>
</svg>