<?xml version="1.0" encoding="UTF-8"?>
<svg width="24px" height="24px" viewBox="0 0 24 24" version="1.1" xmlns="http://www.w3.org/2000/svg" xmlns:xlink="http://www.w3.org/1999/xlink">
    <!-- Generator: Sketch 52.5 (67469) - http://www.bohemiancoding.com/sketch -->
    <title>icons/padlockLock</title>
    <desc>Created with Sketch.</desc>
    <g id="icons/padlockLock" stroke="none" stroke-width="1" fill="none" fill-rule="evenodd">
        <path d="M16.5714286,9.33333333 L15.8095238,9.33333333 L15.8095238,7.80952381 C15.8095238,5.70666667 14.1028571,4 12,4 C9.89714286,4 8.19047619,5.70666667 8.19047619,7.80952381 L8.19047619,9.33333333 L7.42857143,9.33333333 C6.59047619,9.33333333 5.9047619,10.0190476 5.9047619,10.8571429 L5.9047619,18.4761905 C5.9047619,19.3142857 6.59047619,20 7.42857143,20 L16.5714286,20 C17.4095238,20 18.0952381,19.3142857 18.0952381,18.4761905 L18.0952381,10.8571429 C18.0952381,10.0190476 17.4095238,9.33333333 16.5714286,9.33333333 Z M12,16.1904762 C11.1619048,16.1904762 10.4761905,15.5047619 10.4761905,14.6666667 C10.4761905,13.8285714 11.1619048,13.1428571 12,13.1428571 C12.8380952,13.1428571 13.5238095,13.8285714 13.5238095,14.6666667 C13.5238095,15.5047619 12.8380952,16.1904762 12,16.1904762 Z M14.3619048,9.33333333 L9.63809524,9.33333333 L9.63809524,7.80952381 C9.63809524,6.50666667 10.6971429,5.44761905 12,5.44761905 C13.3028571,5.44761905 14.3619048,6.50666667 14.3619048,7.80952381 L14.3619048,9.33333333 Z" id="padlockLock" fill="#5E646E" fill-rule="nonzero"></path>
    </g>
</svg>