<?xml version="1.0" encoding="UTF-8"?>
<svg width="24px" height="24px" viewBox="0 0 24 24" version="1.1" xmlns="http://www.w3.org/2000/svg" xmlns:xlink="http://www.w3.org/1999/xlink">
    <!-- Generator: Sketch 52.5 (67469) - http://www.bohemiancoding.com/sketch -->
    <title>paragraph</title>
    <desc>Created with Sketch.</desc>
    <g id="paragraph" stroke="none" stroke-width="1" fill="none" fill-rule="evenodd">
        <g id="icons/sort-copy" fill="#5E646E" fill-rule="nonzero">
            <path d="M8.22031409,20 L8.22031409,9.03971676 L10.1544817,9.03971676 L10.3156624,9.82950188 L10.3801346,9.82950188 C10.6917521,9.55012071 11.0436596,9.31641113 11.4358678,9.12836611 C11.8280759,8.9403211 12.2337098,8.8463 12.6527816,8.8463 C13.1363259,8.8463 13.5715093,8.94300741 13.9583447,9.13642514 C14.3451802,9.32984287 14.6729109,9.60384722 14.9415466,9.95844639 C15.2101823,10.3130456 15.4170288,10.74017 15.5620921,11.2398324 C15.7071553,11.7394949 15.7796859,12.2955625 15.7796859,12.908052 C15.7796859,13.5957595 15.6856648,14.2055535 15.4976198,14.7374522 C15.3095748,15.269351 15.057061,15.7206523 14.7400708,16.0913696 C14.4230806,16.4620869 14.0631142,16.7441502 13.6601605,16.9375679 C13.2572069,17.1309856 12.8408278,17.2276931 12.4110106,17.2276931 C12.0671569,17.2276931 11.7340536,17.1551625 11.4116907,17.0100992 C11.0893278,16.8650359 10.7884603,16.6581895 10.5090791,16.3895538 L10.5896694,17.6628808 L10.5896694,20 L8.22031409,20 Z M11.8629965,15.2935254 C12.2713228,15.2935254 12.620544,15.1081696 12.9106706,14.7374522 C13.2007972,14.3667349 13.3458583,13.7676862 13.3458583,12.9402882 C13.3458583,11.5004006 12.8838118,10.7804676 11.9597048,10.7804676 C11.4976514,10.7804676 11.0409775,11.0222362 10.5896694,11.5057805 L10.5896694,14.7777474 C10.804578,14.9711651 11.0194834,15.105481 11.234392,15.180699 C11.4493006,15.255917 11.6588333,15.2935254 11.8629965,15.2935254 Z" id="p"></path>
        </g>
    </g>
</svg>
