<?xml version="1.0" encoding="UTF-8"?>
<svg width="24px" height="24px" viewBox="0 0 24 24" version="1.1" xmlns="http://www.w3.org/2000/svg" xmlns:xlink="http://www.w3.org/1999/xlink">
    <!-- Generator: Sketch 52.5 (67469) - http://www.bohemiancoding.com/sketch -->

    <desc>Created with Sketch.</desc>
    <g id="icons/pen" stroke="none" stroke-width="1" fill="none" fill-rule="evenodd">
        <path d="M15.7,4.3 C15.3,3.9 14.7,3.9 14.3,4.3 L4.3,14.3 C4.1,14.5 4,14.7 4,15 L4,19 C4,19.6 4.4,20 5,20 L9,20 C9.3,20 9.5,19.9 9.7,19.7 L19.7,9.7 C20.1,9.3 20.1,8.7 19.7,8.3 L15.7,4.3 Z M8.6,18 L6,18 L6,15.4 L12,9.4 L14.6,12 L8.6,18 Z M16,10.6 L13.4,8 L15,6.4 L17.6,9 L16,10.6 Z" id="pen" fill="#5E646E"></path>
    </g>
</svg>
