<?xml version="1.0" encoding="UTF-8"?>
<svg width="24px" height="25px" viewBox="0 0 24 25" version="1.1" xmlns="http://www.w3.org/2000/svg" xmlns:xlink="http://www.w3.org/1999/xlink">
    <!-- Generator: Sketch 52.2 (67145) - http://www.bohemiancoding.com/sketch -->
    <title>private</title>
    <desc>Created with Sketch.</desc>
    <g id="private" stroke="none" stroke-width="1" fill="none" fill-rule="evenodd" transform="translate(0.000000, 0.571429)">
        <path d="M20.2176842,9.08645177 C21.2151687,10.288933 21.7814098,11.2839174 21.8401589,11.3901658 C22.0539056,11.7701598 22.0526556,12.2351526 21.8389089,12.6151466 C21.6801614,12.8951423 17.8839707,19.5000391 12.0003126,19.5000391 C11.3215733,19.5000391 10.6740834,19.4050405 10.0540931,19.250043 L12.3228076,16.9813284 C15.7115047,16.7750816 18.3239638,13.4126342 19.273949,12.0001562 C19.0702022,11.696411 18.7852066,11.3001672 18.4377121,10.866424 L20.2176842,9.08645177 Z M2.36671317,21.6337557 C1.87797081,21.1450134 1.87797081,20.3550257 2.36546319,19.8675333 L5.5266638,16.7063327 C3.465446,14.8638615 2.24796503,12.7676443 2.16046639,12.6113967 C1.94796971,12.2326526 1.94671973,11.7714098 2.15796643,11.3926657 C2.31421399,11.1114201 6.05665551,4.50027343 12.0003126,4.50027343 C13.6640366,4.50027343 15.1440135,5.03901502 16.4352433,5.79775316 L19.8664397,2.36655677 C20.3551821,1.87781441 21.1451698,1.87781441 21.6339121,2.36655677 C22.1226545,2.85529914 22.1226545,3.64528679 21.6339121,4.13402916 L4.13418555,21.6337557 C3.89043936,21.8775019 3.57044436,22 3.25044936,22 C2.93045436,22 2.61045936,21.8775019 2.36671317,21.6337557 Z M4.7266763,11.9989063 C5.19916891,12.7026453 6.10665473,13.8876268 7.30038608,14.9326104 L9.59285026,12.6401462 C9.53660114,12.4351495 9.50035171,12.2226528 9.50035171,12.0001562 C9.50035171,10.6189278 10.6190842,9.50019531 12.0003126,9.50019531 C12.2228092,9.50019531 12.4353058,9.53644474 12.6403026,9.59269386 L14.5977721,7.63522445 C13.7965346,7.25148045 12.9277982,7.00023437 12.0003126,7.00023437 C8.43286839,7.00023437 5.69791112,10.543929 4.7266763,11.9989063 Z" fill="#000000" fill-rule="nonzero"></path>
    </g>
</svg>