<?xml version="1.0" encoding="UTF-8"?>
<svg width="24px" height="24px" viewBox="0 0 24 24" version="1.1" xmlns="http://www.w3.org/2000/svg" xmlns:xlink="http://www.w3.org/1999/xlink">
    <!-- Generator: Sketch 52.5 (67469) - http://www.bohemiancoding.com/sketch -->

    <desc>Created with Sketch.</desc>
    <g id="icons/private" stroke="none" stroke-width="1" fill="none" fill-rule="evenodd">
        <path d="M18.574,9.669 C19.372,10.631 19.825,11.427 19.872,11.512 C20.043,11.816 20.042,12.188 19.871,12.492 C19.744,12.716 16.707,18 12,18 C11.457,18 10.939,17.924 10.443,17.8 L12.258,15.985 C14.969,15.82 17.059,13.13 17.819,12 C17.656,11.757 17.428,11.44 17.15,11.093 L18.574,9.669 Z M4.293,19.7069998 C3.902,19.316 3.902,18.684 4.292,18.294 L6.821,15.765 C5.172,14.291 4.198,12.614 4.128,12.489 C3.958,12.186 3.957,11.817 4.126,11.514 C4.251,11.289 7.245,6 12,6 C13.331,6 14.515,6.431 15.548,7.038 L18.293,4.293 C18.684,3.902 19.316,3.902 19.707,4.293 C20.098,4.684 20.098,5.316 19.707,5.707 L5.707,19.707 C5.512,19.902 5.256,20 5,20 C4.744,20 4.488,19.9020004 4.293,19.7069998 Z M6.181,11.999 C6.559,12.562 7.285,13.51 8.24,14.346 L10.074,12.512 C10.029,12.348 10,12.178 10,12 C10,10.895 10.895,10 12,10 C12.178,10 12.348,10.029 12.512,10.074 L14.078,8.508 C13.437,8.201 12.742,8 12,8 C9.146,8 6.958,10.835 6.181,11.999 Z" id="private" fill="#5E646E"></path>
    </g>
</svg>
