<?xml version="1.0" encoding="UTF-8"?>
<svg width="24px" height="24px" viewBox="0 0 24 24" version="1.1" xmlns="http://www.w3.org/2000/svg" xmlns:xlink="http://www.w3.org/1999/xlink">
    <!-- Generator: Sketch 52.5 (67469) - http://www.bohemiancoding.com/sketch -->
    <title>icons/public</title>
    <desc>Created with Sketch.</desc>
    <g id="icons/public" stroke="none" stroke-width="1" fill="none" fill-rule="evenodd">
        <path d="M12,18 C7.269,18 4.254,12.713 4.128,12.489 C3.958,12.186 3.957,11.817 4.126,11.514 C4.251,11.289 7.245,6 12,6 C16.731,6 19.746,11.287 19.872,11.512 C20.043,11.816 20.042,12.188 19.871,12.492 C19.744,12.716 16.707,18 12,18 Z M12,8 C9.146,8 6.958,10.835 6.181,11.999 C6.962,13.162 9.159,16 12,16 C14.837,16 17.034,13.166 17.818,12 C17.036,10.835 14.839,8 12,8 Z M13.414214,10.585786 C14.19526,11.366835 14.19526,12.633165 13.414214,13.414214 C12.633165,14.195262 11.366835,14.195262 10.585786,13.414214 C9.804738,12.633165 9.804738,11.366835 10.585786,10.585786 C11.366835,9.80474 12.633165,9.80474 13.414214,10.585786 Z" id="public" fill="#5E646E"></path>
    </g>
</svg>