<?xml version="1.0" encoding="UTF-8"?>
<svg width="24px" height="24px" viewBox="0 0 24 24" version="1.1" xmlns="http://www.w3.org/2000/svg" xmlns:xlink="http://www.w3.org/1999/xlink">
    <!-- Generator: Sketch 52.5 (67469) - http://www.bohemiancoding.com/sketch -->
    <title>icons/publicFolder</title>
    <desc>Created with Sketch.</desc>
    <g id="icons/publicFolder" stroke="none" stroke-width="1" fill="none" fill-rule="evenodd">
        <path d="M18.4,7.125 L12,7.125 L10.4,5.5 L5.6,5.5 C4.72,5.5 4.008,6.23125 4.008,7.125 L4,16.875 C4,17.76875 4.72,18.5 5.6,18.5 L18.4,18.5 C19.28,18.5 20,17.76875 20,16.875 L20,8.75 C20,7.85625 19.28,7.125 18.4,7.125 Z M14.4,9.5 C15.28,9.5 16,10.22 16,11.1 C16,11.98 15.28,12.7 14.4,12.7 C13.52,12.7 12.8,11.98 12.8,11.1 C12.8,10.22 13.52,9.5 14.4,9.5 Z M17.6,15.9 L11.2,15.9 L11.2,15.1 C11.2,14.036 13.336,13.5 14.4,13.5 C15.464,13.5 17.6,14.036 17.6,15.1 L17.6,15.9 Z" id="publicFolder" fill="#5E646E" fill-rule="nonzero"></path>
    </g>
</svg>