<?xml version="1.0" encoding="UTF-8"?>
<svg width="24px" height="25px" viewBox="0 0 24 25" version="1.1" xmlns="http://www.w3.org/2000/svg" xmlns:xlink="http://www.w3.org/1999/xlink">
    <!-- Generator: Sketch 52.2 (67145) - http://www.bohemiancoding.com/sketch -->
    <title>public</title>
    <desc>Created with Sketch.</desc>
    <g id="public" stroke="none" stroke-width="1" fill="none" fill-rule="evenodd" transform="translate(0.000000, 0.571429)">
        <path d="M12.0002352,19.5000569 C17.8840299,19.5000569 21.6803087,12.8950068 21.8390599,12.6150047 C22.0528115,12.2350018 22.0540615,11.7699983 21.8403099,11.3899954 C21.6828087,11.1087432 17.9140301,4.49994309 12.0002352,4.49994309 C6.05644014,4.49994309 2.31391174,11.1112433 2.15766056,11.3924954 C1.94640895,11.7712483 1.94765896,12.2325018 2.16016058,12.6112546 C2.31766177,12.8912568 6.08644037,19.5000569 12.0002352,19.5000569 Z M12.0002352,6.99996206 C15.5490122,6.99996206 18.295283,10.5437389 19.2727904,12 C18.292783,13.4575111 15.5465122,17.0000379 12.0002352,17.0000379 C8.4489583,17.0000379 5.70268746,13.452511 4.72643005,11.99875 C5.69768742,10.5437389 8.43270818,6.99996206 12.0002352,6.99996206 Z M13.7680221,10.2322131 C14.7443381,11.2085292 14.7443381,12.7914513 13.7680221,13.7677673 C12.7917061,14.7440833 11.2087839,14.7440833 10.2324679,13.7677673 C9.25615192,12.7914513 9.25615192,11.2085292 10.2324679,10.2322131 C11.2087839,9.25589715 12.7917061,9.25589715 13.7680221,10.2322131 Z" fill="#000000" fill-rule="nonzero"></path>
    </g>
</svg>