<?xml version="1.0" encoding="UTF-8"?>
<svg width="24px" height="24px" viewBox="0 0 24 24" version="1.1" xmlns="http://www.w3.org/2000/svg" xmlns:xlink="http://www.w3.org/1999/xlink">
    <!-- Generator: Sketch 52.5 (67469) - http://www.bohemiancoding.com/sketch -->
    <title>help</title>
    <desc>Created with Sketch.</desc>
    <g id="help" stroke="none" stroke-width="1" fill="none" fill-rule="evenodd">
        <g id="icons/questionMark" fill="#5E646E" fill-rule="nonzero">
            <path d="M10.5742022,14.9512209 C10.0852687,11.5519689 13.6242161,10.2248636 13.6242161,8.12943429 C13.6242161,7.01187198 12.9257396,6.26683043 11.7383297,6.26683043 C11.10194,6.26683043 10.3025725,6.6703946 9.34022718,7.47752294 L7.85014409,6.10385259 C8.87457622,4.91644263 10.3180942,4.07827089 12.0642853,4.07827089 C14.4856704,4.07827089 16.2318615,5.40537615 16.2318615,7.94317391 C16.2318615,10.9000575 12.5997839,11.9477722 12.9257396,14.9512209 L10.5742022,14.9512209 Z M11.7616122,20.0782709 C10.7837452,20.0782709 10.0387036,19.3433886 10.0387036,18.3412764 C10.0387036,17.3391642 10.7837452,16.6042819 11.7616122,16.6042819 C12.7394792,16.6042819 13.5078033,17.3391642 13.5078033,18.3412764 C13.5078033,19.3433886 12.7394792,20.0782709 11.7616122,20.0782709 Z" id="questionMark"></path>
        </g>
    </g>
</svg>
