<?xml version="1.0" encoding="UTF-8"?>
<svg width="24px" height="24px" viewBox="0 0 24 24" version="1.1" xmlns="http://www.w3.org/2000/svg" xmlns:xlink="http://www.w3.org/1999/xlink">
    <!-- Generator: Sketch 52.5 (67469) - http://www.bohemiancoding.com/sketch -->
    <title>icons/search</title>
    <desc>Created with Sketch.</desc>
    <g id="icons/search" stroke="none" stroke-width="1" fill="none" fill-rule="evenodd">
        <path d="M15.3593367,16.3431374 C12.6268063,18.5820712 8.58819294,18.4262003 6.03751797,15.8755246 C3.3208273,13.158833 3.3208273,8.75420906 6.03751808,6.03751804 C8.75420905,3.32082731 13.158833,3.32082731 15.8755246,6.03751797 C18.4262003,8.58819292 18.5820712,12.6268063 16.3431374,15.3593367 L19.7962482,18.8124475 C20.0679173,19.0841165 20.0679173,19.5245791 19.7962482,19.7962482 C19.5245791,20.0679173 19.0841165,20.0679173 18.8124475,19.7962482 L15.3593367,16.3431374 Z M7.02131882,7.02131878 C4.84796615,9.19467164 4.84796615,12.7183705 7.02131887,14.891724 C9.19467171,17.0650775 12.7183704,17.0650775 14.891724,14.891724 C17.0650775,12.7183705 17.0650775,9.19467171 14.891724,7.02131887 C12.7183705,4.84796615 9.19467163,4.84796616 7.02131882,7.02131878 Z" id="search" fill="#5E646E" fill-rule="nonzero"></path>
    </g>
</svg>