<?xml version="1.0" encoding="UTF-8"?>
<svg width="24px" height="25px" viewBox="0 0 24 25" version="1.1" xmlns="http://www.w3.org/2000/svg" xmlns:xlink="http://www.w3.org/1999/xlink">
    <!-- Generator: Sketch 52.2 (67145) - http://www.bohemiancoding.com/sketch -->
    <title>search</title>
    <desc>Created with Sketch.</desc>
    <g id="search" stroke="none" stroke-width="1" fill="none" fill-rule="evenodd" transform="translate(0.000000, 0.428571)">
        <path d="M15.6183196,16.7111785 C14.2861678,17.8013139 12.5833034,18.4553578 10.7276789,18.4553578 C6.4597997,18.4553578 3,14.9955581 3,10.7276789 C3,6.4597997 6.4597997,3 10.7276789,3 C14.9955581,3 18.4553578,6.4597997 18.4553578,10.7276789 C18.4553578,12.5833034 17.8013139,14.2861678 16.7111785,15.6183196 L20.7736615,19.6808027 C21.0754462,19.9825873 21.0754462,20.4718769 20.7736615,20.7736615 C20.4718769,21.0754462 19.9825873,21.0754462 19.6808027,20.7736615 L15.6183196,16.7111785 Z M10.7276789,16.9098221 C14.1419823,16.9098221 16.9098221,14.1419823 16.9098221,10.7276789 C16.9098221,7.31337554 14.1419823,4.54553578 10.7276789,4.54553578 C7.31337554,4.54553578 4.54553578,7.31337554 4.54553578,10.7276789 C4.54553578,14.1419823 7.31337554,16.9098221 10.7276789,16.9098221 Z" fill="#000000"></path>
    </g>
</svg>