<?xml version="1.0" encoding="UTF-8"?>
<svg width="25px" height="25px" viewBox="0 0 25 25" version="1.1" xmlns="http://www.w3.org/2000/svg" xmlns:xlink="http://www.w3.org/1999/xlink">
    <!-- Generator: Sketch 52.2 (67145) - http://www.bohemiancoding.com/sketch -->
    <title>shared</title>
    <desc>Created with Sketch.</desc>
    <g id="shared" stroke="none" stroke-width="1" fill="none" fill-rule="evenodd" transform="translate(0.571429, 0.000000)">
        <path d="M16.75,9.5 C18.8175,9.5 20.5,7.8175 20.5,5.75 C20.5,3.6825 18.8175,2 16.75,2 C14.6825,2 13,3.6825 13,5.75 C13,6.03 13.03625,6.3 13.09375,6.5625 L9.07,9.07625 C8.43,8.5675 7.63,8.25 6.75,8.25 C4.6825,8.25 3,9.9325 3,12 C3,14.0675 4.6825,15.75 6.75,15.75 C7.63,15.75 8.43,15.4325 9.07,14.92375 L13.09375,17.43875 C13.03625,17.7 13,17.97 13,18.25 C13,20.3175 14.6825,22 16.75,22 C18.8175,22 20.5,20.3175 20.5,18.25 C20.5,16.1825 18.8175,14.5 16.75,14.5 C15.87,14.5 15.07125,14.8175 14.43,15.32625 L10.40625,12.81125 C10.46375,12.55 10.5,12.27875 10.5,12 C10.5,11.72 10.46375,11.45 10.40625,11.18875 L14.43125,8.67375 C15.07125,9.1825 15.87,9.5 16.75,9.5 Z M16.75,4.5 C17.43875,4.5 18,5.06 18,5.75 C18,6.44 17.43875,7 16.75,7 C16.06125,7 15.5,6.44 15.5,5.75 C15.5,5.06 16.06125,4.5 16.75,4.5 Z M6.75,13.25 C6.06125,13.25 5.5,12.69 5.5,12 C5.5,11.31 6.06125,10.75 6.75,10.75 C7.43875,10.75 8,11.31 8,12 C8,12.69 7.43875,13.25 6.75,13.25 Z M16.75,17 C17.43875,17 18,17.56 18,18.25 C18,18.94 17.43875,19.5 16.75,19.5 C16.06125,19.5 15.5,18.94 15.5,18.25 C15.5,17.56 16.06125,17 16.75,17 Z" fill="#000000" fill-rule="nonzero"></path>
    </g>
</svg>