<?xml version="1.0" encoding="UTF-8"?>
<svg width="24px" height="24px" viewBox="0 0 24 24" version="1.1" xmlns="http://www.w3.org/2000/svg" xmlns:xlink="http://www.w3.org/1999/xlink">
    <!-- Generator: Sketch 52.5 (67469) - http://www.bohemiancoding.com/sketch -->
    <title>icons/shared</title>
    <desc>Created with Sketch.</desc>
    <g id="icons/shared" stroke="none" stroke-width="1" fill="none" fill-rule="evenodd">
        <path d="M16,10 C17.654,10 19,8.654 19,7 C19,5.346 17.654,4 16,4 C14.346,4 13,5.346 13,7 C13,7.224 13.029,7.44 13.075,7.65 L9.856,9.661 C9.344,9.254 8.704,9 8,9 C6.346,9 5,10.346 5,12 C5,13.654 6.346,15 8,15 C8.704,15 9.344,14.746 9.856,14.339 L13.075,16.351 C13.029,16.56 13,16.776 13,17 C13,18.654 14.346,20 16,20 C17.654,20 19,18.654 19,17 C19,15.346 17.654,14 16,14 C15.296,14 14.657,14.254 14.144,14.661 L10.925,12.649 C10.971,12.44 11,12.223 11,12 C11,11.776 10.971,11.56 10.925,11.351 L14.145,9.339 C14.657,9.746 15.296,10 16,10 Z M16,6 C16.551,6 17,6.448 17,7 C17,7.552 16.551,8 16,8 C15.449,8 15,7.552 15,7 C15,6.448 15.449,6 16,6 Z M8,13 C7.449,13 7,12.552 7,12 C7,11.448 7.449,11 8,11 C8.551,11 9,11.448 9,12 C9,12.552 8.551,13 8,13 Z M16,16 C16.551,16 17,16.448 17,17 C17,17.552 16.551,18 16,18 C15.449,18 15,17.552 15,17 C15,16.448 15.449,16 16,16 Z" id="shared" fill="#5E646E" fill-rule="nonzero"></path>
    </g>
</svg>