<?xml version="1.0" encoding="UTF-8"?>
<svg width="24px" height="25px" viewBox="0 0 24 25" version="1.1" xmlns="http://www.w3.org/2000/svg" xmlns:xlink="http://www.w3.org/1999/xlink">
    <!-- Generator: Sketch 52.2 (67145) - http://www.bohemiancoding.com/sketch -->
    <title>star</title>
    <desc>Created with Sketch.</desc>
    <g id="star" stroke="none" stroke-width="1" fill="none" fill-rule="evenodd" transform="translate(0.000000, 0.285714)">
        <path d="M16.8241578,21.3967931 L11.9996523,18.860803 L7.17514679,21.3967931 C6.26648992,21.8804935 5.18535073,21.1030732 5.36158267,20.0794281 L6.28273825,14.7062288 L2.37813846,10.9016188 C1.63571455,10.1766931 2.04942215,8.91807209 3.07181736,8.76933733 L8.46626445,7.98566766 L10.8797671,3.09616881 C11.299724,2.24250631 12.7008304,2.24250631 13.1207874,3.09616881 L15.53429,7.98441778 L20.9287371,8.76808746 C21.9511323,8.91682222 22.36359,10.1754432 21.622416,10.9003689 L17.7178162,14.7062288 L18.6389718,20.0794281 C18.8152037,21.1080727 17.7315648,21.8742441 16.8241578,21.3967931 Z M12.5820926,16.3423111 L15.7467682,18.0058906 L15.1430801,14.4812519 C15.0730873,14.0762934 15.2080734,13.6625858 15.5017933,13.3751153 L18.0627808,10.8778712 L14.5243935,10.3641739 C14.1156854,10.3054299 13.7644714,10.0492062 13.58324,9.68049394 L11.9996523,6.47332266 L10.4160646,9.68049394 C10.2335833,10.0492062 9.88236931,10.3054299 9.47491107,10.3641739 L5.93652374,10.8778712 L8.49751125,13.3751153 C8.79123114,13.6613359 8.92621731,14.0762934 8.85622448,14.4812519 L8.25253636,18.0058906 L11.417212,16.3423111 C11.7821746,16.1498309 12.21713,16.1498309 12.5820926,16.3423111 Z" fill="#000000" fill-rule="nonzero"></path>
    </g>
</svg>