<?xml version="1.0" encoding="UTF-8"?>
<svg width="24px" height="25px" viewBox="0 0 24 25" version="1.1" xmlns="http://www.w3.org/2000/svg" xmlns:xlink="http://www.w3.org/1999/xlink">
    <!-- Generator: Sketch 52.2 (67145) - http://www.bohemiancoding.com/sketch -->
    <title>tagFilled</title>
    <desc>Created with Sketch.</desc>
    <g id="tagFilled" stroke="none" stroke-width="1" fill="none" fill-rule="evenodd" transform="translate(0.000000, 0.142857)">
        <path d="M17.4,6.13333333 L22,12 L17.4,17.8666667 C17.0210527,18.3523809 16.3894737,18.6666667 15.6842105,18.6666667 L4.10526316,18.6571429 C2.94736842,18.6571429 2,17.8095238 2,16.7619048 L2,7.23809524 C2,6.19047619 2.94736842,5.34285714 4.10526316,5.34285714 L15.6842105,5.33333333 C16.3894737,5.33333333 17.0210527,5.64761905 17.4,6.13333333 Z M15.3333333,13.3333333 C16.0697129,13.3333333 16.6666667,12.7363797 16.6666667,12 C16.6666667,11.2636203 16.0697129,10.6666667 15.3333333,10.6666667 C14.5969537,10.6666667 14,11.2636203 14,12 C14,12.7363797 14.5969537,13.3333333 15.3333333,13.3333333 Z" fill="#000000" fill-rule="nonzero"></path>
    </g>
</svg>