<?xml version="1.0" encoding="UTF-8"?>
<svg width="24px" height="25px" viewBox="0 0 24 25" version="1.1" xmlns="http://www.w3.org/2000/svg" xmlns:xlink="http://www.w3.org/1999/xlink">
    <!-- Generator: Sketch 52.2 (67145) - http://www.bohemiancoding.com/sketch -->
    <title>tags</title>
    <desc>Created with Sketch.</desc>
    <g id="tags" stroke="none" stroke-width="1" fill="none" fill-rule="evenodd" transform="translate(0.000000, 0.571429)">
        <path d="M21.625,12.375 C22.125,12.875 22.125,13.625 21.625,14.125 L14.125,21.625 C13.875,21.875 13.625,22 13.25,22 C12.875,22 12.625,21.875 12.375,21.625 L2.375,11.625 C2.125,11.375 2,11.125 2,10.75 L2,3.25 C2,2.5 2.5,2 3.25,2 L10.75,2 C11.125,2 11.375,2.125 11.625,2.375 L21.625,12.375 Z M13.25,19 L19,13.25 L10.25,4.5 L4.5,4.5 L4.5,10.25 L13.25,19 Z M9.13388375,7.36611236 C9.62203875,7.85427467 9.62203875,8.64572439 9.13388375,9.1338867 C8.6457275,9.62203776 7.8542725,9.62203776 7.36611625,9.1338867 C6.87796125,8.64572439 6.87796125,7.85427467 7.36611625,7.36611236 C7.8542725,6.87796255 8.6457275,6.87796255 9.13388375,7.36611236 Z" fill="#000000" fill-rule="nonzero"></path>
    </g>
</svg>