<?xml version="1.0" encoding="UTF-8"?>
<svg width="24px" height="24px" viewBox="0 0 24 24" version="1.1" xmlns="http://www.w3.org/2000/svg" xmlns:xlink="http://www.w3.org/1999/xlink">
    <!-- Generator: Sketch 52.5 (67469) - http://www.bohemiancoding.com/sketch -->
    <title>icons/team</title>
    <desc>Created with Sketch.</desc>
    <g id="icons/team" stroke="none" stroke-width="1" fill="none" fill-rule="evenodd">
        <path d="M5.03225806,6.83870968 C5.03225805,6.19332667 5.37656579,5.59696817 5.93548386,5.27427667 C6.49440194,4.95158516 7.18301741,4.95158516 7.74193549,5.27427667 C8.30085357,5.59696817 8.6451613,6.19332667 8.64516129,6.83870968 C8.6451613,7.48409268 8.30085357,8.08045118 7.74193549,8.40314269 C7.18301741,8.72583419 6.49440194,8.72583419 5.93548386,8.40314269 C5.37656579,8.08045118 5.03225805,7.48409268 5.03225806,6.83870968 Z M8.12903226,15.3548387 C8.12903226,15.6325161 8.27819355,15.8818065 8.50632258,16.0188387 L8.38658065,17.6957419 C8.37677419,17.8309677 8.26425806,17.9354839 8.12903226,17.9354839 L5.5483871,17.9354839 C5.41316129,17.9354839 5.30064516,17.8309677 5.29083871,17.696 L5.04335484,14.2296774 L4.14270968,13.7793548 C4.05522581,13.7354839 4,13.6461935 4,13.5483871 L4,11.483871 C4,10.4877419 4.81032258,9.67741935 5.80645161,9.67741935 L7.87096774,9.67741935 C8.26787097,9.67741935 8.63406452,9.80774194 8.93264516,10.0255484 C8.43612903,10.5367742 8.12903226,11.2327742 8.12903226,12 L8.12903226,15.3548387 Z M15.3548387,6.83870968 C15.3548387,5.841034 16.1636146,5.03225806 17.1612903,5.03225806 C18.158966,5.03225806 18.9677419,5.841034 18.9677419,6.83870968 C18.9677419,7.83638535 18.158966,8.64516129 17.1612903,8.64516129 C16.1636146,8.64516129 15.3548387,7.83638535 15.3548387,6.83870968 Z M15.8709677,15.3548387 L15.8709677,12 C15.8709677,11.2327742 15.563871,10.5367742 15.0673548,10.0255484 C15.3659355,9.80774194 15.732129,9.67741935 16.1290323,9.67741935 L18.1935484,9.67741935 C19.1896774,9.67741935 20,10.4877419 20,11.483871 L20,13.5483871 C20,13.6461935 19.9447742,13.7354839 19.8572903,13.7793548 L18.9566452,14.2296774 L18.7091613,17.696 C18.6993548,17.8309677 18.5868387,17.9354839 18.4516129,17.9354839 L15.8709677,17.9354839 C15.7357419,17.9354839 15.6232258,17.8309677 15.6134194,17.6957419 L15.4936774,16.0188387 C15.7218065,15.8818065 15.8709677,15.6325161 15.8709677,15.3548387 Z M13.0322581,9.67741935 C14.3127742,9.67741935 15.3548387,10.7194839 15.3548387,12 L15.3548387,15.3548387 C15.3548387,15.4779355 15.268129,15.5837419 15.1473548,15.608 L14.0516129,15.8270968 L13.8059355,19.7579355 C13.7974194,19.8939355 13.6846452,20 13.5483871,20 L10.4516129,20 C10.3153548,20 10.2025806,19.8939355 10.1940645,19.7579355 L9.9483871,15.8268387 L8.85264516,15.6077419 C8.73187097,15.5837419 8.64516129,15.4779355 8.64516129,15.3548387 L8.64516129,12 C8.64516129,10.7194839 9.68722581,9.67741935 10.9677419,9.67741935 L13.0322581,9.67741935 Z M12,8.64516129 C10.7194839,8.64516129 9.67741935,7.60309677 9.67741935,6.32258065 C9.67741935,5.04206452 10.7194839,4 12,4 C13.2805161,4 14.3225806,5.04206452 14.3225806,6.32258065 C14.3225806,7.60309677 13.2805161,8.64516129 12,8.64516129 Z" id="team" fill="#5E646E" fill-rule="nonzero"></path>
    </g>
</svg>