<?xml version="1.0" encoding="UTF-8"?>
<svg width="24px" height="25px" viewBox="0 0 24 25" version="1.1" xmlns="http://www.w3.org/2000/svg" xmlns:xlink="http://www.w3.org/1999/xlink">
    <!-- Generator: Sketch 52.2 (67145) - http://www.bohemiancoding.com/sketch -->
    <title>team</title>
    <desc>Created with Sketch.</desc>
    <g id="team" stroke="none" stroke-width="1" fill="none" fill-rule="evenodd" transform="translate(0.000000, 0.428571)">
        <path d="M3.29032258,5.5483871 C3.29032257,4.74165834 3.72070723,3.99621022 4.41935483,3.59284583 C5.11800243,3.18948145 5.97877177,3.18948145 6.67741936,3.59284583 C7.37606696,3.99621022 7.80645162,4.74165834 7.80645161,5.5483871 C7.80645162,6.35511586 7.37606696,7.10056398 6.67741936,7.50392836 C5.97877177,7.90729274 5.11800243,7.90729274 4.41935483,7.50392836 C3.72070723,7.10056398 3.29032257,6.35511586 3.29032258,5.5483871 Z M7.16129032,16.1935484 C7.16129032,16.5406452 7.34774194,16.8522581 7.63290323,17.0235484 L7.48322581,19.1196774 C7.47096774,19.2887097 7.33032258,19.4193548 7.16129032,19.4193548 L3.93548387,19.4193548 C3.76645161,19.4193548 3.62580645,19.2887097 3.61354839,19.12 L3.30419355,14.7870968 L2.1783871,14.2241935 C2.06903226,14.1693548 2,14.0577419 2,13.9354839 L2,11.3548387 C2,10.1096774 3.01290323,9.09677419 4.25806452,9.09677419 L6.83870968,9.09677419 C7.33483871,9.09677419 7.79258065,9.25967742 8.16580645,9.53193548 C7.54516129,10.1709677 7.16129032,11.0409677 7.16129032,12 L7.16129032,16.1935484 Z M16.1935484,5.5483871 C16.1935484,4.3012925 17.2045183,3.29032258 18.4516129,3.29032258 C19.6987075,3.29032258 20.7096774,4.3012925 20.7096774,5.5483871 C20.7096774,6.79548169 19.6987075,7.80645161 18.4516129,7.80645161 C17.2045183,7.80645161 16.1935484,6.79548169 16.1935484,5.5483871 Z M16.8387097,16.1935484 L16.8387097,12 C16.8387097,11.0409677 16.4548387,10.1709677 15.8341935,9.53193548 C16.2074194,9.25967742 16.6651613,9.09677419 17.1612903,9.09677419 L19.7419355,9.09677419 C20.9870968,9.09677419 22,10.1096774 22,11.3548387 L22,13.9354839 C22,14.0577419 21.9309677,14.1693548 21.8216129,14.2241935 L20.6958065,14.7870968 L20.3864516,19.12 C20.3741935,19.2887097 20.2335484,19.4193548 20.0645161,19.4193548 L16.8387097,19.4193548 C16.6696774,19.4193548 16.5290323,19.2887097 16.5167742,19.1196774 L16.3670968,17.0235484 C16.6522581,16.8522581 16.8387097,16.5406452 16.8387097,16.1935484 Z M13.2903226,9.09677419 C14.8909677,9.09677419 16.1935484,10.3993548 16.1935484,12 L16.1935484,16.1935484 C16.1935484,16.3474194 16.0851613,16.4796774 15.9341935,16.51 L14.5645161,16.783871 L14.2574194,21.6974194 C14.2467742,21.8674194 14.1058065,22 13.9354839,22 L10.0645161,22 C9.89419355,22 9.75322581,21.8674194 9.74258065,21.6974194 L9.43548387,16.7835484 L8.06580645,16.5096774 C7.91483871,16.4796774 7.80645161,16.3474194 7.80645161,16.1935484 L7.80645161,12 C7.80645161,10.3993548 9.10903226,9.09677419 10.7096774,9.09677419 L13.2903226,9.09677419 Z M12,7.80645161 C10.3993548,7.80645161 9.09677419,6.50387097 9.09677419,4.90322581 C9.09677419,3.30258065 10.3993548,2 12,2 C13.6006452,2 14.9032258,3.30258065 14.9032258,4.90322581 C14.9032258,6.50387097 13.6006452,7.80645161 12,7.80645161 Z" fill="#000000"></path>
    </g>
</svg>