<?xml version="1.0" encoding="UTF-8"?>
<svg width="24px" height="24px" viewBox="0 0 24 24" version="1.1" xmlns="http://www.w3.org/2000/svg" xmlns:xlink="http://www.w3.org/1999/xlink">
    <!-- Generator: Sketch 52.5 (67469) - http://www.bohemiancoding.com/sketch -->
    <title>icons/toolkit</title>
    <desc>Created with Sketch.</desc>
    <g id="icons/toolkit" stroke="none" stroke-width="1" fill="none" fill-rule="evenodd">
        <path d="M11.8504015,12.3876037 C11.4048838,12.4877206 11.0720491,12.8857269 11.0720491,13.3614708 C11.0720491,13.9127312 11.518934,14.359616 12.0701944,14.359616 C12.6214548,14.359616 13.0683396,13.9127312 13.0683396,13.3614708 C13.0683396,12.8857269 12.735505,12.4877206 12.2899872,12.3876037 L12.2899872,4.38660177 C12.2899872,4.3313733 12.3347587,4.28660177 12.3899872,4.28660177 C12.4265206,4.28660177 12.4601463,4.30652444 12.477695,4.33856706 L16.9464218,12.4981328 C17.1219547,12.818643 17.1086818,13.2093785 16.9118037,13.5172382 L14.362883,17.503005 C14.1791088,17.7903742 13.8615297,17.9642467 13.5204226,17.9642467 L10.6199661,17.9642467 C10.278859,17.9642467 9.96127997,17.7903742 9.77750569,17.503005 L7.22858501,13.5172382 C7.03170696,13.2093785 7.01843404,12.818643 7.19396695,12.4981328 L11.6626937,4.33856706 C11.6892225,4.29012735 11.7499965,4.27236509 11.7984362,4.29889393 C11.8304789,4.31644262 11.8504015,4.35006841 11.8504015,4.38660177 L11.8504015,12.3876037 Z M9.50421847,18.9890726 C9.50421847,18.7134424 9.73398378,18.49 10.0174136,18.49 L14.1229751,18.49 C14.4064049,18.49 14.6361703,18.7134424 14.6361703,18.9890726 C14.6361703,19.153571 14.6361703,19.6272275 14.6361703,19.7917259 C14.6361703,20.0673561 14.4064049,20.2907986 14.1229751,20.2907986 L10.0174136,20.2907986 C9.73398378,20.2907986 9.50421847,20.0673561 9.50421847,19.7917259 C9.50421847,19.6272275 9.50421847,19.153571 9.50421847,18.9890726 Z" id="toolkit" fill="#5E646E" fill-rule="nonzero"></path>
    </g>
</svg>