<?xml version="1.0" encoding="UTF-8"?>
<svg width="24px" height="25px" viewBox="0 0 24 25" version="1.1" xmlns="http://www.w3.org/2000/svg" xmlns:xlink="http://www.w3.org/1999/xlink">
    <!-- Generator: Sketch 52.2 (67145) - http://www.bohemiancoding.com/sketch -->
    <title>trashBin</title>
    <desc>Created with Sketch.</desc>
    <g id="trashBin" stroke="none" stroke-width="1" fill="none" fill-rule="evenodd" transform="translate(0.000000, 0.285714)">
        <path d="M8.9375,11.3125 L11.3125,11.3125 L11.3125,18.4375 L8.9375,18.4375 L8.9375,11.3125 Z M13.6875,11.3125 L16.0625,11.3125 L16.0625,18.4375 L13.6875,18.4375 L13.6875,11.3125 Z M17.25,4.1875 L17.25,6.5625 L22,6.5625 L22,8.9375 L20.8125,8.9375 L20.8125,20.8125 C20.8125,21.525 20.3375,22 19.625,22 L5.375,22 C4.6625,22 4.1875,21.525 4.1875,20.8125 L4.1875,8.9375 L3,8.9375 L3,6.5625 L7.75,6.5625 L7.75,4.1875 C7.75,3.475 8.225,3 8.9375,3 L16.0625,3 C16.775,3 17.25,3.475 17.25,4.1875 Z M10.125,5.375 L10.125,6.5625 L14.875,6.5625 L14.875,5.375 L10.125,5.375 Z M18.4375,8.9375 L6.5625,8.9375 L6.5625,19.625 L18.4375,19.625 L18.4375,8.9375 Z" fill="#000000"></path>
    </g>
</svg>