<?xml version="1.0" encoding="UTF-8"?>
<svg width="24px" height="24px" viewBox="0 0 24 24" version="1.1" xmlns="http://www.w3.org/2000/svg" xmlns:xlink="http://www.w3.org/1999/xlink">
    <!-- Generator: Sketch 52.5 (67469) - http://www.bohemiancoding.com/sketch -->

    <desc>Created with Sketch.</desc>
    <g id="icons/trashBin" stroke="none" stroke-width="1" fill="none" fill-rule="evenodd">
        <path d="M9,11 L11,11 L11,17 L9,17 L9,11 Z M13,11 L15,11 L15,17 L13,17 L13,11 Z M16,5 L16,7 L20,7 L20,9 L19,9 L19,19 C19,19.6 18.6,20 18,20 L6,20 C5.4,20 5,19.6 5,19 L5,9 L4,9 L4,7 L8,7 L8,5 C8,4.4 8.4,4 9,4 L15,4 C15.6,4 16,4.4 16,5 Z M10,6 L10,7 L14,7 L14,6 L10,6 Z M17,9 L7,9 L7,18 L17,18 L17,9 Z" id="trashBin" fill="#5E646E"></path>
    </g>
</svg>
