<?xml version="1.0" encoding="UTF-8"?>
<svg width="24px" height="24px" viewBox="0 0 24 24" version="1.1" xmlns="http://www.w3.org/2000/svg" xmlns:xlink="http://www.w3.org/1999/xlink">
    <!-- Generator: Sketch 53.2 (72643) - https://sketchapp.com -->

    <desc>Created with Sketch.</desc>
    <g id="icons/twitter" stroke="none" stroke-width="1" fill="none" fill-rule="evenodd">
        <path d="M21.2269982,7.15586993 C20.5931551,7.43696887 19.9119895,7.62695167 19.1970492,7.71239668 C19.9267974,7.27496362 20.4871679,6.58232979 20.7510645,5.75705456 C20.0681976,6.16203615 19.3117951,6.45617869 18.5067468,6.61471824 C17.8620025,5.92781854 16.9434687,5.49857712 15.9269505,5.49857712 C13.975011,5.49857712 12.3925141,7.08101103 12.3925141,9.03282444 C12.3925141,9.30982756 12.4238313,9.57958425 12.4840713,9.83825072 C9.54667879,9.69086439 6.94243355,8.28379438 5.19925465,6.14552687 C4.89503011,6.66752274 4.72073743,7.27464856 4.72073743,7.92235446 C4.72073743,9.14851547 5.34475061,10.2303147 6.29308933,10.8640949 C5.71368903,10.8457582 5.16875658,10.6867776 4.69219274,10.4220619 C4.6919407,10.4368068 4.6919407,10.4516148 4.6919407,10.4664857 C4.6919407,12.1789145 5.91022513,13.6074088 7.52706388,13.9320494 C7.23046386,14.0128315 6.91823673,14.0559951 6.59586458,14.0559951 C6.36813726,14.0559951 6.14671119,14.0338776 5.93095626,13.9926044 C6.38067676,15.3967759 7.68591849,16.4185872 9.23249826,16.4471319 C8.02290956,17.3950295 6.49895129,17.960063 4.84310778,17.960063 C4.55785001,17.960063 4.27649902,17.9433646 4,17.9107241 C5.56409726,18.9135057 7.42189596,19.4985771 9.41781815,19.4985771 C15.9186958,19.4985771 19.4736112,14.1130844 19.4736112,9.44265799 C19.4736112,9.2894115 19.4702086,9.13698417 19.4634032,8.98543901 C20.1538946,8.48713585 20.7531439,7.86463497 21.2269982,7.15586993" id="Path" fill="#5E646E" fill-rule="nonzero"></path>
    </g>
</svg>
