<?xml version="1.0" encoding="UTF-8"?>
<svg width="24px" height="25px" viewBox="0 0 24 25" version="1.1" xmlns="http://www.w3.org/2000/svg" xmlns:xlink="http://www.w3.org/1999/xlink">
    <!-- Generator: Sketch 52.2 (67145) - http://www.bohemiancoding.com/sketch -->
    <title>upload</title>
    <desc>Created with Sketch.</desc>
    <g id="upload" stroke="none" stroke-width="1" fill="none" fill-rule="evenodd" transform="translate(0.000000, 0.428571)">
        <path d="M10.75,4.25 L5.75,9.25 L4,7.5 L11.125,0.375 C11.625,-0.125 12.375,-0.125 12.875,0.375 L20,7.5 L18.25,9.25 L13.25,4.25 L13.25,15 L10.75,15 L10.75,4.25 Z M19.5,17.5 L19.5,13.75 L22,13.75 L22,18.75 C22,19.5 21.5,20 20.75,20 L3.25,20 C2.5,20 2,19.5 2,18.75 L2,13.75 L4.5,13.75 L4.5,17.5 L19.5,17.5 Z" fill="#000000"></path>
    </g>
</svg>