<?xml version="1.0" encoding="UTF-8"?>
<svg width="24px" height="24px" viewBox="0 0 24 24" version="1.1" xmlns="http://www.w3.org/2000/svg" xmlns:xlink="http://www.w3.org/1999/xlink">
    <!-- Generator: Sketch 52.5 (67469) - http://www.bohemiancoding.com/sketch -->
    <title>icons/url</title>
    <desc>Created with Sketch.</desc>
    <g id="icons/url" stroke="none" stroke-width="1" fill="none" fill-rule="evenodd">
        <path d="M19,5 L5,5 C4.448,5 4,5.448 4,6 L4,18 C4,18.552 4.448,19 5,19 L19,19 C19.552,19 20,18.552 20,18 L20,6 C20,5.448 19.552,5 19,5 Z M10,7 L12,7 L12,9 L10,9 L10,7 Z M6,7 L8,7 L8,9 L6,9 L6,7 Z M18,17 L6,17 L6,11 L18,11 L18,17 Z M18,9 L14,9 L14,7 L18,7 L18,9 Z" id="url" fill="#5E646E" fill-rule="nonzero"></path>
    </g>
</svg>