<?xml version="1.0" encoding="UTF-8"?>
<svg width="24px" height="25px" viewBox="0 0 24 25" version="1.1" xmlns="http://www.w3.org/2000/svg" xmlns:xlink="http://www.w3.org/1999/xlink">
    <!-- Generator: Sketch 52.2 (67145) - http://www.bohemiancoding.com/sketch -->
    <title>url</title>
    <desc>Created with Sketch.</desc>
    <g id="url" stroke="none" stroke-width="1" fill="none" fill-rule="evenodd" transform="translate(0.000000, 0.428571)">
        <path d="M20.75,3.25 L3.25,3.25 C2.56,3.25 2,3.81 2,4.5 L2,19.5 C2,20.19 2.56,20.75 3.25,20.75 L20.75,20.75 C21.44,20.75 22,20.19 22,19.5 L22,4.5 C22,3.81 21.44,3.25 20.75,3.25 Z M9.5,5.75 L12,5.75 L12,8.25 L9.5,8.25 L9.5,5.75 Z M4.5,5.75 L7,5.75 L7,8.25 L4.5,8.25 L4.5,5.75 Z M19.5,18.25 L4.5,18.25 L4.5,10.75 L19.5,10.75 L19.5,18.25 Z M19.5,8.25 L14.5,8.25 L14.5,5.75 L19.5,5.75 L19.5,8.25 Z" fill="#000000" fill-rule="nonzero"></path>
    </g>
</svg>