<?xml version="1.0" encoding="UTF-8"?>
<svg width="24px" height="24px" viewBox="0 0 24 24" version="1.1" xmlns="http://www.w3.org/2000/svg" xmlns:xlink="http://www.w3.org/1999/xlink">
    <!-- Generator: Sketch 52.5 (67469) - http://www.bohemiancoding.com/sketch -->

    <desc>Created with Sketch.</desc>
    <g id="icons/viewGrid" stroke="none" stroke-width="1" fill="none" fill-rule="evenodd">
        <path d="M10,4 C10.6,4 11,4.4 11,5 L11,10 C11,10.6 10.6,11 10,11 L5,11 C4.4,11 4,10.6 4,10 L4,5 C4,4.4 4.4,4 5,4 L10,4 Z M19,4 C19.6,4 20,4.4 20,5 L20,10 C20,10.6 19.6,11 19,11 L14,11 C13.4,11 13,10.6 13,10 L13,5 C13,4.4 13.4,4 14,4 L19,4 Z M10,13 C10.6,13 11,13.4 11,14 L11,19 C11,19.6 10.6,20 10,20 L5,20 C4.4,20 4,19.6 4,19 L4,14 C4,13.4 4.4,13 5,13 L10,13 Z M19,13 C19.6,13 20,13.4 20,14 L20,19 C20,19.6 19.6,20 19,20 L14,20 C13.4,20 13,19.6 13,19 L13,14 C13,13.4 13.4,13 14,13 L19,13 Z" id="viewGrid" fill="#5E646E"></path>
    </g>
</svg>
