<?xml version="1.0" encoding="UTF-8"?>
<svg width="24px" height="24px" viewBox="0 0 24 24" version="1.1" xmlns="http://www.w3.org/2000/svg" xmlns:xlink="http://www.w3.org/1999/xlink">
    <!-- Generator: Sketch 52.5 (67469) - http://www.bohemiancoding.com/sketch -->
    <title>icons/viewList</title>
    <desc>Created with Sketch.</desc>
    <g id="icons/viewList" stroke="none" stroke-width="1" fill="none" fill-rule="evenodd">
        <path d="M19,8 L5,8 C4.448,8 4,7.552 4,7 L4,5 C4,4.448 4.448,4 5,4 L19,4 C19.552,4 20,4.448 20,5 L20,7 C20,7.552 19.552,8 19,8 Z M19,14 L5,14 C4.448,14 4,13.552 4,13 C4,12.448 4.448,12 5,12 L19,12 C19.552,12 20,12.448 20,13 C20,13.552 19.552,14 19,14 Z M19,20 L5,20 C4.448,20 4,19.552 4,19 C4,18.448 4.448,18 5,18 L19,18 C19.552,18 20,18.448 20,19 C20,19.552 19.552,20 19,20 Z" id="viewList" fill="#5E646E" fill-rule="nonzero"></path>
    </g>
</svg>