<?xml version="1.0" encoding="UTF-8"?>
<svg width="25px" height="25px" viewBox="0 0 25 25" version="1.1" xmlns="http://www.w3.org/2000/svg" xmlns:xlink="http://www.w3.org/1999/xlink">
    <!-- Generator: Sketch 52.2 (67145) - http://www.bohemiancoding.com/sketch -->
    <title>viewGrid</title>
    <desc>Created with Sketch.</desc>
    <g id="viewGrid" stroke="none" stroke-width="1" fill="none" fill-rule="evenodd" transform="translate(0.357143, 0.428571)">
        <path d="M9.75,3 C10.425,3 10.875,3.45 10.875,4.125 L10.875,9.75 C10.875,10.425 10.425,10.875 9.75,10.875 L4.125,10.875 C3.45,10.875 3,10.425 3,9.75 L3,4.125 C3,3.45 3.45,3 4.125,3 L9.75,3 Z M19.875,3 C20.55,3 21,3.45 21,4.125 L21,9.75 C21,10.425 20.55,10.875 19.875,10.875 L14.25,10.875 C13.575,10.875 13.125,10.425 13.125,9.75 L13.125,4.125 C13.125,3.45 13.575,3 14.25,3 L19.875,3 Z M9.75,13.125 C10.425,13.125 10.875,13.575 10.875,14.25 L10.875,19.875 C10.875,20.55 10.425,21 9.75,21 L4.125,21 C3.45,21 3,20.55 3,19.875 L3,14.25 C3,13.575 3.45,13.125 4.125,13.125 L9.75,13.125 Z M19.875,13.125 C20.55,13.125 21,13.575 21,14.25 L21,19.875 C21,20.55 20.55,21 19.875,21 L14.25,21 C13.575,21 13.125,20.55 13.125,19.875 L13.125,14.25 C13.125,13.575 13.575,13.125 14.25,13.125 L19.875,13.125 Z" fill="#000000"></path>
    </g>
</svg>