<?xml version="1.0" encoding="UTF-8"?>
<svg width="24px" height="25px" viewBox="0 0 24 25" version="1.1" xmlns="http://www.w3.org/2000/svg" xmlns:xlink="http://www.w3.org/1999/xlink">
    <!-- Generator: Sketch 52.2 (67145) - http://www.bohemiancoding.com/sketch -->
    <title>wallet</title>
    <desc>Created with Sketch.</desc>
    <g id="wallet" stroke="none" stroke-width="1" fill="none" fill-rule="evenodd" transform="translate(0.000000, 0.428571)">
        <path d="M14.03125,2.875 L14.03125,6.296875 L4.3359375,6.296875 C3.4234375,6.296875 2.625,5.4984375 2.625,4.5859375 C2.625,3.6734375 3.4234375,2.875 4.3359375,2.875 L14.03125,2.875 Z M19.734375,8.578125 C20.41875,8.578125 20.875,9.034375 20.875,9.71875 L20.875,19.984375 C20.875,20.66875 20.41875,21.125 19.734375,21.125 L4.90625,21.125 C3.6515625,21.125 2.625,20.0984375 2.625,18.84375 L2.625,8.578125 L19.734375,8.578125 Z M16.8828125,16.5625 C17.7953125,16.5625 18.59375,15.7640625 18.59375,14.8515625 C18.59375,13.9390625 17.7953125,13.140625 16.8828125,13.140625 C15.9703125,13.140625 15.171875,13.9390625 15.171875,14.8515625 C15.171875,15.7640625 15.9703125,16.5625 16.8828125,16.5625 Z" fill="#000000"></path>
    </g>
</svg>