<?xml version="1.0" encoding="UTF-8"?>
<svg width="24px" height="24px" viewBox="0 0 24 24" version="1.1" xmlns="http://www.w3.org/2000/svg" xmlns:xlink="http://www.w3.org/1999/xlink">
    <!-- Generator: Sketch 52.5 (67469) - http://www.bohemiancoding.com/sketch -->
    <title>icons/wallet</title>
    <desc>Created with Sketch.</desc>
    <g id="icons/wallet" stroke="none" stroke-width="1" fill="none" fill-rule="evenodd">
        <path d="M14,4 L14,7 L5.5,7 C4.7,7 4,6.3 4,5.5 C4,4.7 4.7,4 5.5,4 L14,4 Z M19,9 C19.6,9 20,9.4 20,10 L20,19 C20,19.6 19.6,20 19,20 L6,20 C4.9,20 4,19.1 4,18 L4,9 L19,9 Z M16.5,16 C17.3,16 18,15.3 18,14.5 C18,13.7 17.3,13 16.5,13 C15.7,13 15,13.7 15,14.5 C15,15.3 15.7,16 16.5,16 Z" id="wallet" fill="#5E646E"></path>
    </g>
</svg>