<?xml version="1.0" encoding="UTF-8"?>
<svg width="24px" height="25px" viewBox="0 0 24 25" version="1.1" xmlns="http://www.w3.org/2000/svg" xmlns:xlink="http://www.w3.org/1999/xlink">
    <!-- Generator: Sketch 52.2 (67145) - http://www.bohemiancoding.com/sketch -->
    <title>watchFolder</title>
    <desc>Created with Sketch.</desc>
    <g id="watchFolder" stroke="none" stroke-width="1" fill="none" fill-rule="evenodd" transform="translate(0.000000, 0.571429)">
        <path d="M11,5 L13,7 L21,7 C22.1,7 23,7.9 23,9 L23,19 C23,20.1 22.1,21 21,21 L5,21 C3.9,21 3,20.1 3,19 L3.01,7 C3.01,5.9 3.9,5 5,5 L11,5 Z M16.1487384,17.3952787 C19.0046556,17.3952787 20.8473197,14.3449915 20.9243755,14.2156833 C21.0281277,14.0401937 21.0287345,13.8254497 20.9249823,13.6499601 C20.8485332,13.5200747 19.0192173,10.4680556 16.1487384,10.4680556 C13.2636978,10.4680556 11.4471233,13.5212292 11.371281,13.6511146 C11.2687423,13.826027 11.269349,14.0390391 11.3724945,14.2139515 C11.4489435,14.3432597 13.2782595,17.3952787 16.1487384,17.3952787 Z M17.7982009,12.2820904 C18.7092332,13.1931262 18.7092332,14.6702064 17.7982009,15.5812422 C16.8871652,16.4922768 15.410085,16.4922768 14.4990492,15.5812422 C13.5880146,14.6702064 13.5880146,13.1931262 14.4990492,12.2820904 C15.410085,11.3710581 16.8871652,11.3710581 17.7982009,12.2820904 Z M16.1592968,15.0412384 C16.7803017,15.0412384 17.2837256,14.5378145 17.2837256,13.9168096 C17.2837256,13.2958047 16.7803017,12.7923808 16.1592968,12.7923808 C15.5382919,12.7923808 15.034868,13.2958047 15.034868,13.9168096 C15.034868,14.5378145 15.5382919,15.0412384 16.1592968,15.0412384 Z" fill="#000000" fill-rule="nonzero"></path>
    </g>
</svg>