<?xml version="1.0" encoding="UTF-8"?>
<svg width="24px" height="24px" viewBox="0 0 24 24" version="1.1" xmlns="http://www.w3.org/2000/svg" xmlns:xlink="http://www.w3.org/1999/xlink">
    <!-- Generator: Sketch 52.5 (67469) - http://www.bohemiancoding.com/sketch -->

    <desc>Created with Sketch.</desc>
    <g id="icons/watchFolder" stroke="none" stroke-width="1" fill="none" fill-rule="evenodd">
        <path d="M10.375,5.5 L12,7.125 L18.5,7.125 C19.39375,7.125 20.125,7.85625 20.125,8.75 L20.125,16.875 C20.125,17.76875 19.39375,18.5 18.5,18.5 L5.5,18.5 C4.60625,18.5 3.875,17.76875 3.875,16.875 L3.883125,7.125 C3.883125,6.23125 4.60625,5.5 5.5,5.5 L10.375,5.5 Z M14.8347054,16 C17.1513091,16 18.6460033,13.3994191 18.7085078,13.289175 C18.7926674,13.1395579 18.7931596,12.9564739 18.709,12.8068568 C18.6469877,12.6961205 17.163121,10.0940631 14.8347054,10.0940631 C12.4944779,10.0940631 11.0209467,12.6971048 10.9594265,12.8078411 C10.8762512,12.956966 10.8767434,13.1385736 10.9604108,13.2876985 C11.0224232,13.3979426 12.5062898,16 14.8347054,16 Z M14.8347054,11.0783859 C16.2319516,11.0783859 17.3132302,12.4736635 17.6981005,13.0470316 C17.3122459,13.6208918 16.2309673,15.0156772 14.8347054,15.0156772 C13.4364748,15.0156772 12.3551962,13.6189231 11.9708182,13.0465394 C12.3532276,12.4736635 13.4300767,11.0783859 14.8347054,11.0783859 Z M15.530727,12.35101 C15.1463248,11.9666093 14.523086,11.9666093 14.1386839,12.35101 C13.7542822,12.7354122 13.7542822,13.3586509 14.1386839,13.7430531 C14.523086,14.1274548 15.1463248,14.1274548 15.530727,13.7430531 C15.9151276,13.3586509 15.9151276,12.7354122 15.530727,12.35101 Z" id="watchFolder" fill="#5E646E" fill-rule="nonzero"></path>
    </g>
</svg>
