<?xml version="1.0" encoding="UTF-8"?>
<svg width="24px" height="25px" viewBox="0 0 24 25" version="1.1" xmlns="http://www.w3.org/2000/svg" xmlns:xlink="http://www.w3.org/1999/xlink">
    <!-- Generator: Sketch 52.2 (67145) - http://www.bohemiancoding.com/sketch -->
    <title>zoomReset</title>
    <desc>Created with Sketch.</desc>
    <g id="zoomReset" stroke="none" stroke-width="1" fill="none" fill-rule="evenodd" transform="translate(0.000000, 0.714286)">
        <path d="M17.0139334,14.2531441 L16.218706,14.2531441 L15.9436274,13.9780655 C16.9239076,12.8427409 17.5140764,11.3673191 17.5140764,9.75185731 C17.5140764,6.16083071 14.6032442,3.255 11.0122176,3.255 C7.42119102,3.255 4.51536031,6.25085645 4.51035888,9.75185731 L1.99964112,9.75185731 L5.84073921,13.7530011 L10.0019288,9.75185731 L6.5109308,9.75185731 C6.51593223,7.25114241 8.52650701,5.25557192 11.0122176,5.25557192 C13.4979282,5.25557192 15.5135044,7.27114813 15.5135044,9.75685874 C15.5135044,12.2425693 13.4979282,14.2581456 11.0122176,14.2581456 C10.3670332,14.2581456 9.75185731,14.1181055 9.1966986,13.8730355 L7.71627538,15.3534587 C8.68155133,15.9236217 9.80687303,16.2587175 11.0122176,16.2587175 C12.6276794,16.2587175 14.0980998,15.6685488 15.2334244,14.6932699 L15.5035016,14.9633472 L15.5035016,15.7535731 L20.5099328,20.745 L22.0003589,19.2545739 L17.0139334,14.2531441 Z" fill="#000000"></path>
    </g>
</svg>