<?xml version="1.0" encoding="UTF-8"?>
<svg width="24px" height="24px" viewBox="0 0 24 24" version="1.1" xmlns="http://www.w3.org/2000/svg" xmlns:xlink="http://www.w3.org/1999/xlink">
    <!-- Generator: Sketch 52.5 (67469) - http://www.bohemiancoding.com/sketch -->
    <title>icons/zoomReset</title>
    <desc>Created with Sketch.</desc>
    <g id="icons/zoomReset" stroke="none" stroke-width="1" fill="none" fill-rule="evenodd">
        <path d="M16.0115417,13.8035459 L15.3753542,13.8035459 L15.1552893,13.5833572 C15.9395205,12.6745782 16.4116597,11.4935659 16.4116597,10.2004575 C16.4116597,7.32599371 14.0829731,5 11.210126,5 C8.3372789,5 6.01259344,7.39805548 6.00859226,10.2004575 L4,10.2004575 L7.07290608,13.4032027 L10.4018877,10.2004575 L7.60906418,10.2004575 C7.61306535,8.19874178 9.22153963,6.60137261 11.210126,6.60137261 C13.1987123,6.60137261 14.8111878,8.2147555 14.8111878,10.204461 C14.8111878,12.1941664 13.1987123,13.8075493 11.210126,13.8075493 C10.6939738,13.8075493 10.2018287,13.6954532 9.75769772,13.4992851 L8.57334851,14.6843008 C9.34557621,15.140692 10.2458417,15.4089219 11.210126,15.4089219 C12.5025071,15.4089219 13.6788539,14.936517 14.5871217,14.1558479 L14.8031854,14.3720332 L14.8031854,15.0045754 L18.8083664,19 L20.000718,17.8069774 L16.0115417,13.8035459 Z" id="zoomReset" fill="#5E646E" fill-rule="nonzero"></path>
    </g>
</svg>